<svg xmlns="http://www.w3.org/2000/svg" viewBox="0 0 100.04 87.15"><defs><style>.cls-1{fill:#5d4f7d;}.cls-2{fill:#c4bd93;}.cls-3{fill:none;}</style></defs><g id="Layer_2" data-name="Layer 2"><g id="OBJECTS"><path class="cls-1" d="M25.44,50.34h0c-4.64-1.63-5.49-4.14-5-6.08a4.41,4.41,0,0,1,1.59-2.33,1.58,1.58,0,0,1,.38-.21c1.61-.66,4.1.94,5.1,1.65a7.69,7.69,0,0,0-2.33,4.33A6.56,6.56,0,0,0,25.44,50.34Z"/><path class="cls-2" d="M23.71,38c-.26.72-.66,1.38-.95,2.09a3.85,3.85,0,0,0-.31,1.61,1.58,1.58,0,0,0-.38.21,4.41,4.41,0,0,0-1.59,2.33c-.48-.33-1-.62-1.49-.91a12.09,12.09,0,0,1-2.36-1.63,4.09,4.09,0,0,1-1.33-2.49,4,4,0,0,1,.59-2.6,20.38,20.38,0,0,1,1.8-2.37c0,.07.79-1.7.82-1.63a5,5,0,0,0,1.7,2,11.83,11.83,0,0,0,2.53,1.29,2.45,2.45,0,0,1,.82.46.52.52,0,0,1,.1.11A1.68,1.68,0,0,1,23.71,38Z"/><path class="cls-2" d="M7.81,29.05a22.12,22.12,0,0,0-1.63,7.43l-.62-1.24a1.52,1.52,0,0,0-.42-.61.65.65,0,0,0-.46-.13,14.59,14.59,0,0,1,1.08-3.61,8.83,8.83,0,0,1,1.46-2.21A.35.35,0,0,1,7.81,29.05Z"/><path class="cls-1" d="M28.79,27.57h0a6.39,6.39,0,0,1-.11,1.57h0a7.72,7.72,0,0,1-.34,1.16,11.72,11.72,0,0,1-2.26,3.44c-.81.9-1.67,1.74-2.49,2.63a2.34,2.34,0,0,0-.92-.21,11.52,11.52,0,0,1-2.8-.51,5.12,5.12,0,0,1-2.18-1.41c.39-2.5.23-5.07.56-7.59a6.47,6.47,0,0,1,.86-2.77,4,4,0,0,1,2.21-1.63l.28-.07a4.07,4.07,0,0,1,1.93.09,4.79,4.79,0,0,1,.59.23,3.91,3.91,0,0,1,.44.26,16.31,16.31,0,0,1,2.14,2.1,9.51,9.51,0,0,1,1.74,1.79l.07.12A3.17,3.17,0,0,1,28.79,27.57Z"/><path class="cls-2" d="M36.22,13.23a20.81,20.81,0,0,1-3.74,10.18,8.86,8.86,0,0,1-3.82,3.32.94.94,0,0,1-.15.06l-.07-.12a9.51,9.51,0,0,0-1.74-1.79,16.31,16.31,0,0,0-2.14-2.1,3.91,3.91,0,0,0-.44-.26A10.44,10.44,0,0,1,25,21.36a21.72,21.72,0,0,1,2.11-2.18l.26-.23h0a29.27,29.27,0,0,0,4.14-4.19A12,12,0,0,0,33.53,10,1.52,1.52,0,0,1,34,9a.89.89,0,0,1,.88-.07,1.73,1.73,0,0,1,.69.6A5.53,5.53,0,0,1,36.22,13.23Z"/><path class="cls-2" d="M37.63,2.3a12.29,12.29,0,0,1-2.92,3.46c-1.23,1-2.66,1.78-3.8,2.9a11.25,11.25,0,0,0-2.84,5.25,29.3,29.3,0,0,0-.73,5h0l-.26.23A21.72,21.72,0,0,0,25,21.36a10.44,10.44,0,0,0-.85,1.16,4.79,4.79,0,0,0-.59-.23,4.07,4.07,0,0,0-1.93-.09l-.28.07A16.1,16.1,0,0,1,19,16.37a11.25,11.25,0,0,1,3.59-9.3,18.58,18.58,0,0,1,9.17-4.48A28.17,28.17,0,0,0,35,1.84,5.72,5.72,0,0,0,37.82,0C38.34.63,38,1.59,37.63,2.3Z"/><path class="cls-1" d="M38.85,70.48a10.27,10.27,0,0,1-2.44,3.29,3.43,3.43,0,0,1-1.47.88,1.79,1.79,0,0,1-.89,0,1.32,1.32,0,0,1-.68-.45A1.56,1.56,0,0,1,33.14,73a4.31,4.31,0,0,1,.48-1.18h0a32.9,32.9,0,0,1,2.57-4A14.53,14.53,0,0,0,38.85,70.48Z"/><path class="cls-2" d="M34.05,74.64a12.14,12.14,0,0,1-8.75.54,5.37,5.37,0,0,1-.56-.21,4.37,4.37,0,0,1-1.67-1.09,2.49,2.49,0,0,1-.62-2,2.29,2.29,0,0,1,.12-.37c3.55-1.07,7.38.82,11,.31A4.31,4.31,0,0,0,33.14,73a1.56,1.56,0,0,0,.23,1.23A1.32,1.32,0,0,0,34.05,74.64Z"/><path class="cls-1" d="M35.07,66.26a30.7,30.7,0,0,1-14.9,1.39,22,22,0,0,1-2.23-.56c-.63-.2-1.38-.59-1.35-1.25h0a1.43,1.43,0,0,1,.89-1,11,11,0,0,1,3.41-.92c3.81-.59,7.64-1,11.46-1.41Q33.69,64.38,35.07,66.26Z"/><path class="cls-2" d="M20.17,67.65l-7.6,9.78-1.51,1.93a2.82,2.82,0,0,1-.75.75.92.92,0,0,1-1,0L9.19,80a1.5,1.5,0,0,1-.11-1.3l7.44-12.85h.07c0,.66.72,1,1.35,1.25A22,22,0,0,0,20.17,67.65Z"/><path class="cls-1" d="M18.41,87.07a.62.62,0,0,1-.5.06,10.33,10.33,0,0,1-5-2.7A30.17,30.17,0,0,1,9.17,80l0,0,.11.12a.92.92,0,0,0,1,0,2.82,2.82,0,0,0,.75-.75l1.51-1.93a16.09,16.09,0,0,0,5.52,8.69C18.39,86.36,18.71,86.82,18.41,87.07Z"/><path class="cls-1" d="M31.29,60.91a33,33,0,0,1-15.61.52,7.14,7.14,0,0,1-2.22-.77,3.1,3.1,0,0,1-.9-.83,1.7,1.7,0,0,1-.05-2l0,0a2.46,2.46,0,0,1,1.68-.56,62.55,62.55,0,0,1,7.5.15l7.55.44C29.92,58.84,30.6,59.88,31.29,60.91Z"/><path class="cls-1" d="M3.16,78.85a4.39,4.39,0,0,1-.27-.47A25.79,25.79,0,0,1,.21,68.08a1,1,0,0,0,.74,0,16,16,0,0,0,2-.6l0,.09a24.92,24.92,0,0,0,.9,10.92A.4.4,0,0,1,3.16,78.85Z"/><path class="cls-2" d="M13.46,60.66A58.78,58.78,0,0,1,7.9,65.07,23.6,23.6,0,0,1,3.11,67.6,17.06,17.06,0,0,1,1,68.23a1.09,1.09,0,0,1-.78,0l-.1-.08a.62.62,0,0,1-.07-.62c.07-.2,10.06-8.14,12.45-9.78l0,0,0,0a1.7,1.7,0,0,0,.05,2A3.1,3.1,0,0,0,13.46,60.66Z"/><path class="cls-1" d="M24.74,75c-.27,1.5-.55,3-.82,4.49l-.36,2a.55.55,0,0,1-.18.37.33.33,0,0,1-.16,0,.44.44,0,0,1-.3-.14,1.14,1.14,0,0,1-.21-.46,23.65,23.65,0,0,1-.33-9.41h.07a2.49,2.49,0,0,0,.62,2A4.37,4.37,0,0,0,24.74,75Z"/><path class="cls-3" d="M23.92,79.46c-.05-.1-.1-.19-.14-.29"/><path class="cls-1" d="M29,57.35a77.86,77.86,0,0,1-8.44-1.57,6.92,6.92,0,0,1-3-1.3,3.78,3.78,0,0,1-.51-.55h0A8.05,8.05,0,0,1,15.78,51a1.41,1.41,0,0,1,0-1.05,1,1,0,0,1,.88-.42,2.3,2.3,0,0,1,.73.18l.25.1a41.4,41.4,0,0,0,8.51,2.45c.27.58.56,1.14.87,1.69C27.66,55.12,28.32,56.24,29,57.35Z"/><path class="cls-2" d="M15.78,51A8.05,8.05,0,0,0,17,53.93c-3.13-2.25-6.27-4.6-8.42-7.78a2.92,2.92,0,0,1-.4-.76h0a1.27,1.27,0,0,1-.06-.28.91.91,0,0,1,.47-1,1.36,1.36,0,0,1,1.22.29l.38.24q3.72,2.37,7.21,5.06a2.3,2.3,0,0,0-.73-.18,1,1,0,0,0-.88.42A1.41,1.41,0,0,0,15.78,51Z"/><path class="cls-1" d="M10.19,44.68l-.38-.24a1.36,1.36,0,0,0-1.22-.29.91.91,0,0,0-.47,1,1.27,1.27,0,0,0,.06.28,26.61,26.61,0,0,1-3.86-10,.83.83,0,0,1,.14-.76.44.44,0,0,1,.22-.1.65.65,0,0,1,.46.13,1.52,1.52,0,0,1,.42.61l.62,1.24h0Z"/><path class="cls-2" d="M74.6,50.34a11.74,11.74,0,0,1-.72,1.95c-.27.58-.56,1.14-.86,1.69-.64,1.14-1.3,2.26-2,3.37l-.27.44c-.65,1.05-1.33,2.09-2,3.12-.35.52-.7,1-1.06,1.55q-1.34,1.92-2.72,3.8c-.09.12-.18.25-.28.37-.27.38-.56.76-.85,1.13a14.23,14.23,0,0,1-2.65,2.72c-.18.14-.38.27-.58.4-3,1.88-10.32,1.91-10.58,1.91h0c-.26,0-7.57,0-10.59-1.91l-.58-.4a14.53,14.53,0,0,1-2.65-2.72c-.29-.37-.57-.75-.85-1.13l-.28-.37c-.92-1.25-1.83-2.52-2.71-3.8-.36-.51-.72-1-1.07-1.55-.69-1-1.37-2.07-2-3.12L29,57.35c-.69-1.11-1.34-2.23-2-3.37-.31-.55-.6-1.11-.86-1.69a11,11,0,0,1-.73-1.95,6.56,6.56,0,0,1-.22-2.64,7.69,7.69,0,0,1,2.33-4.33A16.23,16.23,0,0,1,29.5,41.7a31.15,31.15,0,0,1,6.32-3.6,36,36,0,0,1,28.4,0,31.15,31.15,0,0,1,6.32,3.6,16.23,16.23,0,0,1,1.95,1.67,7.69,7.69,0,0,1,2.33,4.33A6.56,6.56,0,0,1,74.6,50.34Z"/><path class="cls-1" d="M33.63,9a16.67,16.67,0,0,1-3,6.43c-1.57,2-3.7,3.51-5.31,5.5a8.77,8.77,0,0,0-1.81,3.49c-.05.23.31.32.36.09.55-2.46,2.45-4.24,4.22-5.89a25.11,25.11,0,0,0,2.68-2.78,17.48,17.48,0,0,0,1.87-3A17.15,17.15,0,0,0,34,9.07C34,8.84,33.69,8.74,33.63,9Z"/><path class="cls-1" d="M21.86,14.59h0Z"/><polygon class="cls-1" points="21.87 14.52 21.88 14.52 21.88 14.52 21.87 14.52 21.87 14.52"/><path class="cls-1" d="M21.86,14.59Z"/><polygon class="cls-1" points="21.86 14.59 21.86 14.59 21.86 14.59 21.86 14.59 21.86 14.59"/><path class="cls-1" d="M21.85,14.59h0Z"/><path class="cls-1" d="M21.9,14.52h0Z"/><path class="cls-1" d="M21.88,14.52Z"/><path class="cls-1" d="M21.09,15.69a.7.7,0,0,1-.17.74.61.61,0,0,1-.59.12.27.27,0,0,1-.12,0,.52.52,0,0,1-.31-.32.85.85,0,0,1,0-.42.66.66,0,0,1,.53-.56A.69.69,0,0,1,21.09,15.69Z"/><path class="cls-1" d="M21.15,12.93a.73.73,0,0,1,0,.73.7.7,0,0,1-.61.32.57.57,0,0,1-.48-.27.53.53,0,0,1-.12-.14.69.69,0,0,1,.66-1A.69.69,0,0,1,21.15,12.93Z"/><path class="cls-1" d="M22.41,14.55a.6.6,0,0,1-.31.42.55.55,0,0,1-.61-.09.39.39,0,0,1-.12-.24.58.58,0,0,1,0-.32.51.51,0,0,1,.35-.4.58.58,0,0,1,.54.11A.56.56,0,0,1,22.41,14.55Z"/><path class="cls-1" d="M11.66,45.76a4.48,4.48,0,0,0-1.41,2.56c0,.23.32.33.36.1A4.07,4.07,0,0,1,11.92,46C12.1,45.86,11.84,45.6,11.66,45.76Z"/><path class="cls-1" d="M13.22,46.66a6.14,6.14,0,0,0-1.45,3.19c0,.23.32.33.35.1a5.79,5.79,0,0,1,1.36-3C13.63,46.74,13.38,46.48,13.22,46.66Z"/><path class="cls-1" d="M14.76,47.83a5.71,5.71,0,0,0-1.37,3.45c0,.23.35.23.36,0A5.35,5.35,0,0,1,15,48.09C15.17,47.91,14.91,47.65,14.76,47.83Z"/><path class="cls-1" d="M11.83,78.32A2.72,2.72,0,0,1,10.11,77a.19.19,0,0,0-.32.19,3.05,3.05,0,0,0,1.94,1.44C12,78.72,12.06,78.37,11.83,78.32Z"/><path class="cls-1" d="M13.27,75.85a2.15,2.15,0,0,1-1.72-1.2.18.18,0,1,0-.31.19,2.51,2.51,0,0,0,2,1.38.18.18,0,0,0,.18-.19A.19.19,0,0,0,13.27,75.85Z"/><path class="cls-1" d="M15.22,73.64A2.91,2.91,0,0,1,13.16,72a.17.17,0,0,0-.25-.07.19.19,0,0,0-.06.25A3.21,3.21,0,0,0,15.13,74C15.36,74,15.46,73.69,15.22,73.64Z"/><path class="cls-1" d="M17.13,71.5a3.09,3.09,0,0,1-2.26-1.88c-.09-.22-.44-.13-.36.09A3.44,3.44,0,0,0,17,71.85C17.27,71.9,17.37,71.54,17.13,71.5Z"/><path class="cls-1" d="M18.55,69.29a3.83,3.83,0,0,1-2.32-2.12A.19.19,0,0,0,16,67a.18.18,0,0,0-.13.22,4.17,4.17,0,0,0,2.58,2.38C18.68,69.71,18.78,69.36,18.55,69.29Z"/><path class="cls-1" d="M50.07,45.83a2.41,2.41,0,0,1-2.61-2.24c0-.23-.38-.24-.37,0a2.34,2.34,0,1,1-4.66.35h0v0c0-.2-.37-.16-.36,0a.43.43,0,0,1,0,.05h0a2.57,2.57,0,0,1-5,1.22c-.07-.19-.37-.17-.36,0a2.69,2.69,0,0,1-5.17,1.15c-.08-.17-.34-.08-.34.09a2.8,2.8,0,0,1-2,2.84,2,2,0,0,1-2.54-1.69c0-.23-.39-.23-.37,0a2.37,2.37,0,0,0,2.87,2.08,3.06,3.06,0,0,0,2.33-2.63,3.22,3.22,0,0,0,2.2,1.3A3.06,3.06,0,0,0,37,45.89a3.12,3.12,0,0,0,2.22,1.38,2.91,2.91,0,0,0,2.82-1.53,3,3,0,0,0,.28-.76A2.93,2.93,0,0,0,44,46.39a2.65,2.65,0,0,0,2.93-1,2.94,2.94,0,0,0,.4-.79,2.78,2.78,0,0,0,2.74,1.63C50.31,46.18,50.31,45.81,50.07,45.83Z"/><path class="cls-1" d="M49.88,51.1a2,2,0,0,1-2.06,1.66,2.34,2.34,0,0,1-2-1.85.18.18,0,0,0-.35,0,2.31,2.31,0,0,1-2,1.88,2.34,2.34,0,0,1-2.33-1.45.18.18,0,0,0-.36,0,2.34,2.34,0,0,1-4.54.48c-.06-.15-.33-.19-.36,0a2.77,2.77,0,0,1-2,2.36,1.92,1.92,0,0,1-2.37-1.42c-.05-.24-.4-.14-.35.09a2.28,2.28,0,0,0,2.68,1.72,3,3,0,0,0,2.27-2.16A2.69,2.69,0,0,0,41,51.9a2.57,2.57,0,0,0,4.6-.36,2.65,2.65,0,0,0,2.28,1.59,2.37,2.37,0,0,0,2.36-2C50.27,50.86,49.91,50.87,49.88,51.1Z"/><path class="cls-1" d="M39.73,36.41a2.56,2.56,0,1,1-2.56-2.56A2.56,2.56,0,0,1,39.73,36.41Z"/><path class="cls-1" d="M74.6,50.34h0c4.64-1.63,5.48-4.14,5-6.08A4.43,4.43,0,0,0,78,41.92a2.82,2.82,0,0,0-.38-.21c-1.61-.65-4.1.95-5.1,1.66a7.69,7.69,0,0,1,2.33,4.33A6.56,6.56,0,0,1,74.6,50.34Z"/><path class="cls-2" d="M76.34,38c.25.72.65,1.38.94,2.08a3.91,3.91,0,0,1,.31,1.61,2.82,2.82,0,0,1,.38.21,4.43,4.43,0,0,1,1.59,2.34c.48-.33,1-.62,1.49-.91a12.09,12.09,0,0,0,2.36-1.63,3.95,3.95,0,0,0,.75-5.09,20.41,20.41,0,0,0-1.81-2.37c0,.07-.79-1.7-.82-1.63a5,5,0,0,1-1.7,2,11.83,11.83,0,0,1-2.53,1.29,2.45,2.45,0,0,0-.82.46.52.52,0,0,0-.1.11A1.68,1.68,0,0,0,76.34,38Z"/><path class="cls-2" d="M92.23,29.05a22.13,22.13,0,0,1,1.64,7.43l.61-1.24a1.52,1.52,0,0,1,.42-.61.66.66,0,0,1,.47-.13,15.05,15.05,0,0,0-1.09-3.61,8.83,8.83,0,0,0-1.46-2.21A.35.35,0,0,0,92.23,29.05Z"/><path class="cls-1" d="M71.26,27.57h0a6.39,6.39,0,0,0,.11,1.57h0a7.72,7.72,0,0,0,.34,1.16A12.06,12.06,0,0,0,74,33.76c.81.9,1.68,1.74,2.49,2.63a2.21,2.21,0,0,1,.92-.21,12,12,0,0,0,2.8-.51,5.06,5.06,0,0,0,2.18-1.41c-.39-2.5-.23-5.07-.55-7.6a6.62,6.62,0,0,0-.87-2.76,3.94,3.94,0,0,0-2.21-1.63l-.28-.07a4,4,0,0,0-1.92.09,3.8,3.8,0,0,0-.59.23,3.3,3.3,0,0,0-.45.26,16.31,16.31,0,0,0-2.14,2.1,9.51,9.51,0,0,0-1.74,1.79.75.75,0,0,1-.07.12A2.78,2.78,0,0,0,71.26,27.57Z"/><path class="cls-2" d="M63.82,13.23a20.91,20.91,0,0,0,3.74,10.18,8.86,8.86,0,0,0,3.82,3.32l.15.06a.75.75,0,0,0,.07-.12,9.51,9.51,0,0,1,1.74-1.79,16.31,16.31,0,0,1,2.14-2.1,3.3,3.3,0,0,1,.45-.26,12,12,0,0,0-.86-1.16A21.72,21.72,0,0,0,73,19.18L72.71,19h0a29.27,29.27,0,0,1-4.14-4.19,12.15,12.15,0,0,1-2-4.77,1.52,1.52,0,0,0-.44-1,.89.89,0,0,0-.88-.07,1.73,1.73,0,0,0-.69.6A5.53,5.53,0,0,0,63.82,13.23Z"/><path class="cls-2" d="M62.41,2.3a12.29,12.29,0,0,0,2.92,3.46c1.23,1,2.66,1.78,3.8,2.9A11.25,11.25,0,0,1,72,13.91a28.35,28.35,0,0,1,.73,5h0l.25.23a21.72,21.72,0,0,1,2.11,2.18,12,12,0,0,1,.86,1.16,3.8,3.8,0,0,1,.59-.23,4,4,0,0,1,1.92-.09l.28.07a15.9,15.9,0,0,0,2.35-5.9,11.25,11.25,0,0,0-3.59-9.3,18.54,18.54,0,0,0-9.17-4.48A28.64,28.64,0,0,1,65,1.84,5.76,5.76,0,0,1,62.22,0C61.7.63,62,1.59,62.41,2.3Z"/><path class="cls-1" d="M61.19,70.48a10.42,10.42,0,0,0,2.44,3.29,3.43,3.43,0,0,0,1.47.88,1.79,1.79,0,0,0,.89,0,1.32,1.32,0,0,0,.68-.45A1.56,1.56,0,0,0,66.9,73a4,4,0,0,0-.48-1.18,0,0,0,0,0,0,0,32.59,32.59,0,0,0-2.57-4A14,14,0,0,1,61.19,70.48Z"/><path class="cls-2" d="M66,74.64a12.16,12.16,0,0,0,8.76.54c.18-.06.37-.13.55-.21A4.37,4.37,0,0,0,77,73.88a2.47,2.47,0,0,0,.62-2,1.23,1.23,0,0,0-.12-.37c-3.55-1.07-7.38.82-11,.31A4,4,0,0,1,66.9,73a1.56,1.56,0,0,1-.23,1.23A1.32,1.32,0,0,1,66,74.64Z"/><path class="cls-1" d="M65,66.26a30.59,30.59,0,0,0,14.9,1.38,19.1,19.1,0,0,0,2.23-.55c.64-.2,1.38-.59,1.35-1.25h0a1.41,1.41,0,0,0-.89-1,11,11,0,0,0-3.41-.92c-3.81-.59-7.63-1-11.46-1.41Q66.35,64.38,65,66.26Z"/><path class="cls-2" d="M79.87,67.64l7.61,9.79L89,79.36a3,3,0,0,0,.75.75.92.92,0,0,0,1,0,.68.68,0,0,0,.12-.12,1.57,1.57,0,0,0,.11-1.3L83.52,65.84h-.07c0,.66-.71,1-1.35,1.25A19.1,19.1,0,0,1,79.87,67.64Z"/><path class="cls-1" d="M68.75,60.91a33,33,0,0,0,15.61.52,7.05,7.05,0,0,0,2.22-.77,3.27,3.27,0,0,0,.91-.83,1.73,1.73,0,0,0,.05-2l0,0a2.46,2.46,0,0,0-1.68-.56,62.59,62.59,0,0,0-7.5.15l-7.55.44C70.12,58.84,69.44,59.88,68.75,60.91Z"/><path class="cls-1" d="M96.88,78.85a4.39,4.39,0,0,0,.27-.47,25.79,25.79,0,0,0,2.68-10.3,1,1,0,0,1-.74,0,15.34,15.34,0,0,1-2-.6l0,.09a24.71,24.71,0,0,1-.9,10.91A.41.41,0,0,0,96.88,78.85Z"/><path class="cls-2" d="M86.58,60.66a58.78,58.78,0,0,0,5.56,4.41,23.07,23.07,0,0,0,4.79,2.52,15.54,15.54,0,0,0,2.11.64,1.09,1.09,0,0,0,.78,0l.1-.08a.63.63,0,0,0,.07-.62c-.07-.2-10.06-8.14-12.45-9.78l0,0,0,0a1.73,1.73,0,0,1-.05,2A3.27,3.27,0,0,1,86.58,60.66Z"/><path class="cls-3" d="M76.27,79.17l-.15.29"/><path class="cls-1" d="M71,57.35a80.36,80.36,0,0,0,8.44-1.57,7,7,0,0,0,3-1.3,4.35,4.35,0,0,0,.5-.55h0A7.88,7.88,0,0,0,84.26,51a1.39,1.39,0,0,0,0-1.06,1,1,0,0,0-.89-.41,2.37,2.37,0,0,0-.73.18l-.25.1a41.4,41.4,0,0,1-8.51,2.45c-.27.58-.56,1.14-.86,1.69C72.38,55.12,71.73,56.24,71,57.35Z"/><path class="cls-2" d="M84.26,51A7.88,7.88,0,0,1,83,53.93c3.13-2.25,6.27-4.6,8.42-7.78a2.92,2.92,0,0,0,.4-.76h0a1.4,1.4,0,0,0,.06-.28.91.91,0,0,0-.47-1,1.37,1.37,0,0,0-1.22.29l-.38.24q-3.72,2.37-7.21,5.06a2.37,2.37,0,0,1,.73-.18,1,1,0,0,1,.89.41A1.39,1.39,0,0,1,84.26,51Z"/><path class="cls-1" d="M89.85,44.68l.38-.24a1.37,1.37,0,0,1,1.22-.29.91.91,0,0,1,.47,1,1.4,1.4,0,0,1-.06.28,26.59,26.59,0,0,0,3.86-10,.82.82,0,0,0-.13-.75.49.49,0,0,0-.22-.1.66.66,0,0,0-.47.13,1.52,1.52,0,0,0-.42.61l-.61,1.24h0Z"/><path class="cls-1" d="M66.41,9a16.54,16.54,0,0,0,3,6.43c1.56,2,3.7,3.51,5.3,5.5a8.58,8.58,0,0,1,1.81,3.49.19.19,0,0,1-.36.09C75.63,22,73.73,20.24,72,18.59a25.11,25.11,0,0,1-2.68-2.78,17.48,17.48,0,0,1-1.87-3,17.15,17.15,0,0,1-1.36-3.79C66,8.84,66.36,8.74,66.41,9Z"/><path class="cls-1" d="M78.18,14.59h0Z"/><polygon class="cls-1" points="78.17 14.52 78.17 14.52 78.17 14.52 78.17 14.52 78.17 14.52"/><path class="cls-1" d="M78.18,14.59Z"/><polygon class="cls-1" points="78.19 14.59 78.19 14.59 78.19 14.59 78.19 14.59 78.19 14.59"/><path class="cls-1" d="M78.19,14.59h0Z"/><path class="cls-1" d="M78.14,14.52h0Z"/><path class="cls-1" d="M78.16,14.52Z"/><path class="cls-1" d="M79,15.69a.69.69,0,0,0,.18.74.63.63,0,0,0,.59.12l.11,0a.52.52,0,0,0,.31-.32.75.75,0,0,0,0-.42.66.66,0,0,0-.53-.56A.67.67,0,0,0,79,15.69Z"/><path class="cls-1" d="M78.89,12.93a.73.73,0,0,0,0,.73.7.7,0,0,0,.61.32.57.57,0,0,0,.48-.27.53.53,0,0,0,.12-.14.69.69,0,0,0-.66-1A.69.69,0,0,0,78.89,12.93Z"/><path class="cls-1" d="M77.63,14.54A.59.59,0,0,0,78,15a.53.53,0,0,0,.6-.09.47.47,0,0,0,.13-.24.69.69,0,0,0,0-.32.51.51,0,0,0-.35-.4.58.58,0,0,0-.54.11A.55.55,0,0,0,77.63,14.54Z"/><path class="cls-1" d="M88.38,45.76a4.42,4.42,0,0,1,1.41,2.56c0,.23-.32.33-.36.1A4.07,4.07,0,0,0,88.12,46C88,45.86,88.21,45.6,88.38,45.76Z"/><path class="cls-1" d="M86.82,46.66a6.24,6.24,0,0,1,1.46,3.19c0,.23-.33.33-.36.09a5.86,5.86,0,0,0-1.36-3C86.41,46.74,86.67,46.48,86.82,46.66Z"/><path class="cls-1" d="M85.28,47.83a5.79,5.79,0,0,1,1.38,3.45c0,.23-.36.23-.37,0A5.34,5.34,0,0,0,85,48.09C84.87,47.91,85.13,47.65,85.28,47.83Z"/><path class="cls-1" d="M88.21,78.31A2.63,2.63,0,0,0,89.93,77a.18.18,0,0,1,.32.18,3,3,0,0,1-1.94,1.45C88.08,78.72,88,78.37,88.21,78.31Z"/><path class="cls-1" d="M86.77,75.85a2.14,2.14,0,0,0,1.72-1.2.18.18,0,0,1,.25-.06.19.19,0,0,1,.07.25,2.54,2.54,0,0,1-2,1.38.18.18,0,0,1-.18-.19A.19.19,0,0,1,86.77,75.85Z"/><path class="cls-1" d="M84.82,73.64a2.88,2.88,0,0,0,2.06-1.7.18.18,0,0,1,.25-.06.19.19,0,0,1,.07.25A3.22,3.22,0,0,1,84.91,74C84.68,74,84.59,73.69,84.82,73.64Z"/><path class="cls-1" d="M82.91,71.5a3.06,3.06,0,0,0,2.26-1.89c.09-.21.44-.12.36.1A3.42,3.42,0,0,1,83,71.85C82.77,71.9,82.68,71.54,82.91,71.5Z"/><path class="cls-1" d="M81.49,69.29a3.83,3.83,0,0,0,2.32-2.12A.19.19,0,0,1,84,67a.18.18,0,0,1,.12.22,4.18,4.18,0,0,1-2.57,2.38A.18.18,0,0,1,81.49,69.29Z"/><path class="cls-1" d="M50,45.83a2.41,2.41,0,0,0,2.61-2.24c0-.23.38-.24.37,0a2.34,2.34,0,1,0,4.66.35h0v0c0-.2.37-.16.36,0A.43.43,0,0,0,58,44h0a2.58,2.58,0,0,0,5,1.22.18.18,0,0,1,.36,0,2.68,2.68,0,0,0,5.16,1.15c.08-.17.34-.08.34.09a2.8,2.8,0,0,0,2,2.84,2,2,0,0,0,2.54-1.69c0-.23.38-.23.36,0a2.36,2.36,0,0,1-2.86,2.08,3.06,3.06,0,0,1-2.34-2.63,3.22,3.22,0,0,1-2.2,1.3A3,3,0,0,1,63.46,47,3.2,3.2,0,0,1,63,45.89a3.12,3.12,0,0,1-2.22,1.38A2.91,2.91,0,0,1,58,45.74a3,3,0,0,1-.28-.76A2.87,2.87,0,0,1,56,46.38a2.61,2.61,0,0,1-2.92-1,2.7,2.7,0,0,1-.41-.79A2.77,2.77,0,0,1,50,46.2C49.74,46.18,49.73,45.81,50,45.83Z"/><path class="cls-1" d="M50.16,51.1a2,2,0,0,0,2.06,1.66,2.34,2.34,0,0,0,2-1.85.18.18,0,0,1,.35,0,2.24,2.24,0,0,0,4.31.43.18.18,0,0,1,.36,0,2.35,2.35,0,0,0,4.55.48c.05-.15.32-.19.35,0a2.77,2.77,0,0,0,2,2.36,1.92,1.92,0,0,0,2.37-1.42c0-.24.4-.14.36.09a2.3,2.3,0,0,1-2.69,1.72,3,3,0,0,1-2.27-2.16A2.69,2.69,0,0,1,59,51.9a2.57,2.57,0,0,1-4.6-.36,2.65,2.65,0,0,1-2.28,1.59,2.37,2.37,0,0,1-2.36-2C49.77,50.86,50.13,50.87,50.16,51.1Z"/><circle class="cls-1" cx="62.87" cy="36.41" r="2.56"/><path class="cls-2" d="M58.5,19a11,11,0,0,0-7.23,3c-.18.17-.35.35-.51.53.14-.31.28-.63.4-1s.15-.36.22-.54l.08-.08c.78-1.68,2.45-2.73,3.39-4.32a7.9,7.9,0,0,0,1-2.66,12.53,12.53,0,0,0,.06-2.74,9.26,9.26,0,0,1,.17-3.06c.07-.22-.26-.35-.34-.13-.58,1.65-2,2.76-3.07,4.06a6.7,6.7,0,0,0-1.3,2.29A9.66,9.66,0,0,0,51,17.33c0,.84.06,1.68.08,2.53v.88s0,0,0,.06c-.08.21-.16.42-.25.64-.26.63-.55,1.26-.85,1.88,0-.05,0-.09,0-.13a2.8,2.8,0,0,0,.05-.34c.08-.74.15-1.48.17-2.23a8.87,8.87,0,0,0-.81-4.19,17.24,17.24,0,0,0-2.86-3.83.18.18,0,0,0-.3.19c.55,1.58-.11,3.27-.18,4.87A4.38,4.38,0,0,0,46.5,20a9.64,9.64,0,0,0,1.44,1.86A8.34,8.34,0,0,1,49,23.15a3.64,3.64,0,0,1,.41.92.17.17,0,0,0,.11.12l-.54.94.31.19c.19-.3.36-.6.53-.91l.15-.26a2.08,2.08,0,0,0,.64.16,5.25,5.25,0,0,0,3.92-1.38c1.41-1.14,2.48-2.67,4-3.62C58.69,19.23,58.7,19,58.5,19Z"/><path class="cls-2" d="M59.34,25.31c-3-.69-6.12-1.16-9.07-.14a9.56,9.56,0,0,0-1.23.54l.24-.39L49,25.13c-.19.31-.38.61-.58.91a7.18,7.18,0,0,1-.34-1.67,9.93,9.93,0,0,0-5.18-6.72c-.15-.07-.29.11-.23.25a26.37,26.37,0,0,1,1.12,4.21A6.51,6.51,0,0,0,46,25.61a6.27,6.27,0,0,0,2,1c-.3.43-.61.86-.94,1.28-.53.67-1.1,1.31-1.69,1.92a8.76,8.76,0,0,0-2.24-7,8.5,8.5,0,0,0-1.79-1.49c-.14-.09-.38,0-.28.22.69,1.19.53,2.61.62,3.92a6.74,6.74,0,0,0,.26,1.49,6.38,6.38,0,0,0,1.14,2.23,6.76,6.76,0,0,0,1.56,1.41,29.37,29.37,0,0,1-2.25,1.93l.22.29c.19-.15.39-.29.57-.45A23.65,23.65,0,0,0,45,30.69a8.25,8.25,0,0,0,4.77,1.09,17.56,17.56,0,0,0,4-1.42,7.72,7.72,0,0,1,2.36-.59c.18,0,.19-.3,0-.35-2.89-1-6.07-1.41-9-.32a8,8,0,0,0-1.19.55c.46-.5.89-1,1.31-1.53s.73-.95,1.07-1.44a4.46,4.46,0,0,0,2,1,7.53,7.53,0,0,0,4.34-.48,20.32,20.32,0,0,1,4.54-1.5C59.48,25.63,59.52,25.34,59.34,25.31Z"/><path class="cls-1" d="M59.78,17.6A11.09,11.09,0,1,1,58.25,5a7.39,7.39,0,0,0-10.38,6.75A7.38,7.38,0,0,0,59.78,17.6Z"/><polygon class="cls-1" points="12.25 22.9 13.96 26 12.25 29.25 10.6 25.98 12.25 22.9"/><path class="cls-1" d="M9.15,21.32a.92.92,0,0,0,0,1.83A.92.92,0,0,0,9.15,21.32Z"/><path class="cls-1" d="M12.41,17.92a.92.92,0,0,0,0,1.83A.92.92,0,0,0,12.41,17.92Z"/><path class="cls-1" d="M9.42,16.7a.92.92,0,0,0,0,1.83A.92.92,0,0,0,9.42,16.7Z"/><polygon class="cls-1" points="96.5 55.76 98.22 58.86 96.5 62.11 94.85 58.84 96.5 55.76"/><path class="cls-1" d="M93.4,54.18a.92.92,0,0,0,0,1.83A.92.92,0,0,0,93.4,54.18Z"/><path class="cls-1" d="M96.66,50.78a.92.92,0,0,0,0,1.83A.92.92,0,0,0,96.66,50.78Z"/><path class="cls-1" d="M93.67,49.56a.92.92,0,0,0,0,1.83A.92.92,0,0,0,93.67,49.56Z"/></g></g></svg>