<svg xmlns="http://www.w3.org/2000/svg" viewBox="0 0 66.42 96.58"><defs><style>.cls-1{fill:#5d4f7d;}.cls-2{fill:#efeae8;}.cls-3{fill:#c4bd93;}</style></defs><g id="Layer_2" data-name="Layer 2"><g id="OBJECTS"><path class="cls-1" d="M46.13,27.61a62.6,62.6,0,0,0-31.2-.2.17.17,0,0,0,.08.33,62,62,0,0,1,31,.2A.17.17,0,0,0,46.13,27.61Z"/><path class="cls-1" d="M65.64,26a9.55,9.55,0,0,1-1.87,5.75,6.78,6.78,0,0,1-3.44,2.48,2,2,0,0,1-2.18-.46,1.78,1.78,0,0,1-.07-1.68A15.28,15.28,0,0,1,59,30.57a6.19,6.19,0,0,0-.06-5.71,9.65,9.65,0,0,0-10.74-4.54A10.6,10.6,0,0,0,43,24.53c-1.3,1.83-2.28,3.87-3.54,5.73a11.3,11.3,0,0,1-5,4.41,6.31,6.31,0,0,1-3.79.26l.23-.1h0a7.94,7.94,0,0,0,4.12-1.92c2-1.78,3.22-4.3,4.29-6.77s2.1-5,3.91-7a13.16,13.16,0,0,1,7.23-3.93,13.84,13.84,0,0,1,8.89,1.13,11.48,11.48,0,0,1,5.79,6.74A10,10,0,0,1,65.64,26Z"/><path class="cls-1" d="M65.64,26a10,10,0,0,0-.43-2.93,11.48,11.48,0,0,0-5.79-6.74,13.84,13.84,0,0,0-8.89-1.13,13.16,13.16,0,0,0-7.23,3.93c-1.81,2-2.85,4.55-3.91,7s-2.27,5-4.29,6.77A7.94,7.94,0,0,1,31,34.83a10.64,10.64,0,0,0,4.93-5.31,33.39,33.39,0,0,0,2.15-7.89,25.54,25.54,0,0,1,2.47-7.78A13.91,13.91,0,0,1,52.05,7,14.29,14.29,0,0,1,64,13.16a13.8,13.8,0,0,1,1.41,2.69A14.76,14.76,0,0,1,65.64,26Z"/><path class="cls-1" d="M65.39,15.85A13.8,13.8,0,0,0,64,13.16,14.29,14.29,0,0,0,52.05,7a13.91,13.91,0,0,0-11.52,6.85,25.54,25.54,0,0,0-2.47,7.78,33.39,33.39,0,0,1-2.15,7.89A10.64,10.64,0,0,1,31,34.83h0a3.13,3.13,0,0,1-.44,0,2.65,2.65,0,0,1-.37-.12,7.91,7.91,0,0,0,3.4-4.83,28.76,28.76,0,0,0,.57-7,40.65,40.65,0,0,1,.64-7,21.54,21.54,0,0,1,4.27-9.86A16.12,16.12,0,0,1,50.12.27,14.77,14.77,0,0,1,61.78,4.66,13.7,13.7,0,0,1,65.39,15.85Z"/><path class="cls-1" d="M34.78,16a40.65,40.65,0,0,0-.64,7,28.76,28.76,0,0,1-.57,7,7.91,7.91,0,0,1-3.4,4.83l0,0A8,8,0,0,0,32.65,31a12.91,12.91,0,0,0,.54-4.91,11,11,0,0,0-1.76-5.74,6.11,6.11,0,0,0-5.14-2.74,4.25,4.25,0,0,0-4,3.82c0,.34,0,.75-.26,1a.7.7,0,0,1-.94-.21,1.73,1.73,0,0,1-.24-1,8,8,0,0,1,2.93-6,8.89,8.89,0,0,1,6.46-1.88A5.65,5.65,0,0,1,34.78,16Z"/><path class="cls-2" d="M62.37,18.16a13.1,13.1,0,0,0-9.54-3.83,12.74,12.74,0,0,0-5.14,1.28,12.6,12.6,0,0,0-4.12,3.27c-2.26,2.69-3.53,6-5,9.14-1.43,3-3.22,6-6.06,7.8a11.4,11.4,0,0,1-1.08.6c-.2.09,0,.39.17.29,3-1.41,5-4.18,6.5-7,1.61-3,2.76-6.26,4.66-9.11a14.09,14.09,0,0,1,3.53-3.73,12.25,12.25,0,0,1,4.88-2A12.55,12.55,0,0,1,61,17.43a13.15,13.15,0,0,1,4.86,9c0,.43,0,.86,0,1.29a.17.17,0,0,0,.34,0A13.53,13.53,0,0,0,62.37,18.16Z"/><path class="cls-2" d="M66.21,17a15.09,15.09,0,0,0-6.93-8A14.37,14.37,0,0,0,48.77,7.62,15.41,15.41,0,0,0,40,13.81c-2.39,3.51-2.67,7.8-3.43,11.85a19.31,19.31,0,0,1-2,6,13.62,13.62,0,0,1-5.17,5.2.17.17,0,0,0,.17.3,14.37,14.37,0,0,0,4.31-3.83,15.46,15.46,0,0,0,2.54-5.47c1.06-4.05,1-8.43,2.9-12.25A14.77,14.77,0,0,1,47.19,8.5a14.14,14.14,0,0,1,5.3-1,14,14,0,0,1,5.24,1.12,15,15,0,0,1,7.65,7.21c.19.4.35.81.5,1.22C66,17.26,66.29,17.17,66.21,17Z"/><path class="cls-2" d="M34.64,14.31a33.68,33.68,0,0,0-.6,5.93,7.29,7.29,0,0,0-4.93-4.82,6.23,6.23,0,0,0-6.92,2.66,5.75,5.75,0,0,0-.71,4.13c.05.22.38.12.33-.09a5.49,5.49,0,0,1,3.05-6,6.33,6.33,0,0,1,7,1.25,7.41,7.41,0,0,1,2,3.54A.16.16,0,0,0,34,21l0,1.31a28.55,28.55,0,0,1-.93,7.87,7,7,0,0,1-2,3.28c-.17.14.07.38.24.24,1.83-1.59,2.39-4.17,2.7-6.46.36-2.73.28-5.48.41-8.22A28.94,28.94,0,0,1,35,14.4C35,14.18,34.69,14.09,34.64,14.31Z"/><path class="cls-2" d="M59.69,24.8a8.31,8.31,0,0,0-2.84-4.92,8.5,8.5,0,0,0-5.41-2,11.48,11.48,0,0,0-6.17,1.89,20.69,20.69,0,0,0-5.2,5c-.14.17.1.42.24.24,2.51-3.24,5.84-6.29,10.11-6.72A8.38,8.38,0,0,1,56,19.67a8.07,8.07,0,0,1,3.17,4.41,8.18,8.18,0,0,1-1,6.49c-.12.19.17.36.29.18A8.57,8.57,0,0,0,59.69,24.8Z"/><path class="cls-2" d="M55,0A16.55,16.55,0,0,0,44.79,4a20.4,20.4,0,0,0-6.23,9.8,26.44,26.44,0,0,0-1.09,6.73c0,.22.33.22.34,0a24.41,24.41,0,0,1,3.1-11.35A18.13,18.13,0,0,1,49,1.73,15.13,15.13,0,0,1,55,.34.17.17,0,0,0,55,0Z"/><path class="cls-1" d="M20.22,44.66a20.33,20.33,0,0,0-1-3.68,9.67,9.67,0,0,0-2.32-3.84,4.65,4.65,0,0,0-4.17-1.24c-2,.52-3.16,2.66-3.23,4.7A14,14,0,0,0,11,46.47a21.51,21.51,0,0,1,1.38,4,26.2,26.2,0,0,0-4.15,2.69A53,53,0,0,0,6.36,45.6c-.81-3-1.28-6.22,0-9a8.18,8.18,0,0,1,8.13-4.68A8.25,8.25,0,0,1,21,36.77,13.7,13.7,0,0,1,21.35,39,8.81,8.81,0,0,1,20.22,44.66Z"/><path class="cls-3" d="M42,32a44.29,44.29,0,0,1-11.48,1.24A44.17,44.17,0,0,1,19.08,32c-5.86-1.69-4.14-4.51-4.14-4.51,2.12,1,12.37,1.45,15.62,1.58,3.24-.13,13.49-.62,15.61-1.58C46.17,27.47,47.89,30.29,42,32Z"/><path class="cls-1" d="M54.76,45.6a51.71,51.71,0,0,0-1.92,7.56,25.32,25.32,0,0,0-4.15-2.69,22.27,22.27,0,0,1,1.38-4,14.19,14.19,0,0,0,1.51-5.87c-.08-2-1.27-4.18-3.24-4.7a4.63,4.63,0,0,0-4.16,1.24A9.45,9.45,0,0,0,41.86,41a20.36,20.36,0,0,0-1,3.68A8.94,8.94,0,0,1,39.76,39a14.91,14.91,0,0,1,.39-2.19,8,8,0,0,1,14.63-.19C56,39.38,55.57,42.64,54.76,45.6Z"/><path class="cls-1" d="M24.22,9.68a6.95,6.95,0,1,1-6.95-6.95A6.95,6.95,0,0,1,24.22,9.68Z"/><polygon class="cls-1" points="8.61 25.46 10.21 28.35 8.61 31.39 7.07 28.33 8.61 25.46"/><path class="cls-1" d="M4.89,27.57a.86.86,0,0,0,0,1.71A.86.86,0,0,0,4.89,27.57Z"/><path class="cls-1" d="M8.77,20.81a.86.86,0,0,0,0,1.71A.86.86,0,0,0,8.77,20.81Z"/><path class="cls-1" d="M4.89,22.19a.86.86,0,0,0,0,1.71A.86.86,0,0,0,4.89,22.19Z"/><polygon class="cls-1" points="57.02 48.57 58.62 51.46 57.02 54.49 55.48 51.44 57.02 48.57"/><path class="cls-1" d="M57.18,43.92a.86.86,0,0,0,0,1.71A.86.86,0,0,0,57.18,43.92Z"/><path class="cls-1" d="M59.8,54.09a.86.86,0,0,0,0,1.72A.86.86,0,0,0,59.8,54.09Z"/><path class="cls-3" d="M42.89,72.24l.44,0-.21,0Z"/><path class="cls-1" d="M12.39,75a59,59,0,0,0,3.45,5h0c.14,0,4.65,1.66,14.72,1.78,10.06-.12,14.57-1.73,14.71-1.78h0a57.78,57.78,0,0,0,3.42-5C36.92,78.13,24.37,77,12.39,75Z"/><path class="cls-1" d="M37.16,90.43a1.59,1.59,0,0,1-.24.2c-1.52,1.17-4.7,1.4-6.33,1.43h-.08c-1.63,0-4.8-.26-6.32-1.43l-.24-.2c-1.11-1.08.46-1.66.46-1.66s1.78,1.11,6.15,1.26c4.36-.15,6.14-1.26,6.14-1.26S38.28,89.35,37.16,90.43Z"/><path class="cls-3" d="M30.56,81.84c10.06-.12,14.57-1.73,14.71-1.78a44.75,44.75,0,0,1-8.57,8.7S34.93,89.88,30.56,90c-4.37-.15-6.15-1.27-6.15-1.27a44.47,44.47,0,0,1-8.57-8.7C16,80.11,20.49,81.72,30.56,81.84Z"/><path class="cls-3" d="M56.06,55.73C56,59,54.33,64.42,51.45,70.14h0q-1.23,2.46-2.76,4.94c-11.77,3-24.32,1.94-36.3-.06-1-1.63-1.92-3.27-2.73-4.88h0C6.78,64.42,5.14,59,5.05,55.73a6.61,6.61,0,0,1,3.22-5.86,27.18,27.18,0,0,1,4.15-2.27c.76-.35,1.53-.7,2.29-1.07,0,0,2.51,3.24,15.85,3.39,13.34-.15,15.85-3.39,15.85-3.39.75.37,1.52.72,2.28,1.07a26.71,26.71,0,0,1,4.15,2.27A6.59,6.59,0,0,1,56.06,55.73Z"/><path class="cls-3" d="M42.89,72.24l.44,0-.21,0Z"/><path class="cls-3" d="M42.56,44.3c0,.09-.89,1.61-11.87,1.71h-.27c-11-.1-11.83-1.62-11.86-1.71.26-.2.52-.4.76-.62a5.93,5.93,0,0,0,.9-1,6.49,6.49,0,0,0,1.13-4.82h.07S22.86,39,30.56,39c7.44-.09,9-1.1,9.13-1.17h.07a6.58,6.58,0,0,0,1.13,4.82,5.93,5.93,0,0,0,.9,1C42,43.9,42.29,44.1,42.56,44.3Z"/><path class="cls-1" d="M42,32a15.85,15.85,0,0,0-1.89,4,11,11,0,0,0-.39,1.85h-.07C39.59,37.94,38,39,30.56,39c-7.7-.09-9.14-1.17-9.14-1.17h-.07A10.12,10.12,0,0,0,21,36a15.64,15.64,0,0,0-1.88-4A52.56,52.56,0,0,0,30.56,33,52.7,52.7,0,0,0,42,32Z"/><path class="cls-3" d="M42.22,94.31c-.24,1.84-5,2.23-11.36,2.27h-.6c-6.35,0-11.13-.43-11.37-2.27s5.26-3.65,5.26-3.65l0,0c1.52,1.17,4.7,1.4,6.34,1.43h.06c1.63,0,4.81-.26,6.33-1.43l0,0S42.47,92.34,42.22,94.31Z"/><path class="cls-1" d="M46.41,46.53s-2.51,3.23-15.85,3.39c-13.34-.16-15.85-3.39-15.85-3.39a23.34,23.34,0,0,0,3.85-2.23c0,.09.88,1.61,11.86,1.71h.27c11-.1,11.83-1.62,11.87-1.71A22.54,22.54,0,0,0,46.41,46.53Z"/><path class="cls-1" d="M1.2,60.11c2,.49,3.72,1.77,5.64,2.52a6,6,0,0,0,4.72.12,2.68,2.68,0,0,0,.64-.39l.24.23.89.8.28-.32-.91-.82a.22.22,0,0,0,.08-.18,4,4,0,0,1,.12-1.14,10.32,10.32,0,0,1,.67-1.78,10.88,10.88,0,0,0,.92-2.52A5.16,5.16,0,0,0,14.18,54c-.64-1.71-1.95-3.3-1.89-5.21a.21.21,0,0,0-.4-.1,20,20,0,0,0-1.76,5.14,10,10,0,0,0,.58,4.82c.27.8.61,1.58.95,2.36,0,.09.11.21.18.34l.06.14c-.55-.56-1.08-1.14-1.58-1.74-.17-.2-.34-.4-.49-.61,0,0,0,0,0-.06-.1-.28-.19-.57-.28-.85l0-.1c-.27-.92-.5-1.85-.79-2.77a11.2,11.2,0,0,0-1.4-3,7.88,7.88,0,0,0-2.2-2c-1.63-1-3.55-1.75-4.74-3.32-.16-.22-.48,0-.33.25a10.44,10.44,0,0,1,1.25,3.25,14.5,14.5,0,0,0,1,3,9.07,9.07,0,0,0,2,2.54c1.57,1.39,3.74,2,5.17,3.5a.27.27,0,0,0,.12.06q.2.25.42.51c.25.3.51.59.77.88-.24-.14-.49-.27-.74-.4a12.51,12.51,0,0,0-8.88-.77C.93,59.78,1,60.07,1.2,60.11Z"/><path class="cls-1" d="M2.6,67.24A23,23,0,0,1,8,67.29a8.43,8.43,0,0,0,4.86-1,5.15,5.15,0,0,0,1.85-1.74c.54.41,1.09.8,1.66,1.18s1.28.83,1.94,1.2a9,9,0,0,0-1.47-.18c-3.53-.16-6.82,1.43-9.61,3.47-.16.12,0,.43.16.37a8.52,8.52,0,0,1,2.76-.18,19.7,19.7,0,0,0,4.85.14,9.45,9.45,0,0,0,4.78-2.84c.84.41,1.68.79,2.55,1.13l.78.28.14-.39a29.23,29.23,0,0,1-3.11-1.31,7.2,7.2,0,0,0,1.66-4.87,7,7,0,0,0-.24-1.7c-.36-1.45-1-2.94-.69-4.46.05-.22-.26-.3-.38-.15a10.52,10.52,0,0,0-1.43,2.24,10,10,0,0,0,0,8.4c-.85-.46-1.69-1-2.49-1.49-.5-.34-1-.7-1.47-1.06A7.13,7.13,0,0,0,17,62.57,7.36,7.36,0,0,0,18.19,58,30.29,30.29,0,0,1,18,53.05c0-.17-.21-.32-.34-.19a11.13,11.13,0,0,0-2.76,4.46,11.28,11.28,0,0,0-.51,4.61,8.45,8.45,0,0,1,.21,1.93l-.94-.79-.28.32.4.34a10.87,10.87,0,0,0-1.52-.16c-3.55-.08-6.8,1.52-9.77,3.3C2.26,67,2.41,67.27,2.6,67.24Z"/><path class="cls-1" d="M14.16,74.39a15.27,15.27,0,0,1,4.37-.48,5.93,5.93,0,0,0,3.78-1.41,9,9,0,0,0,1.52-1.88c.22-.34.42-.69.62-1v0c.82.26,1.64.47,2.48.66-2.64.62-4.4,3-5.87,5.17-.11.16.06.41.25.32l2.33-1.09c.74-.35,1.49-.68,2.19-1.09a4.19,4.19,0,0,0,2.25-3.09,24.57,24.57,0,0,0,3,.36,7.8,7.8,0,0,0,3-.32c.26-.08.09-.46-.16-.38a8.55,8.55,0,0,1-3.49.24,29.6,29.6,0,0,1-3.23-.48c-.8-.17-1.6-.38-2.39-.61a7.32,7.32,0,0,0-2.23-9.13.22.22,0,0,0-.33.15,11.51,11.51,0,0,0-.1,2.27A14.86,14.86,0,0,0,24.09,69l-.8-.28-.14.39c-.4,0-.81.08-1.21.15a13.19,13.19,0,0,0-8,4.79C13.78,74.24,14,74.45,14.16,74.39Z"/><path class="cls-1" d="M39.05,59.06a10.85,10.85,0,0,0-2.91,7.21c0,.25,0,.49,0,.74-.12-.32-.24-.64-.38-1s-.15-.36-.23-.53a.14.14,0,0,0,0-.11c-.63-1.73-.21-3.64-.67-5.41a7.82,7.82,0,0,0-1.19-2.55,12.13,12.13,0,0,0-1.9-2,9.08,9.08,0,0,1-2-2.26c-.12-.2-.44-.05-.34.16.76,1.55.55,3.33.72,5a6.68,6.68,0,0,0,.7,2.51,9.67,9.67,0,0,0,1.82,2.3c.6.58,1.23,1.13,1.84,1.71l.06.06c.19.19.38.37.56.56,0,0,0,0,0,0,.1.21.19.42.28.63.26.62.51,1.27.72,1.91l-.08-.1c-.07-.1-.14-.2-.2-.27-.46-.57-.94-1.14-1.45-1.68a8.91,8.91,0,0,0-3.52-2.35A17.33,17.33,0,0,0,26.2,63a.18.18,0,0,0-.08.35c1.5.71,2.23,2.36,3.31,3.54a4.43,4.43,0,0,0,1.95,1.29,9.42,9.42,0,0,0,2.31.28,9.18,9.18,0,0,1,1.66.19,3.18,3.18,0,0,1,.93.35h0a16.45,16.45,0,0,1,.73,4.46c0,.17.24.15.27,0a9.22,9.22,0,0,0-.51-4.84,3.41,3.41,0,0,0,.49-.31,5.18,5.18,0,0,0,1.76-3.72c.18-1.79-.15-3.61.27-5.38C39.37,59.11,39.19,58.91,39.05,59.06Z"/><polygon class="cls-1" points="50.88 60.46 52.48 63.35 50.88 66.39 49.34 63.33 50.88 60.46"/><path class="cls-1" d="M48,59a.86.86,0,0,0,0,1.71A.86.86,0,0,0,48,59Z"/><path class="cls-1" d="M51,55.81a.86.86,0,0,0,0,1.71A.86.86,0,0,0,51,55.81Z"/><path class="cls-1" d="M48.24,54.67a.86.86,0,0,0,0,1.71A.86.86,0,0,0,48.24,54.67Z"/><path class="cls-3" d="M26.59,2.52a1,1,0,0,0-1.18-.77,2.58,2.58,0,0,0-.83.37,10.11,10.11,0,0,0-.87.58A11.3,11.3,0,0,0,22.25,4c-.16.18.1.44.26.26a9.77,9.77,0,0,1,2.53-2,.93.93,0,0,1,.82-.13.78.78,0,0,1,.4.53,2.68,2.68,0,0,1-.33,1.56,20.31,20.31,0,0,1-3.22,5.21,45.37,45.37,0,0,1-4.28,4.38,31.26,31.26,0,0,1-4.9,3.91,14.36,14.36,0,0,1-1.56.8,8.78,8.78,0,0,1-.85.33,1.12,1.12,0,0,1-.7,0c-.57-.2-.19-1.14-.05-1.52a4.68,4.68,0,0,1,1-1.51c.17-.18-.09-.44-.25-.26A4.72,4.72,0,0,0,10.13,17a3.08,3.08,0,0,0-.36,1.53c.15,1.25,1.71.58,2.38.29a21.62,21.62,0,0,0,5.71-4c3.34-3,6.71-6.27,8.42-10.5A2.71,2.71,0,0,0,26.59,2.52Z"/></g></g></svg>