<svg xmlns="http://www.w3.org/2000/svg" viewBox="0 0 101.54 80.88"><defs><style>.cls-1{fill:#c4bd93;}.cls-2{fill:#5d4f7d;}</style></defs><g id="Layer_2" data-name="Layer 2"><g id="OBJECTS"><circle class="cls-1" cx="51.75" cy="10.6" r="10.6" transform="translate(1.05 25.41) rotate(-27.86)"/><path class="cls-1" d="M58.07,75.82a7.08,7.08,0,0,1-7.52,5,7.07,7.07,0,0,1-7.32-5,7.29,7.29,0,0,0,3.71,0,5.58,5.58,0,0,0,3-1.73,3.73,3.73,0,0,0,.67-1.22,3.64,3.64,0,0,0,.67,1.24,5.58,5.58,0,0,0,3,1.73A7.29,7.29,0,0,0,58.07,75.82Z"/><path class="cls-2" d="M72.79,47.63c-.17-1.9-1.18-3.66-1.83-5.47-1.48-4.18-1-8.91-2.88-12.93a12.4,12.4,0,0,0-7.14-6.47,9.15,9.15,0,0,0-.93-.29,12.36,12.36,0,0,0-9.34,1.36,12.45,12.45,0,0,0-9.39-1.38c-.31.09-.62.18-.93.29l-.1,0a12.41,12.41,0,0,0-7,6.43c-1.85,4-1.4,8.75-2.88,12.92l-.21.56c-.24.62-.51,1.23-.76,1.84a10.35,10.35,0,0,0-.86,3.08,4.16,4.16,0,0,0,0,.61,8.11,8.11,0,0,0,1.4,4.13v0l.17.26.17.27c.43.66.89,1.29,1.34,1.92.83,1.16,1.61,2.35,2.36,3.56a63.07,63.07,0,0,1,5.32,10.89h0a3.41,3.41,0,0,1,.37.48,13.69,13.69,0,0,1,.6-2c1.73-4.59,4.32-8.8,6.51-13.2A35.86,35.86,0,0,0,50.65,42.8a36,36,0,0,0,3.93,11.79c2.19,4.39,4.78,8.61,6.5,13.2a12.46,12.46,0,0,1,.61,2,4.37,4.37,0,0,1,.37-.48h0a62.81,62.81,0,0,1,7.66-14.43c.45-.63.92-1.27,1.34-1.93a8.8,8.8,0,0,0,1.75-4.67A6.08,6.08,0,0,0,72.79,47.63ZM37.34,45.8a2.44,2.44,0,0,1-3.67-3.21,9.66,9.66,0,0,0-2-.4,5.5,5.5,0,0,1,7.24,5.26h0V48A5.27,5.27,0,0,0,37.34,45.8ZM67.39,46A2.54,2.54,0,0,1,64,45.82,5.2,5.2,0,0,0,62.36,48v-.57h0a5.5,5.5,0,0,1,7.24-5.26,9.64,9.64,0,0,0-2,.39A2.54,2.54,0,0,1,67.39,46Z"/><path class="cls-1" d="M67.63,42.6A2.44,2.44,0,0,1,64,45.82,5.2,5.2,0,0,0,62.36,48v-.57h0a5.5,5.5,0,0,1,7.24-5.26A9.64,9.64,0,0,0,67.63,42.6Z"/><path class="cls-1" d="M38.94,48a5.27,5.27,0,0,0-1.6-2.22,2.44,2.44,0,0,1-3.67-3.21,9.66,9.66,0,0,0-2-.4,5.5,5.5,0,0,1,7.24,5.26h0Z"/><path class="cls-2" d="M58.08,67.94a.84.84,0,0,1-.63-.11A4.88,4.88,0,0,0,50.7,71.1L50.65,71a.74.74,0,0,0,0,.14,4.87,4.87,0,0,0-6.76-3.31.8.8,0,0,1-.63.11c-.37-.16-.26-.71,0-1a4.31,4.31,0,0,1,4.05-1.65,6.54,6.54,0,0,1,3.42,1.58,6.66,6.66,0,0,1,3.4-1.57,4.34,4.34,0,0,1,4,1.66C58.34,67.23,58.44,67.78,58.08,67.94Z"/><path class="cls-1" d="M61.69,69.76a12.46,12.46,0,0,0-.61-2c-1.72-4.59-4.31-8.81-6.5-13.2A36,36,0,0,1,50.65,42.8a35.86,35.86,0,0,1-3.93,11.77c-2.19,4.4-4.78,8.61-6.51,13.2a13.69,13.69,0,0,0-.6,2A5.7,5.7,0,0,0,39.55,72,5.06,5.06,0,0,0,42.4,75.5a5.89,5.89,0,0,0,.83.31,7.29,7.29,0,0,0,3.71,0,5.58,5.58,0,0,0,3-1.73,3.73,3.73,0,0,0,.67-1.22,3.64,3.64,0,0,0,.67,1.24,5.58,5.58,0,0,0,3,1.73,7.29,7.29,0,0,0,3.71-.05,5.85,5.85,0,0,0,.83-.3,5.09,5.09,0,0,0,2.85-3.46A5.76,5.76,0,0,0,61.69,69.76Zm-3.61-1.82a.84.84,0,0,1-.63-.11A4.88,4.88,0,0,0,50.7,71.1h0a1.6,1.6,0,0,0-.05.21c0-.07,0-.14,0-.2a4.87,4.87,0,0,0-6.76-3.31.8.8,0,0,1-.63.11c-.37-.16-.26-.71,0-1a4.31,4.31,0,0,1,4.05-1.65,6.54,6.54,0,0,1,3.42,1.58,6.66,6.66,0,0,1,3.4-1.57,4.34,4.34,0,0,1,4,1.66C58.34,67.23,58.44,67.78,58.08,67.94Z"/><path class="cls-2" d="M50.59,70.57a6.33,6.33,0,0,1-1,4,5.15,5.15,0,0,1-3.44,1.64,6,6,0,0,1-6.34-3.27,4.75,4.75,0,0,1,0-4c.1-.2-.2-.38-.3-.18a5.44,5.44,0,0,0,2.18,6.85,7.11,7.11,0,0,0,4,1,5.94,5.94,0,0,0,3.83-1.44c1.25-1.17,1.35-2.94,1.38-4.55A.18.18,0,0,0,50.59,70.57Z"/><path class="cls-2" d="M50.72,70.53a6.32,6.32,0,0,0,1,4,5.11,5.11,0,0,0,3.44,1.64,6,6,0,0,0,6.34-3.26,4.78,4.78,0,0,0,0-4c-.1-.2.2-.38.3-.18a5.44,5.44,0,0,1-2.18,6.85,7,7,0,0,1-4,1,5.94,5.94,0,0,1-3.83-1.44c-1.25-1.17-1.35-2.94-1.38-4.54A.18.18,0,0,1,50.72,70.53Z"/><path class="cls-1" d="M26.23,41.78a22.25,22.25,0,0,1,3.14,2.75,19.87,19.87,0,0,1,2.11,2.66l.27.44c.25.41.49.82.71,1.25a15,15,0,0,1,1.46,9.5c0,.13-.05.27-.08.4a11.75,11.75,0,0,1-6,7.87,11.78,11.78,0,0,1-8.54.64,15.32,15.32,0,0,1-7.21-4.79A18.5,18.5,0,0,1,8.21,46.59,7.78,7.78,0,0,0,4.06,48a7.89,7.89,0,0,0-3,4.32,1.75,1.75,0,0,1-.39.85.62.62,0,0,1-.32.14l0-.24A12,12,0,0,1,3.46,42a14.54,14.54,0,0,1,7.66-4,24.83,24.83,0,0,1,4.25-8.41,20.83,20.83,0,0,1,7.17-6,22.36,22.36,0,0,1,17.71-.74,12.41,12.41,0,0,0-7,6.43c-1.85,4-1.4,8.75-2.88,12.92l-.21.56A6,6,0,0,0,26.23,41.78Z"/><path class="cls-2" d="M26.61,41.69a21.27,21.27,0,0,0-15.44-3.88c-.23,0-.13.37.09.34a21,21,0,0,1,12.19,2,20.65,20.65,0,0,1,3,1.82C26.61,42.12,26.79,41.82,26.61,41.69Z"/><path class="cls-2" d="M21.59,51.47a13.41,13.41,0,0,0-8.19-5.12,13.17,13.17,0,0,0-5.52.1.18.18,0,0,0,.1.34A13,13,0,0,1,17,48a12.8,12.8,0,0,1,3.62,2.84,7.31,7.31,0,0,1,2.13,4.75,3.56,3.56,0,0,1-1.05,2.57,2.71,2.71,0,0,1-2.51.68.17.17,0,0,0-.1.33,2.94,2.94,0,0,0,2.36-.38,3.57,3.57,0,0,0,1.48-2A6.24,6.24,0,0,0,21.59,51.47Z"/><path class="cls-1" d="M75,41.79a22.18,22.18,0,0,0-3.14,2.75,19.26,19.26,0,0,0-2.11,2.66l-.27.43c-.25.41-.49.83-.7,1.26a14.93,14.93,0,0,0-1.47,9.5l.09.39a11.22,11.22,0,0,0,14.5,8.52,15.41,15.41,0,0,0,7.2-4.79,18.45,18.45,0,0,0,3.92-15.92A8,8,0,0,1,97.2,48a7.82,7.82,0,0,1,3,4.32,1.67,1.67,0,0,0,.39.85.55.55,0,0,0,.33.14V53.1A12,12,0,0,0,97.8,42a14.53,14.53,0,0,0-7.66-4,24.65,24.65,0,0,0-4.25-8.41,20.69,20.69,0,0,0-7.16-6A22.36,22.36,0,0,0,61,22.78a12.43,12.43,0,0,1,7,6.43c1.85,4,1.4,8.76,2.88,12.93.07.19.14.38.22.56A5.92,5.92,0,0,1,75,41.79Z"/><path class="cls-2" d="M61.11,15.56a10.61,10.61,0,1,1-1.47-12,7,7,0,0,0-2.85-.61,7.06,7.06,0,1,0,4.32,12.63Z"/><path class="cls-1" d="M37.93,10.59a4.17,4.17,0,1,1-4.17-4.16A4.16,4.16,0,0,1,37.93,10.59Z"/><path class="cls-2" d="M26.89,10.59a2.76,2.76,0,1,1-2.76-2.75A2.76,2.76,0,0,1,26.89,10.59Z"/><path class="cls-1" d="M65.41,10.59a4.17,4.17,0,1,1,4.16,4.17A4.16,4.16,0,0,1,65.41,10.59Z"/><path class="cls-2" d="M76.45,10.59a2.76,2.76,0,1,1,2.76,2.76A2.75,2.75,0,0,1,76.45,10.59Z"/><polygon class="cls-2" points="35.49 71.25 37.13 74.21 35.49 77.31 33.91 74.18 35.49 71.25"/><path class="cls-2" d="M29.51,71.68a.88.88,0,0,0,0,1.75A.88.88,0,0,0,29.51,71.68Z"/><path class="cls-2" d="M36,67.8a.88.88,0,0,0,0,1.75A.88.88,0,0,0,36,67.8Z"/><path class="cls-2" d="M31.2,66.93a.88.88,0,0,0,0,1.75A.88.88,0,0,0,31.2,66.93Z"/><polygon class="cls-2" points="86.01 20.89 87.65 23.85 86.01 26.96 84.44 23.83 86.01 20.89"/><path class="cls-2" d="M81.23,21.2a.88.88,0,0,0,0,1.75A.88.88,0,0,0,81.23,21.2Z"/><path class="cls-2" d="M86.89,17.89a.88.88,0,0,0,0,1.75A.88.88,0,0,0,86.89,17.89Z"/><path class="cls-2" d="M81.5,15.37a.88.88,0,0,0,0,1.75A.88.88,0,0,0,81.5,15.37Z"/><path class="cls-1" d="M59,38.86c1.66-.09,3.26.5,4.9.63a4.77,4.77,0,0,0,3.65-1A1.93,1.93,0,0,0,68,38l.25.12c.28.14,3.22,1.72,3.51,1.84l.13-.3c-.29-.14-3.23-1.71-3.53-1.86a.16.16,0,0,0,0-.15,3.49,3.49,0,0,1-.17-.9,8.68,8.68,0,0,1,.1-1.53,8.55,8.55,0,0,0,.12-2.14,4,4,0,0,0-.85-2c-.89-1.16-2.26-2.09-2.66-3.56a.17.17,0,0,0-.33,0A15.93,15.93,0,0,0,64.38,32a8.26,8.26,0,0,0,1.56,3.56c.4.55.84,1.07,1.28,1.59,0,.06.14.14.22.22l.07.09c-.54-.3-1.09-.62-1.61-1-.18-.11-.35-.23-.52-.35a.08.08,0,0,0,0,0l-.42-.59,0-.07c-.43-.64-.82-1.31-1.25-1.94a9.23,9.23,0,0,0-1.78-2,6.29,6.29,0,0,0-2.16-1.05C58.22,30,56.58,29.88,55.3,29c-.17-.13-.36.14-.19.27a8.51,8.51,0,0,1,1.71,2.2,11,11,0,0,0,1.47,2,7.09,7.09,0,0,0,2.11,1.49c1.52.71,3.32.63,4.78,1.48a.12.12,0,0,0,.1,0,4.27,4.27,0,0,0,.44.3l.8.5c-.22-.05-.44-.1-.67-.13a10,10,0,0,0-7,1.46C58.71,38.67,58.85,38.87,59,38.86Z"/><path class="cls-1" d="M42.65,38a10,10,0,0,0-7-1.46c-.22,0-.44.08-.66.13.26-.16.53-.32.79-.5s.3-.19.45-.29l.1,0c1.46-.86,3.25-.78,4.78-1.48a7.23,7.23,0,0,0,2.1-1.49,11.29,11.29,0,0,0,1.47-2,8.56,8.56,0,0,1,1.71-2.2c.17-.14,0-.41-.19-.28-1.28.94-2.92,1-4.4,1.46a6.18,6.18,0,0,0-2.16,1,8.74,8.74,0,0,0-1.78,2c-.44.64-.83,1.3-1.25,1.94l0,.07c-.14.2-.27.4-.42.59,0,0,0,0,0,0l-.52.35c-.52.34-1.06.66-1.61,1l.08-.09.21-.22c.44-.51.88-1,1.28-1.59a8.09,8.09,0,0,0,1.56-3.56A15.93,15.93,0,0,0,37,27a.17.17,0,0,0-.33,0c-.4,1.47-1.77,2.4-2.66,3.56a4,4,0,0,0-.85,2,9.05,9.05,0,0,0,.12,2.14,7.87,7.87,0,0,1,.1,1.53,3.49,3.49,0,0,1-.17.9.16.16,0,0,0,0,.15c-.29.15-3.23,1.73-3.53,1.86l.13.31c.3-.13,3.23-1.7,3.52-1.84l.24-.13a2,2,0,0,0,.4.45,4.74,4.74,0,0,0,3.65,1c1.65-.13,3.24-.72,4.91-.62C42.66,38.27,42.81,38.08,42.65,38Z"/><path class="cls-2" d="M32.42,21.15,27.53,36.79l-1.4,4.46c-.07.22.29.32.36.1L31.38,25.7c.46-1.49.93-3,1.39-4.46C32.84,21,32.49,20.92,32.42,21.15Z"/><path class="cls-2" d="M25.45,22.11q-.9,7-1.79,14l-.51,4c0,.23.34.23.37,0q.9-7,1.78-14l.51-4C25.84,21.87,25.48,21.88,25.45,22.11Z"/><path class="cls-2" d="M2.89,49.44A25.44,25.44,0,0,1,.31,47.05c-.16-.18-.42.08-.26.26A25.44,25.44,0,0,0,2.63,49.7a.2.2,0,0,0,.26,0A.19.19,0,0,0,2.89,49.44Z"/><path class="cls-2" d="M4.79,47.79l-2.37-4A.19.19,0,0,0,2.1,44l2.38,4C4.6,48.17,4.92,48,4.79,47.79Z"/><path class="cls-2" d="M8.51,46.73c-.66-2.37-1.39-4.73-2.21-7-.08-.23-.43-.13-.35.09.81,2.33,1.55,4.68,2.2,7.06A.19.19,0,0,0,8.51,46.73Z"/><path class="cls-2" d="M11,37.77c-.06-.23-.41-.13-.36.1A38.83,38.83,0,0,1,11.75,46a.19.19,0,0,0,.37,0A39.88,39.88,0,0,0,11,37.77Z"/><path class="cls-2" d="M14.66,38c-.05,3-.11,6-.16,9a.19.19,0,0,0,.37,0c.05-3,.1-6,.16-9A.19.19,0,0,0,14.66,38Z"/><path class="cls-2" d="M20.82,38.78l-3,9.37c-.07.23.28.32.35.1l3-9.37C21.25,38.65,20.89,38.55,20.82,38.78Z"/><path class="cls-2" d="M26,41.73l-5.86,8.73c-.13.19.18.38.31.18l5.87-8.73C26.4,41.72,26.09,41.53,26,41.73Z"/><path class="cls-2" d="M30.48,44.56c-2,2.19-4.2,4.29-6.45,6.27-.63.56-1.28,1.11-1.93,1.65-.18.15.08.41.26.26q3.47-2.88,6.63-6.09c.59-.6,1.18-1.21,1.75-1.83C30.9,44.64,30.65,44.38,30.48,44.56Z"/><path class="cls-2" d="M34.89,54.72c-3.13,0-6.26.12-9.37.35-.89.06-1.78.13-2.67.22-.23,0-.23.38,0,.36,3.11-.29,6.24-.47,9.36-.53.89,0,1.79,0,2.68,0A.19.19,0,0,0,34.89,54.72Z"/><path class="cls-2" d="M32,63.17l-9.12-6.56c-.19-.14-.37.18-.18.31l9.12,6.57C32,63.63,32.15,63.31,32,63.17Z"/><path class="cls-2" d="M25.74,67.59l-4.5-9.1c-.11-.21-.42,0-.32.18l4.5,9.1C25.53,68,25.84,67.8,25.74,67.59Z"/><path class="cls-2" d="M74.93,41.75a21.27,21.27,0,0,1,15.44-3.88c.23,0,.13.37-.09.34a21,21,0,0,0-12.19,2,20.65,20.65,0,0,0-3,1.82C74.93,42.18,74.75,41.88,74.93,41.75Z"/><path class="cls-2" d="M80,51.53a13.41,13.41,0,0,1,8.19-5.12,13.17,13.17,0,0,1,5.52.1c.21.05.12.39-.1.34a13,13,0,0,0-9,1.21A12.8,12.8,0,0,0,80.9,50.9a7.31,7.31,0,0,0-2.13,4.75,3.56,3.56,0,0,0,1,2.57,2.71,2.71,0,0,0,2.51.68.17.17,0,0,1,.1.33,2.94,2.94,0,0,1-2.36-.38,3.56,3.56,0,0,1-1.48-2A6.23,6.23,0,0,1,80,51.53Z"/><path class="cls-2" d="M69.12,21.2,74,36.85l1.4,4.46c.07.22-.29.32-.36.1L70.16,25.76c-.46-1.49-.93-3-1.39-4.46C68.7,21.08,69.05,21,69.12,21.2Z"/><path class="cls-2" d="M76.09,22.17q.9,7,1.79,13.95l.51,4c0,.23-.34.23-.37,0q-.9-7-1.78-14l-.51-4C75.7,21.93,76.06,21.94,76.09,22.17Z"/><path class="cls-2" d="M98.65,49.5a24.44,24.44,0,0,0,2.58-2.4c.16-.17.42.09.26.26a24.44,24.44,0,0,1-2.58,2.4.2.2,0,0,1-.26,0A.19.19,0,0,1,98.65,49.5Z"/><path class="cls-2" d="M96.75,47.85l2.37-4a.19.19,0,0,1,.32.19l-2.38,4C96.94,48.23,96.62,48.05,96.75,47.85Z"/><path class="cls-2" d="M93,46.79c.66-2.38,1.39-4.73,2.21-7.06.08-.22.43-.12.35.1-.81,2.33-1.55,4.68-2.2,7.06A.19.19,0,0,1,93,46.79Z"/><path class="cls-2" d="M90.55,37.83c.06-.23.41-.13.36.1A38.83,38.83,0,0,0,89.79,46a.19.19,0,0,1-.37,0A39.69,39.69,0,0,1,90.55,37.83Z"/><path class="cls-2" d="M86.88,38c.05,3,.11,6,.16,9a.19.19,0,0,1-.37,0c0-3-.1-6-.16-9A.19.19,0,0,1,86.88,38Z"/><path class="cls-2" d="M80.72,38.84l3,9.37c.07.23-.28.32-.35.1l-3-9.38C80.29,38.71,80.65,38.61,80.72,38.84Z"/><path class="cls-2" d="M75.59,41.79l5.86,8.72c.13.2-.18.38-.31.19L75.27,42C75.14,41.77,75.45,41.59,75.59,41.79Z"/><path class="cls-2" d="M71.06,44.62c2,2.19,4.2,4.28,6.45,6.27.63.56,1.28,1.11,1.93,1.65.18.15-.08.41-.26.26q-3.47-2.88-6.63-6.09c-.59-.6-1.18-1.22-1.75-1.83C70.64,44.7,70.89,44.44,71.06,44.62Z"/><path class="cls-2" d="M66.65,54.78c3.13,0,6.26.12,9.37.34.89.07,1.78.14,2.67.23.23,0,.23.38,0,.36-3.11-.29-6.24-.47-9.36-.53-.89,0-1.79,0-2.68,0A.19.19,0,0,1,66.65,54.78Z"/><path class="cls-2" d="M69.58,63.23l9.12-6.56c.19-.14.37.18.18.31l-9.12,6.57C69.57,63.69,69.39,63.37,69.58,63.23Z"/><path class="cls-2" d="M75.8,67.65l4.5-9.1c.11-.21.42,0,.32.18l-4.5,9.1C76,68,75.7,67.86,75.8,67.65Z"/></g></g></svg>