<svg xmlns="http://www.w3.org/2000/svg" viewBox="0 0 71.35 97.3"><defs><style>.cls-1{fill:#5d4f7d;}.cls-2{fill:#c4bd93;}</style></defs><g id="Layer_2" data-name="Layer 2"><g id="OBJECTS"><path class="cls-1" d="M70.57,55.73a5.35,5.35,0,0,1,0,3.31,5.94,5.94,0,0,1-5.11,4.09,2.29,2.29,0,0,1-.24,2.72c-.49.64-1.15,1.13-1.6,1.81A4,4,0,0,0,63.07,70c0,1.55.43,3.16,0,4.69a4.77,4.77,0,0,1-2.78,2.9,11.11,11.11,0,0,1-5.61.43,6.18,6.18,0,0,1-.84,6.68,6.27,6.27,0,0,1-2.93,1.87,9.23,9.23,0,0,1-3.59.14,9.47,9.47,0,0,0-3.56,0,3,3,0,0,0-1,.54l-.21.26a8.9,8.9,0,0,0-1,3.21,4.82,4.82,0,0,1-1.53,2.69,4.2,4.2,0,0,1-1.31.76,15.67,15.67,0,0,0-1.79.6A1.52,1.52,0,0,0,36,95.9a.8.8,0,0,0,.82.88c.19,0,.22.28,0,.33a5.13,5.13,0,0,1-3.63-.33,7.41,7.41,0,0,1-3.75-5.25,11.78,11.78,0,0,0-1-3.51A3.39,3.39,0,0,0,27,86.57a11.89,11.89,0,0,0-3,.09,9.18,9.18,0,0,1-3.58-.14A6.08,6.08,0,0,1,16.68,78a11.07,11.07,0,0,1-5.6-.43,4.79,4.79,0,0,1-2.79-2.9c-.45-1.53,0-3.14,0-4.69a4.07,4.07,0,0,0-.59-2.29c-.45-.68-1.12-1.17-1.61-1.81a2.28,2.28,0,0,1-.23-2.72A5.94,5.94,0,0,1,.74,59a5.28,5.28,0,0,1,0-3.31c.39-1.23,1.07-2.34,1.55-3.53a5.07,5.07,0,0,0,.11-3.88C1.94,47.08,1.11,46,.59,44.78a7.84,7.84,0,0,1,.7-7.31A7.94,7.94,0,0,1,7.2,34.05,8.27,8.27,0,0,1,9,25.93a20.54,20.54,0,0,1,3.38-2.48,7.2,7.2,0,0,0,1.72-1.54,16.77,16.77,0,0,0,1.05-1.67,4.57,4.57,0,0,1,2.38-2.34,4.91,4.91,0,0,1,3.53.66c1.27.58,2.59,1.24,4,.88a8.22,8.22,0,0,0,3.6-2.51c1.68-1.7,4.37-4.21,6.91-2.61a.07.07,0,1,0,.14,0c2.54-1.6,5.24.91,6.92,2.61a8.13,8.13,0,0,0,3.59,2.51c1.43.36,2.74-.3,4-.88a4.93,4.93,0,0,1,3.54-.66,4.6,4.6,0,0,1,2.38,2.34,13.77,13.77,0,0,0,1,1.67,7.16,7.16,0,0,0,1.71,1.54,20.12,20.12,0,0,1,3.38,2.48,8.25,8.25,0,0,1,1.83,8.12,7.74,7.74,0,0,1,6.6,10.73c-.51,1.23-1.35,2.3-1.84,3.54A5.12,5.12,0,0,0,69,52.2C69.5,53.39,70.18,54.5,70.57,55.73Z"/><path class="cls-2" d="M13.87,41.74a2.08,2.08,0,0,1-.7.14,4,4,0,0,1-2.8-.9c-1.65-1.27-2.15-3.39-2.19-5.37s.16-4.37,1.59-5.9a3.89,3.89,0,0,1,2.44-1.25,3.6,3.6,0,0,1,2.53.92A29.08,29.08,0,0,0,17,31.31a2.6,2.6,0,0,0,2.77.32c.17-.11.31.13.2.27l-3.61,4.47a.1.1,0,0,1-.07,0v0a.17.17,0,0,1-.33,0,2.6,2.6,0,0,0-1.75-1.79,2.18,2.18,0,0,0-2.12.43,2.46,2.46,0,0,0-.85,2,2.18,2.18,0,0,0,3.19,1.65.18.18,0,0,1,.25.2c-.16.67-.32,1.34-.49,2,0,.19-.09.38-.14.57S14,41.68,13.87,41.74Z"/><path class="cls-2" d="M63.16,35.61A6.7,6.7,0,0,1,61,41a4,4,0,0,1-2.8.9,2,2,0,0,1-.7-.14c-.12-.06-.13-.16-.16-.28s-.09-.38-.14-.57c-.16-.67-.32-1.34-.49-2a.18.18,0,0,1,.25-.2A2.18,2.18,0,0,0,60.13,37a2.42,2.42,0,0,0-.84-2,2.2,2.2,0,0,0-2.13-.43,2.64,2.64,0,0,0-1.75,1.79.17.17,0,0,1-.32,0,0,0,0,0,1,0,0,.13.13,0,0,1-.07,0L51.4,31.9c-.11-.14,0-.38.21-.27a2.6,2.6,0,0,0,2.77-.32,27.15,27.15,0,0,0,2.22-1.93,3.6,3.6,0,0,1,2.53-.92,3.86,3.86,0,0,1,2.44,1.25C63,31.24,63.2,33.61,63.16,35.61Z"/><path class="cls-2" d="M56.36,52.93a9.47,9.47,0,0,1,1.21,5.21A12.77,12.77,0,0,1,56,63.38c-1.84,3.41-5,5.88-8,8.12l-.87.63a14.26,14.26,0,0,1-.42,4.56,6.28,6.28,0,0,1-3,4,4.59,4.59,0,0,1-1.18.41c-.43,1.18-.71,2.43-1.24,3.58a5.63,5.63,0,0,1-1.49,2,4.83,4.83,0,0,1-2.29,1,10,10,0,0,1-1.81.11,9.84,9.84,0,0,1-1.8-.11,4.82,4.82,0,0,1-2.3-1,5.49,5.49,0,0,1-1.48-2c-.54-1.15-.81-2.4-1.25-3.58a4.53,4.53,0,0,1-1.17-.41,6.26,6.26,0,0,1-3-4,14.55,14.55,0,0,1-.42-4.56l-.86-.63c-3.07-2.24-6.19-4.71-8-8.12a12.79,12.79,0,0,1-1.56-5.24A9.55,9.55,0,0,1,15,52.93a54.67,54.67,0,0,0,2.95-4.86c.77-1.79.88-3.77,1.39-5.64a8.63,8.63,0,0,1,1.12-2.54,9,9,0,0,1,1.81-2,13.12,13.12,0,0,1,5.07-2.58,7.63,7.63,0,0,1,5.36.42,5.41,5.41,0,0,1,2.94,3.65v0h.1s0,0,0,0a5.42,5.42,0,0,1,2.93-3.65A7.65,7.65,0,0,1,44,35.33a13.19,13.19,0,0,1,5.07,2.58,9.22,9.22,0,0,1,1.81,2A8.36,8.36,0,0,1,52,42.43c.52,1.87.62,3.85,1.4,5.64A54.57,54.57,0,0,0,56.36,52.93Z"/><path class="cls-2" d="M20.46,41.18a.16.16,0,0,0-.09,0l.27-.32c.13-.17-.11-.41-.24-.24a14.81,14.81,0,0,1-10.34,5.51A14.15,14.15,0,0,1,6.68,46c-.22,0-.31.29-.09.33a15.1,15.1,0,0,0,11.56-3A13.62,13.62,0,0,0,20,41.52a13.86,13.86,0,0,1-12.89,8.3.17.17,0,0,0,0,.34,14.31,14.31,0,0,0,11.6-5.74,14.16,14.16,0,0,0,1.21-2,20.52,20.52,0,0,1-3.68,6.66,20.15,20.15,0,0,1-7,5.38A20,20,0,0,1,4.42,56c-.22,0-.12.37.09.33a20.67,20.67,0,0,0,8.35-3.59,20.47,20.47,0,0,0,5.91-6.71,20.8,20.8,0,0,0,1.87-4.68A.17.17,0,0,0,20.46,41.18Z"/><path class="cls-2" d="M17.4,74a12.46,12.46,0,0,1-3.52-6A12.28,12.28,0,0,1,14.2,61a12.43,12.43,0,0,1,2-3.59c.13-.17-.11-.41-.24-.24A12.82,12.82,0,0,0,13.21,64a12.58,12.58,0,0,0,1.46,7,12.77,12.77,0,0,0,2.49,3.26C17.32,74.43,17.56,74.19,17.4,74Z"/><path class="cls-2" d="M21,73.73a11.93,11.93,0,0,1-5.78-12.88c0-.22-.28-.31-.32-.09a12.33,12.33,0,0,0,3.35,11.31,12.64,12.64,0,0,0,2.58,2A.17.17,0,0,0,21,73.73Z"/><path class="cls-2" d="M22.38,72.11a9.65,9.65,0,0,1-5-5.57,9.2,9.2,0,0,1-.47-2.14c0-.21-.36-.22-.34,0a10,10,0,0,0,3.7,6.81,9.68,9.68,0,0,0,1.91,1.19C22.41,72.49,22.58,72.2,22.38,72.11Z"/><path class="cls-2" d="M33.52,32.26a20.7,20.7,0,0,0-4.09-6.52,19.54,19.54,0,0,0-3.31-2.85c-.18-.12-.35.17-.17.3a19.64,19.64,0,0,1,5.3,5.41,20.42,20.42,0,0,1,2.91,7,19.31,19.31,0,0,1,.4,4.29.17.17,0,0,0,.34,0A19.78,19.78,0,0,0,33.52,32.26Z"/><path class="cls-2" d="M31.79,32.84a14.75,14.75,0,0,0-5.44-4.63,15.21,15.21,0,0,0-3.82-1.28c-.22,0-.31.29-.09.33a14.52,14.52,0,0,1,6.32,2.88,14.39,14.39,0,0,1,5.32,9.42c0,.22.37.22.34,0A14.92,14.92,0,0,0,31.79,32.84Z"/><path class="cls-2" d="M33.5,39.08A12.32,12.32,0,0,0,20.05,30.7c-.21,0-.12.36.09.33a12.11,12.11,0,0,1,6.66,1,12,12,0,0,1,6.37,7.16C33.24,39.37,33.57,39.28,33.5,39.08Z"/><path class="cls-2" d="M28,34.22a10.84,10.84,0,0,0-7.15-1.15c-.21,0-.12.36.09.32a10.58,10.58,0,0,1,6.89,1.12A.17.17,0,0,0,28,34.22Z"/><path class="cls-2" d="M24.86,34.41a8.43,8.43,0,0,0-4.42.43c-.2.07-.11.4.09.32a8.06,8.06,0,0,1,4.24-.42C25,34.78,25.07,34.45,24.86,34.41Z"/><path class="cls-2" d="M12.26,43.76a8.17,8.17,0,0,1-4.88.47c-.21,0-.3.29-.09.33a8.51,8.51,0,0,0,5.06-.47C12.55,44,12.46,43.68,12.26,43.76Z"/><path class="cls-2" d="M11.3,42.89a6,6,0,0,1-2.77.34c-.22,0-.22.32,0,.34a6.33,6.33,0,0,0,2.86-.35C11.59,43.15,11.51,42.82,11.3,42.89Z"/><path class="cls-2" d="M12.4,54.54A14,14,0,0,1,6,58.06a14.53,14.53,0,0,1-2.08.33c-.22,0-.22.36,0,.34A14.38,14.38,0,0,0,11,56.16a14.64,14.64,0,0,0,1.66-1.38C12.8,54.63,12.56,54.39,12.4,54.54Z"/><path class="cls-2" d="M11.91,58a15.14,15.14,0,0,1-5.4,4.59c-.2.1,0,.39.17.29a15.67,15.67,0,0,0,5.53-4.7C12.33,58,12,57.82,11.91,58Z"/><path class="cls-1" d="M35.6,68.12h-.52a.17.17,0,0,1,.08-.32h.45A.17.17,0,0,1,35.6,68.12Z"/><path class="cls-1" d="M35.61,50.68a.13.13,0,0,1-.16,0h-.06l-.25,0a.16.16,0,0,1,.08-.26l.17,0h0a.32.32,0,0,1,.14,0A.16.16,0,0,1,35.61,50.68Z"/><path class="cls-1" d="M28.67,57c0-.07-.09-.14-.13-.22a.16.16,0,0,1-.09-.13h0A7.84,7.84,0,0,0,27,54.81a2.94,2.94,0,0,1-3.11.67,2.29,2.29,0,0,1-1.39-2.58,5.1,5.1,0,0,0-2.74,0c-.16.05-.3-.17-.17-.28A5.55,5.55,0,0,1,22,51.4a5.49,5.49,0,0,1,4.63,1,5.72,5.72,0,0,1,2.08,3.68c.08.24.16.48.23.73S28.76,57.12,28.67,57Z"/><path class="cls-2" d="M50.29,41.18a.18.18,0,0,1,.1,0l-.27-.32c-.13-.17.1-.41.24-.24A14.79,14.79,0,0,0,60.7,46.09,14.19,14.19,0,0,0,64.08,46c.21,0,.3.29.09.32a15.17,15.17,0,0,1-11.57-3,15,15,0,0,1-1.89-1.76,14,14,0,0,0,9.16,7.85,14.3,14.3,0,0,0,3.74.46c.22,0,.22.33,0,.34A14.36,14.36,0,0,1,52,44.43a15.26,15.26,0,0,1-1.22-2A20.15,20.15,0,0,0,66.34,56c.21,0,.12.37-.09.33a20.85,20.85,0,0,1-8.36-3.59A20.62,20.62,0,0,1,52,46.06a21,21,0,0,1-1.86-4.67A.17.17,0,0,1,50.29,41.18Z"/><path class="cls-2" d="M53.35,74.05a12.66,12.66,0,0,0,3.53-6A12.4,12.4,0,0,0,56.56,61a12.25,12.25,0,0,0-2-3.58c-.14-.17.1-.41.24-.24A13,13,0,0,1,57.55,64a12.73,12.73,0,0,1-4,10.3C53.43,74.43,53.19,74.2,53.35,74.05Z"/><path class="cls-2" d="M49.76,73.74a11.89,11.89,0,0,0,5.77-12.89c0-.21.28-.3.33-.09a12.37,12.37,0,0,1-3.35,11.32,12.24,12.24,0,0,1-2.58,2A.17.17,0,0,1,49.76,73.74Z"/><path class="cls-2" d="M48.37,72.11a9.68,9.68,0,0,0,5-5.56,8.7,8.7,0,0,0,.46-2.14c0-.22.36-.22.34,0a10,10,0,0,1-3.7,6.81,9.4,9.4,0,0,1-1.91,1.19C48.35,72.5,48.17,72.21,48.37,72.11Z"/><path class="cls-2" d="M37.61,32.26a20.6,20.6,0,0,1,4.08-6.52A19.88,19.88,0,0,1,45,22.9c.18-.12.35.17.17.29a19.54,19.54,0,0,0-5.3,5.42,20.42,20.42,0,0,0-2.91,7,19.31,19.31,0,0,0-.4,4.29c0,.22-.33.22-.34,0A19.87,19.87,0,0,1,37.61,32.26Z"/><path class="cls-2" d="M39.33,32.84a14.82,14.82,0,0,1,9.27-5.9c.21,0,.3.29.09.33a14.51,14.51,0,0,0-6.32,2.87,14.33,14.33,0,0,0-4.26,5.55A14.52,14.52,0,0,0,37,39.57c0,.21-.37.21-.34,0A15,15,0,0,1,39.33,32.84Z"/><path class="cls-2" d="M37.62,39.08a12.51,12.51,0,0,1,3.47-5.34,12.33,12.33,0,0,1,6.07-3,12.51,12.51,0,0,1,3.91-.07c.22,0,.12.36-.09.33a12.1,12.1,0,0,0-6.66,1A12,12,0,0,0,38,39.17C37.88,39.38,37.55,39.29,37.62,39.08Z"/><path class="cls-2" d="M43.16,34.23a10.91,10.91,0,0,1,7.15-1.16c.22,0,.13.37-.09.33a10.42,10.42,0,0,0-6.88,1.12C43.14,34.62,43,34.33,43.16,34.23Z"/><path class="cls-2" d="M46.27,34.42a8.29,8.29,0,0,1,4.41.42c.2.08.12.41-.09.33a7.94,7.94,0,0,0-4.23-.42C46.14,34.78,46.05,34.46,46.27,34.42Z"/><path class="cls-2" d="M58.49,43.77a8.19,8.19,0,0,0,4.89.47c.21,0,.3.28.09.33a8.55,8.55,0,0,1-5.07-.47C58.2,44,58.29,43.69,58.49,43.77Z"/><path class="cls-2" d="M59.45,42.9a6.12,6.12,0,0,0,2.78.34c.22,0,.21.32,0,.34a6.52,6.52,0,0,1-2.87-.35C59.16,43.15,59.25,42.82,59.45,42.9Z"/><path class="cls-2" d="M58.35,54.55a13.89,13.89,0,0,0,6.43,3.51,13.39,13.39,0,0,0,2.09.34c.21,0,.21.35,0,.33a14.19,14.19,0,0,1-7.09-2.57,13.67,13.67,0,0,1-1.67-1.37A.17.17,0,1,1,58.35,54.55Z"/><path class="cls-2" d="M58.84,58a15.27,15.27,0,0,0,5.41,4.59c.19.1,0,.39-.17.29a15.53,15.53,0,0,1-5.53-4.71C58.42,58,58.71,57.83,58.84,58Z"/><path class="cls-1" d="M35.6,68.12h-.44l-.08,0a.17.17,0,0,1,.08-.32h.45A.17.17,0,0,1,35.6,68.12Z"/><path class="cls-1" d="M25.64,64.17c.28,3.3-1.06,6.42-1.47,9.64,0,.22-.36.22-.33,0l0-.25a.78.78,0,0,1-.56-.43,2.92,2.92,0,0,1-.3-1.26C23,70.1,24,68.58,24.52,67a10.49,10.49,0,0,0,.2-5.19.17.17,0,0,1,.32-.09A8.31,8.31,0,0,1,25.64,64.17Z"/><path class="cls-1" d="M43.38,81.58c-3.09.19-5.19-2.61-8-3.3-2.82.71-4.92,3.48-8,3.29a.17.17,0,0,1-.05-.33,10.77,10.77,0,0,0,2.32-1,10.58,10.58,0,0,0,5.1-7.15,4.48,4.48,0,0,0-2.4-1.87c-1.05-.4-2.15-.63-3.15-1.13a2.4,2.4,0,0,1-1.18-1,1,1,0,0,1,.11-1.1,1.75,1.75,0,0,1-.56-1.21,4,4,0,0,1,.18-1.25c.11-.42.23-.84.35-1.25q1.27-4.61,2.56-9.21a8.39,8.39,0,0,1,1.66-3.59,3.35,3.35,0,0,1,3.07-1.15l-.17,0a.16.16,0,0,0-.08.26,3.34,3.34,0,0,0-3,1.66,12.34,12.34,0,0,0-1.34,3.59c-.4,1.41-.79,2.83-1.18,4.25s-.78,2.8-1.17,4.21c-.11.36-.21.73-.31,1.09a5.65,5.65,0,0,0-.22,1.07,1.47,1.47,0,0,0,.51,1.3,2.87,2.87,0,0,1,1.3-.13l1.93,0,4,0h-.44a.17.17,0,0,0-.08.32l.08,0h.44a.17.17,0,0,0,0-.34l3.49,0,1.93,0a3.21,3.21,0,0,1,1.31.13,1.45,1.45,0,0,0,.5-1.29,5.05,5.05,0,0,0-.22-1.08l-.3-1.09-1.17-4.21c-.4-1.41-.79-2.83-1.18-4.24a12.69,12.69,0,0,0-1.34-3.6,3.34,3.34,0,0,0-3-1.65.16.16,0,0,0-.08-.27.32.32,0,0,0-.14,0,3.43,3.43,0,0,1,3,1.15,8.49,8.49,0,0,1,1.66,3.6c.85,3.07,1.7,6.13,2.56,9.2.11.42.23.83.34,1.25a3.82,3.82,0,0,1,.18,1.25,1.75,1.75,0,0,1-.56,1.22,1,1,0,0,1,.12,1.1,2.61,2.61,0,0,1-1.18,1c-1,.5-2.11.73-3.15,1.13A4.4,4.4,0,0,0,36,73.12a10.6,10.6,0,0,0,5.1,7.15,10.19,10.19,0,0,0,2.31,1A.17.17,0,0,1,43.38,81.58Z"/><path class="cls-1" d="M35.61,50.68l-.22,0-.08,0a.14.14,0,0,1-.17-.07.16.16,0,0,1,.08-.26l.17,0h0a.32.32,0,0,1,.14,0A.16.16,0,0,1,35.61,50.68Z"/><path class="cls-1" d="M47.74,71.87a3,3,0,0,1-.29,1.26.73.73,0,0,1-.57.43c0,.09,0,.17,0,.26s-.31.21-.34,0c-.41-3.23-1.74-6.34-1.46-9.64a8.22,8.22,0,0,1,.59-2.5c.09-.2.38-.13.33.08A10.48,10.48,0,0,0,46.23,67C46.72,68.59,47.81,70.11,47.74,71.87Z"/><path class="cls-1" d="M51,53a5.1,5.1,0,0,0-2.74-.05,2.3,2.3,0,0,1-1.4,2.59,2.93,2.93,0,0,1-3.11-.68A7.94,7.94,0,0,0,42.3,56.6h0a.16.16,0,0,1-.09.14l-.12.21a.17.17,0,0,1-.31-.12A5.65,5.65,0,0,1,42,56.1a5.74,5.74,0,0,1,2.08-3.69,5.57,5.57,0,0,1,7.09.26A.17.17,0,0,1,51,53Z"/><path class="cls-2" d="M70.22,79a10.25,10.25,0,0,0-7.28.63c-.2.1-.41.21-.61.33.22-.24.43-.48.64-.73a4.78,4.78,0,0,0,.34-.42.14.14,0,0,0,.1,0c1.17-1.26,3-1.72,4.23-2.86a7.33,7.33,0,0,0,1.63-2.08,11.92,11.92,0,0,0,.83-2.42,8.55,8.55,0,0,1,1-2.66c.12-.18-.14-.39-.27-.21-1,1.3-2.55,1.88-3.88,2.73a6.24,6.24,0,0,0-1.81,1.66A9.4,9.4,0,0,0,64,75.41c-.23.75-.42,1.51-.64,2.27l0,.08c-.07.23-.15.47-.23.7a.09.09,0,0,0,0,.05l-.4.5c-.42.49-.85,1-1.3,1.42a.54.54,0,0,0,.05-.11c0-.11.11-.21.14-.28.29-.64.56-1.28.79-1.93a8.31,8.31,0,0,0,.47-4A16.13,16.13,0,0,0,61.42,70a.17.17,0,0,0-.33.08c0,1.56-1,2.87-1.54,4.27a4.17,4.17,0,0,0-.26,2.18A9.09,9.09,0,0,0,60,78.54,8.58,8.58,0,0,1,60.59,80a3.28,3.28,0,0,1,.1.93.23.23,0,0,0,.06.15c-.24.23-.49.45-.74.67l.23.26c.24-.21.49-.43.72-.65l.21-.19a1.87,1.87,0,0,0,.52.32,4.87,4.87,0,0,0,3.87-.1c1.57-.62,3-1.66,4.61-2.06C70.31,79.29,70.4,79.05,70.22,79Z"/><path class="cls-2" d="M69.16,84.86c-2.44-1.45-5.1-2.77-8-2.7a8.55,8.55,0,0,0-1.24.13l.33-.28L60,81.75l-.77.65a6.54,6.54,0,0,1,.17-1.58A9.16,9.16,0,0,0,59,77a9,9,0,0,0-2.26-3.65.17.17,0,0,0-.27.15,24.94,24.94,0,0,1-.21,4,6,6,0,0,0,1,3.75,5.71,5.71,0,0,0,1.45,1.45q-.58.45-1.2.87a23.38,23.38,0,0,1-2,1.22,8.12,8.12,0,0,0-1.15-8.71c-.1-.13-.35-.06-.31.11.28,1.25-.27,2.47-.57,3.66a6.64,6.64,0,0,0-.19,1.4,6,6,0,0,0,.38,2.29,5.84,5.84,0,0,0,1,1.69,21.83,21.83,0,0,1-2.55,1.07l.11.33c.21-.08.43-.15.64-.24.71-.27,1.41-.58,2.09-.92a7.69,7.69,0,0,0,3.92,2.33,16.48,16.48,0,0,0,4-.12,7.15,7.15,0,0,1,2.26.15.17.17,0,0,0,.13-.3,12.59,12.59,0,0,0-7.87-2.85,8.17,8.17,0,0,0-1.21.15c.55-.31,1.08-.63,1.59-1s.92-.63,1.36-1a4.14,4.14,0,0,0,1.52,1.42,7,7,0,0,0,4,.82,18.49,18.49,0,0,1,4.46,0C69.19,85.2,69.31,85,69.16,84.86Z"/><path class="cls-2" d="M59.56,91A12.61,12.61,0,0,0,56,90.63a4.88,4.88,0,0,1-3.1-1.15,7.35,7.35,0,0,1-1.24-1.54c-.18-.28-.35-.57-.51-.86h0c-.67.21-1.34.39-2,.54,2.16.5,3.61,2.48,4.81,4.23.09.13,0,.34-.21.26l-1.91-.89A19.87,19.87,0,0,1,50,90.32a3.41,3.41,0,0,1-1.84-2.53,19.89,19.89,0,0,1-2.43.29,6.4,6.4,0,0,1-2.5-.26c-.21-.06-.07-.38.13-.31a6.9,6.9,0,0,0,2.86.19,23.84,23.84,0,0,0,2.65-.39c.66-.14,1.31-.31,2-.5A6,6,0,0,1,50.31,83a6.13,6.13,0,0,1,2.33-3.69.18.18,0,0,1,.28.12A10.53,10.53,0,0,1,53,81.32a12.31,12.31,0,0,1-1.58,5.3c.23-.07.44-.14.66-.23l.11.33a8.36,8.36,0,0,1,1,.12,10.85,10.85,0,0,1,6.59,3.92A.18.18,0,0,1,59.56,91Z"/><path class="cls-2" d="M1.35,80.38c1.66.4,3,1.45,4.62,2.06a4.85,4.85,0,0,0,3.86.11,2.46,2.46,0,0,0,.53-.33l.2.2c.24.22.48.44.73.65l.22-.26-.74-.68a.17.17,0,0,0,.06-.14,3.59,3.59,0,0,1,.1-.93,8.68,8.68,0,0,1,.55-1.47,8.33,8.33,0,0,0,.75-2.06A4,4,0,0,0,12,75.36c-.52-1.41-1.59-2.71-1.55-4.28a.17.17,0,0,0-.32-.08,16.22,16.22,0,0,0-1.45,4.22,8.28,8.28,0,0,0,.48,3.94c.22.66.5,1.3.78,1.93,0,.08.09.18.14.29a.37.37,0,0,1,0,.11c-.45-.46-.88-.94-1.29-1.42l-.41-.5v0c-.09-.23-.16-.47-.23-.7l0-.09c-.23-.75-.42-1.51-.65-2.26A8.87,8.87,0,0,0,6.35,74a6.48,6.48,0,0,0-1.8-1.66c-1.33-.84-2.91-1.43-3.88-2.72-.14-.18-.39,0-.27.21a8.68,8.68,0,0,1,1,2.66,11.37,11.37,0,0,0,.84,2.42A7.3,7.3,0,0,0,3.88,77c1.28,1.14,3.06,1.59,4.24,2.86a.16.16,0,0,0,.09.05l.35.42c.2.25.41.49.63.73-.2-.12-.4-.23-.61-.33a10.17,10.17,0,0,0-7.27-.63C1.12,80.11,1.21,80.35,1.35,80.38Z"/><path class="cls-2" d="M2.49,86.22a19,19,0,0,1,4.46,0,7,7,0,0,0,4-.82A4.23,4.23,0,0,0,12.45,84c.44.33.89.66,1.36,1s1,.67,1.59,1a8.2,8.2,0,0,0-1.2-.15,12.66,12.66,0,0,0-7.88,2.84c-.13.1,0,.35.13.31a6.87,6.87,0,0,1,2.26-.16,15.61,15.61,0,0,0,4,.12,7.63,7.63,0,0,0,3.91-2.33c.69.34,1.38.66,2.09.93l.64.23.11-.32a22.72,22.72,0,0,1-2.54-1.07,6,6,0,0,0,1.36-4,6.57,6.57,0,0,0-.2-1.39c-.29-1.19-.84-2.41-.57-3.66,0-.18-.21-.24-.31-.12A9,9,0,0,0,16,79.05a8.21,8.21,0,0,0,0,6.89q-1-.57-2-1.23c-.42-.27-.82-.57-1.21-.86a5.75,5.75,0,0,0,1.46-1.45,6.09,6.09,0,0,0,1-3.75,25,25,0,0,1-.2-4.05c0-.14-.17-.27-.28-.16a9.23,9.23,0,0,0-2.68,7.43,6.54,6.54,0,0,1,.17,1.58c-.26-.2-.51-.42-.77-.64l-.22.26.32.28a8.4,8.4,0,0,0-1.24-.13c-2.91-.07-5.57,1.24-8,2.7C2.22,86,2.34,86.25,2.49,86.22Z"/><path class="cls-2" d="M12,92.08a12.34,12.34,0,0,1,3.58-.39,4.87,4.87,0,0,0,3.1-1.16A6.87,6.87,0,0,0,19.88,89c.18-.28.35-.56.51-.85h0c.67.2,1.35.38,2,.53-2.16.51-3.6,2.48-4.8,4.24a.17.17,0,0,0,.2.26l1.91-.89c.6-.29,1.22-.55,1.79-.89a3.41,3.41,0,0,0,1.84-2.53,22.24,22.24,0,0,0,2.44.29,6.54,6.54,0,0,0,2.49-.26c.21-.07.07-.38-.13-.31a6.89,6.89,0,0,1-2.86.19,23.33,23.33,0,0,1-2.64-.39c-.66-.14-1.32-.31-2-.5a6,6,0,0,0-1.83-7.48.18.18,0,0,0-.27.12,9.67,9.67,0,0,0-.09,1.86,12.31,12.31,0,0,0,1.58,5.31l-.66-.23-.11.32c-.33,0-.66.07-1,.13a10.74,10.74,0,0,0-6.58,3.92A.17.17,0,0,0,12,92.08Z"/><path class="cls-2" d="M42.75,12.6a6.53,6.53,0,1,1-6.53-6.53A6.53,6.53,0,0,1,42.75,12.6Z"/><path class="cls-2" d="M37.8,3.44c-.1.42-.29.82-.41,1.24a2,2,0,0,0-.07.88,8,8,0,0,0-1.1-.08,7,7,0,0,0-1.66.19,2.63,2.63,0,0,1,.56-1.74,18.2,18.2,0,0,0,1.36-1.81A1.9,1.9,0,0,0,36.41,0,3.25,3.25,0,0,1,37.8,3.44Z"/><path class="cls-2" d="M34.63,21.78c.11-.42.3-.82.42-1.24a2,2,0,0,0,.07-.88,6.71,6.71,0,0,0,1.1.09,7,7,0,0,0,1.66-.2,2.69,2.69,0,0,1-.56,1.74A19.43,19.43,0,0,0,36,23.1,1.9,1.9,0,0,0,36,25.22,3.24,3.24,0,0,1,34.63,21.78Z"/><path class="cls-2" d="M27.05,11c.42.1.82.3,1.24.41a2.18,2.18,0,0,0,.88.08,6.5,6.5,0,0,0-.09,1.09,7,7,0,0,0,.2,1.66,2.63,2.63,0,0,1-1.74-.56,21.37,21.37,0,0,0-1.81-1.36,1.9,1.9,0,0,0-2.12.07A3.25,3.25,0,0,1,27.05,11Z"/><path class="cls-2" d="M45.39,14.2c-.42-.11-.82-.3-1.24-.42a2.18,2.18,0,0,0-.88-.07,6.63,6.63,0,0,0,.08-1.1A7,7,0,0,0,43.16,11a2.69,2.69,0,0,1,1.74.56,16.77,16.77,0,0,0,1.81,1.36,1.9,1.9,0,0,0,2.12-.07A3.24,3.24,0,0,1,45.39,14.2Z"/><path class="cls-2" d="M30.85,5c.23.37.37.79.59,1.17a2.17,2.17,0,0,0,.57.67,6.2,6.2,0,0,0-.83.72,6.44,6.44,0,0,0-1,1.31,2.71,2.71,0,0,1-.84-1.63A16.78,16.78,0,0,0,29,5a1.88,1.88,0,0,0-1.54-1.45A3.22,3.22,0,0,1,30.85,5Z"/><path class="cls-2" d="M41.58,20.22c-.22-.38-.37-.79-.58-1.17a2.2,2.2,0,0,0-.57-.68,6.93,6.93,0,0,0,.83-.71,6.78,6.78,0,0,0,1-1.32A2.65,2.65,0,0,1,43.13,18a16.56,16.56,0,0,0,.33,2.24A1.88,1.88,0,0,0,45,21.66,3.23,3.23,0,0,1,41.58,20.22Z"/><path class="cls-2" d="M28.61,18c.38-.23.8-.37,1.18-.59a2.15,2.15,0,0,0,.67-.57,7.9,7.9,0,0,0,.71.84,7.13,7.13,0,0,0,1.32,1,2.66,2.66,0,0,1-1.63.84,18.3,18.3,0,0,0-2.24.32,1.88,1.88,0,0,0-1.45,1.55A3.24,3.24,0,0,1,28.61,18Z"/><path class="cls-2" d="M43.83,7.25c-.38.22-.8.37-1.18.58A2.31,2.31,0,0,0,42,8.4a6.93,6.93,0,0,0-.71-.83,7.19,7.19,0,0,0-1.32-1,2.65,2.65,0,0,1,1.63-.83,18.58,18.58,0,0,0,2.24-.32,1.91,1.91,0,0,0,1.45-1.55A3.24,3.24,0,0,1,43.83,7.25Z"/><polygon class="cls-1" points="19.4 11.46 21.04 14.42 19.4 17.52 17.83 14.4 19.4 11.46"/><path class="cls-1" d="M14.92,15.61a.88.88,0,0,0,0,1.75A.88.88,0,0,0,14.92,15.61Z"/><path class="cls-1" d="M23.16,15.47a.88.88,0,0,0,0,1.75A.88.88,0,0,0,23.16,15.47Z"/><path class="cls-1" d="M17,9.92a.88.88,0,0,0,0,1.75A.88.88,0,0,0,17,9.92Z"/><polygon class="cls-1" points="68.53 27.79 70.17 30.75 68.53 33.86 66.96 30.73 68.53 27.79"/><path class="cls-1" d="M69.07,22.38a.88.88,0,0,0,0,1.75A.88.88,0,0,0,69.07,22.38Z"/><path class="cls-1" d="M65.29,25.8a.88.88,0,0,0,0,1.75A.88.88,0,0,0,65.29,25.8Z"/></g></g></svg>