<svg xmlns="http://www.w3.org/2000/svg" viewBox="0 0 99.71 104.85"><defs><style>.cls-1{fill:#c4bd93;}.cls-2{fill:#5d4f7d;}</style></defs><g id="Layer_2" data-name="Layer 2"><g id="OBJECTS"><path class="cls-1" d="M31.38,89.81c.95-1.56,2.48-2.64,3.62-4a5.25,5.25,0,0,0,1.38-3.92,2.08,2.08,0,0,0-.16-.64l.26-.15c.31-.17.61-.34.91-.53l-.19-.31c-.31.18-.62.36-.94.53a.18.18,0,0,0-.12-.1,3.64,3.64,0,0,1-.92-.41,8.34,8.34,0,0,1-1.32-1A9.26,9.26,0,0,0,32,77.75a4.38,4.38,0,0,0-2.31-.45c-1.6.07-3.29.73-4.87.18a.18.18,0,0,0-.19.3,17.24,17.24,0,0,0,3.83,2.86,8.87,8.87,0,0,0,4.19.81c.75,0,1.49-.09,2.23-.17a2.8,2.8,0,0,0,.34,0h.13c-.62.3-1.25.59-1.88.85l-.64.25h-.94c-.85,0-1.69-.07-2.53-.08a10,10,0,0,0-2.93.35,7,7,0,0,0-2.29,1.3c-1.3,1.08-2.41,2.5-4.06,3.08-.22.07-.1.41.13.34a9.54,9.54,0,0,1,3.06-.18,12.53,12.53,0,0,0,2.74,0,8.12,8.12,0,0,0,2.66-1c1.59-.94,2.64-2.61,4.32-3.39a.3.3,0,0,0,.08-.08l.54-.22c.32-.12.64-.26,1-.4-.18.16-.36.33-.53.51a11,11,0,0,0-3,7.23C31,90,31.3,89.94,31.38,89.81Z"/><path class="cls-1" d="M37.73,90.56A20.57,20.57,0,0,1,39.23,86a7.49,7.49,0,0,0,.48-4.33,4.46,4.46,0,0,0-1-2c.49-.34,1-.7,1.44-1.07s1-.85,1.53-1.31a7.54,7.54,0,0,0-.55,1.19c-1.09,2.91-.64,6.09.32,9,0,.16.34.15.35,0a7.72,7.72,0,0,1,.59-2.36,17.56,17.56,0,0,0,1.42-4,8.25,8.25,0,0,0-1.09-4.77,23.65,23.65,0,0,0,1.63-1.83c.16-.18.3-.38.45-.58l-.29-.21a29.37,29.37,0,0,1-1.93,2.25,6.76,6.76,0,0,0-1.41-1.56A6.38,6.38,0,0,0,39,73.19a6.74,6.74,0,0,0-1.49-.26c-1.31-.09-2.73.07-3.92-.62-.17-.1-.31.13-.22.28a8.5,8.5,0,0,0,1.49,1.79,8.79,8.79,0,0,0,7,2.24Q41,77.51,40,78.3c-.42.34-.85.65-1.28,1a6.27,6.27,0,0,0-1-2A6.51,6.51,0,0,0,34.18,75,26.37,26.37,0,0,1,30,73.89c-.14-.06-.32.08-.25.23a9.93,9.93,0,0,0,6.72,5.18,7.18,7.18,0,0,1,1.67.34l-.91.58.19.31.39-.24a9,9,0,0,0-.54,1.23c-1,3-.55,6.1.13,9.07C37.41,90.77,37.7,90.73,37.73,90.56Z"/><path class="cls-1" d="M66.09,89.31a10.94,10.94,0,0,0-3-7.22,6.63,6.63,0,0,0-.54-.52l.95.41a5.2,5.2,0,0,0,.55.21s0,.07.08.08c1.68.79,2.73,2.46,4.31,3.39a7.9,7.9,0,0,0,2.66,1,12.64,12.64,0,0,0,2.75.06,8.93,8.93,0,0,1,3.05.18c.23.06.36-.27.13-.35-1.64-.57-2.75-2-4.06-3.07a6.56,6.56,0,0,0-2.28-1.3,10,10,0,0,0-2.93-.36c-.84,0-1.69.07-2.53.08h-.09c-.27,0-.53,0-.8,0h0l-.64-.25c-.64-.26-1.27-.55-1.88-.86h.13l.33.06c.75.08,1.49.15,2.23.17a8.92,8.92,0,0,0,4.2-.82,17.51,17.51,0,0,0,3.83-2.85.18.18,0,0,0-.19-.31c-1.58.56-3.27-.1-4.87-.18a4.39,4.39,0,0,0-2.31.46,9.26,9.26,0,0,0-1.86,1.44,9.43,9.43,0,0,1-1.32,1,3.8,3.8,0,0,1-.92.41.24.24,0,0,0-.13.11q-.47-.25-.93-.54l-.19.32.9.53.27.14a2.14,2.14,0,0,0-.16.65,5.2,5.2,0,0,0,1.37,3.91c1.15,1.41,2.67,2.48,3.62,4C65.83,89.51,66.1,89.52,66.09,89.31Z"/><path class="cls-1" d="M59.75,90.15c.69-3,1.16-6.11.13-9.07a7.81,7.81,0,0,0-.54-1.22l.4.24.19-.32L59,79.21a6.7,6.7,0,0,1,1.67-.34,9.93,9.93,0,0,0,6.72-5.18c.07-.15-.12-.3-.25-.24A26.4,26.4,0,0,1,63,74.58a6.49,6.49,0,0,0-3.5,2.27,6.11,6.11,0,0,0-1,2c-.43-.31-.87-.62-1.28-.95a25.64,25.64,0,0,1-1.93-1.69,8.77,8.77,0,0,0,7-2.23,8.87,8.87,0,0,0,1.49-1.8c.09-.14-.05-.37-.22-.27-1.19.69-2.61.52-3.93.61a6.74,6.74,0,0,0-1.49.26,6.4,6.4,0,0,0-3.63,2.7,24.35,24.35,0,0,1-1.93-2.25l-.29.22.44.58c.52.63,1.07,1.24,1.64,1.83a8.25,8.25,0,0,0-1.1,4.77,17.22,17.22,0,0,0,1.43,4A7.72,7.72,0,0,1,55.29,87c0,.19.29.2.35,0A13.57,13.57,0,0,0,56,78a8.44,8.44,0,0,0-.55-1.18c.5.45,1,.89,1.53,1.3s1,.73,1.44,1.07a4.36,4.36,0,0,0-1,2,7.44,7.44,0,0,0,.47,4.34,19.85,19.85,0,0,1,1.51,4.54C59.42,90.29,59.71,90.34,59.75,90.15Z"/><path class="cls-1" d="M65.12,45.94A15.39,15.39,0,0,0,64.61,42a18.31,18.31,0,1,1-29.74,0,15.38,15.38,0,1,0,30.25,3.93Z"/><rect class="cls-2" x="22.69" y="58.16" width="54.1" height="0.95" transform="translate(-8.9 108.38) rotate(-90)"/><polygon class="cls-1" points="49.74 32.21 44.19 35.39 49.74 22.27 56.44 35.39 49.74 32.21"/><polygon class="cls-1" points="49.74 84.56 43.72 89.9 43.72 104.85 49.74 99.15 55.76 104.85 55.76 89.75 49.74 84.56"/><circle class="cls-2" cx="49.68" cy="48.38" r="7.74" transform="translate(-19.66 49.3) rotate(-45)"/><path class="cls-2" d="M39.92,35.23c1.36,1.1,4.36,2.59,9.76,1l.14,2.52s-5-.24-7.64,2.37a4.07,4.07,0,0,1-5.08.5,11,11,0,0,1-1.65-1.34,4.06,4.06,0,0,0-3.36-1.09,11.21,11.21,0,0,0-2.87.68l-.7-3a21.36,21.36,0,0,1,8.82-2.51A3.85,3.85,0,0,1,39.92,35.23Z"/><path class="cls-1" d="M29.22,39.83l-.7-3S18,41.13,13.61,46.06,2.57,50.51,0,47.67c0,0-.66,2.64,3.83,3.69s11.51.23,13.31-3.38S29.22,39.83,29.22,39.83Z"/><path class="cls-2" d="M59.79,35.23c-1.36,1.1-4.36,2.59-9.76,1l-.14,2.52s5-.24,7.64,2.37a4.05,4.05,0,0,0,5.07.5,10.6,10.6,0,0,0,1.66-1.34,4,4,0,0,1,3.35-1.09,11,11,0,0,1,2.87.68l.71-3a21.44,21.44,0,0,0-8.83-2.51A3.84,3.84,0,0,0,59.79,35.23Z"/><path class="cls-1" d="M70.48,39.83l.71-3s10.55,4.26,14.91,9.19,11,4.45,13.57,1.61c0,0,.67,2.64-3.82,3.69S84.34,51.59,82.54,48,70.48,39.83,70.48,39.83Z"/><path class="cls-2" d="M50,84.48V88c2.22,1.67,4.38,3.43,6.44,5.26a.35.35,0,0,1,.11.24.4.4,0,0,1-.08.23.36.36,0,0,1-.5,0c-1.92-1.7-3.93-3.35-6-4.9v2.71c2.33,1.91,4.45,3.68,6.52,5.47a.34.34,0,0,1,.11.24v.06a.38.38,0,0,1-.24.27.33.33,0,0,1-.34-.07c-2-1.71-4-3.42-6-5.09v2.92L56.09,101a.33.33,0,0,1,0,.47.34.34,0,0,1-.49,0L50,96.35v2.84a.35.35,0,0,1-.69,0v-3L43.6,101.5a.34.34,0,0,1-.49,0,.33.33,0,0,1,0-.47l6.18-5.69,0,0V92.38c-2.08,1.7-4.16,3.45-6.18,5.2a.36.36,0,0,1-.5,0,.32.32,0,0,1,0-.46c2.16-1.86,4.36-3.71,6.56-5.5a.28.28,0,0,1,.09-.14V88.8c-2.09,1.57-4.14,3.26-6.1,5a.36.36,0,0,1-.5,0,.33.33,0,0,1,0-.47c2.1-1.86,4.31-3.67,6.57-5.37V84.48a.35.35,0,0,1,.69,0Z"/><path class="cls-2" d="M91.07,48.76l-.37.73c.14-.23.28-.45.43-.67a.34.34,0,0,1,.48-.1h0a.44.44,0,0,1,.18-.09.32.32,0,0,1,.38.26,27.07,27.07,0,0,0,.7,3.06s0,0,0,0l4.42-3.61a.35.35,0,0,1,.5.06.32.32,0,0,1,.08.2.3.3,0,0,1-.12.25L52.06,86.23a.33.33,0,0,1-.34.06.38.38,0,0,1-.24-.27.35.35,0,0,1,.12-.3L92.45,52.37a.3.3,0,0,1-.22-.23c-.26-.9-.48-1.83-.65-2.76A19.43,19.43,0,0,0,90.19,52a.31.31,0,0,1-.24.19.38.38,0,0,1-.31,0,.35.35,0,0,1,0-.53c.1-.22.2-.45.31-.67L89.29,52a.34.34,0,0,1-.47.11.33.33,0,0,1-.12-.47c.64-1,1.23-2.13,1.77-3.23a.32.32,0,0,1,.26-.19.38.38,0,0,1,.32.16.36.36,0,0,1,.06.2A.28.28,0,0,1,91.07,48.76Z"/><path class="cls-2" d="M90,48.25a.38.38,0,0,1,.31.18.34.34,0,0,1,0,.17.32.32,0,0,1,0,.16c-.56,1-1.17,2.05-1.82,3a.34.34,0,0,1-.31.15.35.35,0,0,1-.29-.19.31.31,0,0,1,0-.33c.64-1,1.24-2,1.8-3A.34.34,0,0,1,90,48.25Z"/><path class="cls-2" d="M9.56,48.3a.35.35,0,0,1,.24,0,.34.34,0,0,1,.22.17c.55,1,1.16,2,1.8,3a.35.35,0,0,1,.06.19.25.25,0,0,1,0,.14.35.35,0,0,1-.3.19.33.33,0,0,1-.3-.15c-.65-1-1.26-2-1.82-3a.32.32,0,0,1,0-.16A.35.35,0,0,1,9.56,48.3Z"/><path class="cls-2" d="M48,86.29a.32.32,0,0,1-.34-.06L1.93,48.9a.31.31,0,0,1,0-.45.35.35,0,0,1,.5-.06L6.81,52v0a27.07,27.07,0,0,0,.7-3.06.31.31,0,0,1,.37-.26.42.42,0,0,1,.19.09h0a.34.34,0,0,1,.48.1c.15.22.29.44.42.67l-.36-.73a.34.34,0,0,1,0-.35A.38.38,0,0,1,9,48.25a.32.32,0,0,1,.26.19c.54,1.1,1.13,2.19,1.77,3.23a.41.41,0,0,1,.05.18.35.35,0,0,1-.17.29.34.34,0,0,1-.47-.11c-.21-.35-.42-.7-.61-1.05.1.21.2.43.29.64a.34.34,0,0,1,0,.53.38.38,0,0,1-.31,0A.3.3,0,0,1,9.52,52a19.35,19.35,0,0,0-1.39-2.62,25.74,25.74,0,0,1-.65,2.76.32.32,0,0,1-.22.23L48.1,85.72a.33.33,0,0,1,.13.25.11.11,0,0,1,0,0A.37.37,0,0,1,48,86.29Z"/><polygon class="cls-2" points="49.89 0 51.84 9.52 57.1 7.02 54.6 12.28 64.11 14.23 54.6 16.18 57.1 21.44 51.84 18.94 49.89 28.45 47.94 18.94 42.68 21.44 45.18 16.18 35.66 14.23 45.18 12.28 42.68 7.02 47.94 9.52 49.89 0"/><polygon class="cls-2" points="21.21 54.59 19.57 51.63 21.21 48.53 22.79 51.66 21.21 54.59"/><path class="cls-2" d="M27.18,54.16a.88.88,0,0,0,0-1.75A.88.88,0,0,0,27.18,54.16Z"/><path class="cls-2" d="M20.69,58a.88.88,0,0,0,0-1.75A.88.88,0,0,0,20.69,58Z"/><path class="cls-2" d="M25.49,58.91a.88.88,0,0,0,0-1.75A.88.88,0,0,0,25.49,58.91Z"/><polygon class="cls-2" points="61.38 27.46 59.74 24.5 61.38 21.4 62.95 24.53 61.38 27.46"/><path class="cls-2" d="M64.78,23a.88.88,0,0,0,1.75,0A.88.88,0,0,0,64.78,23Z"/><path class="cls-2" d="M60.86,30.91a.88.88,0,0,0,0-1.75A.88.88,0,0,0,60.86,30.91Z"/><path class="cls-2" d="M65.66,31.78a.88.88,0,0,0,0-1.75A.88.88,0,0,0,65.66,31.78Z"/></g></g></svg>