<svg xmlns="http://www.w3.org/2000/svg" viewBox="0 0 101.33 91.21"><defs><style>.cls-1{fill:#5d4f7d;}.cls-2{fill:#c4bd93;}</style></defs><g id="Layer_2" data-name="Layer 2"><g id="OBJECTS"><polygon class="cls-1" points="5.65 49.14 7.3 52.11 5.65 55.24 4.07 52.09 5.65 49.14"/><path class="cls-2" d="M23.85,89.85a12.66,12.66,0,0,1-8.58,1l.05-.23a3.26,3.26,0,0,0,3.42-1.91,14.61,14.61,0,0,1,.74-2.38A3.76,3.76,0,0,1,22,84.84,9.78,9.78,0,0,0,24.78,84,2.43,2.43,0,0,0,26,82.1,11.63,11.63,0,0,0,33.4,81a21.47,21.47,0,0,0,2.78.08l-5,3.9A37.78,37.78,0,0,1,23.85,89.85Z"/><path class="cls-2" d="M28.28,78.56c-.25-.08-.51-.16-.75-.25-2.54-.93-4.66-2.9-7.32-3.39-2.46-.44-4.93.46-7.37,1s-5.27.74-7.16-.88c-1.36-1.17-1.93-3-2.42-4.72Q1.63,64.74,0,59.12c.59,1.54,2.57,2.13,4.17,1.74a11.35,11.35,0,0,0,4.19-2.54,8.86,8.86,0,0,1,4.31-2.25,5.76,5.76,0,0,1,3.38.76,8.09,8.09,0,0,1,1,.68A18.4,18.4,0,0,1,20.29,61l.12,0A23.29,23.29,0,0,0,25.69,71.6,15.25,15.25,0,0,0,37,76.73,10,10,0,0,1,28.28,78.56Z"/><path class="cls-2" d="M36.64,55.59A17.52,17.52,0,0,0,39,63.82a4.68,4.68,0,0,0-1.67,0,19.21,19.21,0,0,0-6.54-4.68A10.12,10.12,0,0,1,28.4,58a2.54,2.54,0,0,1-1-2.31c.14-.75.74-1.33,1-2,.81-2.38-2.41-4.82-1.5-7.17.53-1.36,2.2-1.9,3-3.1a3.11,3.11,0,0,0,0-3.32,9.46,9.46,0,0,1,5.4,5.93C36.39,49,36.38,52.34,36.64,55.59Z"/><path class="cls-1" d="M37,76.73A15.25,15.25,0,0,1,25.69,71.6,23.39,23.39,0,0,1,20.29,61h0a18.4,18.4,0,0,0-3.2-3.51,8.09,8.09,0,0,0-1-.68,10.85,10.85,0,0,1-.2-5.57c-3.11-2-5.24-5.22-7-8.45A39.34,39.34,0,0,1,4.7,32.93a20.11,20.11,0,0,1-.09-9.63c.7-.1,1.44-.13,2.14-.21a5.49,5.49,0,0,0,3.64-1.54c1.6-1.89.67-5,2.23-7,1.38-1.7,4-1.62,5.85-2.82a8.68,8.68,0,0,0,2.51-3,11.9,11.9,0,0,1,2.33-3.11,3.64,3.64,0,0,1,3.62-.78c1.6.67,2.15,2.69,3.55,3.7,1.65,1.18,4,.68,5.82,1.65a6.62,6.62,0,0,1,2.77,3.92,19.8,19.8,0,0,0,1.72,4.59A4.29,4.29,0,0,0,44.39,21a14.41,14.41,0,0,1-6.52,5.15C35,27.41,32,28.3,29.34,30c-4.68,3-7.63,8-9.67,13.15-1.17,3-2.18,6.24-1.26,9.27h0A11,11,0,0,0,24.2,59c2.13,1,4.51,1.21,6.75,1.9a8.33,8.33,0,0,1,5,3.52,3.81,3.81,0,0,1,1.36-.52,4.68,4.68,0,0,1,1.67,0l.24,0A10.76,10.76,0,0,1,43.28,66a15.44,15.44,0,0,0,3.93,2.39,18.51,18.51,0,0,1,3.06,1,4.16,4.16,0,0,1,2,4.64,8.15,8.15,0,0,1-1.92,3A11.09,11.09,0,0,1,46.2,80.4a11.22,11.22,0,0,1-3.61.51l-5.68.17-.73,0A21.47,21.47,0,0,1,33.4,81a10.31,10.31,0,0,1-1.24-.19,6.66,6.66,0,0,1-3.88-2.27A10,10,0,0,0,37,76.73Z"/><path class="cls-2" d="M28,64.3a2.4,2.4,0,0,0-1-.48,1.37,1.37,0,0,0-1,.11,1.2,1.2,0,0,0-.38,1,3.68,3.68,0,0,0,.11,1.24.18.18,0,0,0,.34-.09,3.58,3.58,0,0,1-.11-1c0-.24,0-.62.22-.79a1,1,0,0,1,.81-.06,2,2,0,0,1,.83.38.17.17,0,0,0,.25,0A.18.18,0,0,0,28,64.3Z"/><path class="cls-2" d="M28.6,68.65c-.34,0-.66-.13-1-.13a.78.78,0,0,0-.74.43,1.9,1.9,0,0,0-.17.91,2.58,2.58,0,0,0,.25,1,.17.17,0,0,0,.24.06.18.18,0,0,0,.06-.24,2.13,2.13,0,0,1-.19-.79,1.48,1.48,0,0,1,.11-.75.5.5,0,0,1,.57-.25,4.14,4.14,0,0,0,.86.12.18.18,0,0,0,.18-.18A.18.18,0,0,0,28.6,68.65Z"/><path class="cls-2" d="M32.39,65.25a9.48,9.48,0,0,1-1.07-.14,1.14,1.14,0,0,0-.85.26,1.19,1.19,0,0,0-.29.91,2.76,2.76,0,0,0,.23,1,.17.17,0,0,0,.3-.18,2.42,2.42,0,0,1-.18-.87.85.85,0,0,1,.22-.69,1,1,0,0,1,.68-.12,4.44,4.44,0,0,0,1,.13C32.61,65.6,32.61,65.24,32.39,65.25Z"/><path class="cls-2" d="M31.88,69.35a4.88,4.88,0,0,1-.93,0,.76.76,0,0,0-.69.35,1.13,1.13,0,0,0-.06.83,4.65,4.65,0,0,0,.3,1,.18.18,0,0,0,.25.06.18.18,0,0,0,.06-.24,4.5,4.5,0,0,1-.26-.81.86.86,0,0,1,0-.65.62.62,0,0,1,.54-.15,2.48,2.48,0,0,0,.86,0C32.2,69.64,32.11,69.3,31.88,69.35Z"/><path class="cls-2" d="M34.77,68.61l-.9,0a.58.58,0,0,0-.38.12.56.56,0,0,0-.17.34,2.57,2.57,0,0,0,.36,1.58c.11.19.42,0,.3-.18a2.31,2.31,0,0,1-.32-1.28.28.28,0,0,1,.06-.2A.39.39,0,0,1,34,69h.79A.18.18,0,0,0,34.77,68.61Z"/><path class="cls-2" d="M41.29,19.57a27.63,27.63,0,0,1-6.86,4.93,58.29,58.29,0,0,0-7.28,4.38,25.8,25.8,0,0,0-5.53,5.8,26.9,26.9,0,0,0-3.55,7.26,26,26,0,0,0-1.19,6.78,18.38,18.38,0,0,1,0-7,26.45,26.45,0,0,1,3.21-8.35A54.28,54.28,0,0,1,25.43,26c2-2.33,4-4.57,6-6.91a51.92,51.92,0,0,0,5.3-7.37c.19-.33.37-.67.55-1s-.2-.38-.31-.18a46.71,46.71,0,0,1-5.24,7.63c-1.94,2.38-4,4.64-6,7a60,60,0,0,0-5.47,7.31,27.64,27.64,0,0,0-3.51,8.3,18.66,18.66,0,0,0,0,8.76,1,1,0,0,0,0,.14A19.13,19.13,0,0,1,15,42.13a30,30,0,0,1,1.13-8.79,76.52,76.52,0,0,1,3.23-9c1.2-2.92,2.45-5.83,3.43-8.84a35.1,35.1,0,0,0,1.87-9.17c0-.39,0-.79,0-1.18a.18.18,0,0,0-.35,0,32.83,32.83,0,0,1-1.6,9.37c-.95,3-2.18,6-3.4,8.94a88.53,88.53,0,0,0-3.31,8.93,31.21,31.21,0,0,0-1.4,8.84,20,20,0,0,0,1.64,8.25,22.8,22.8,0,0,1-3.44-11.4c-.31-5,.33-9.9.33-14.86a34.44,34.44,0,0,0-.85-8.09C12.29,15,12,15,12,15.26c1.18,4.84.84,9.85.59,14.77-.25,4.74-.41,9.59.92,14.2a19.26,19.26,0,0,0,2.09,4.84,36.25,36.25,0,0,1-5.28-8A37,37,0,0,1,7,29.79a35.64,35.64,0,0,1-.24-6.61c0-.23-.34-.22-.35,0A36.23,36.23,0,0,0,7.67,35a37.3,37.3,0,0,0,5,10.8A35.39,35.39,0,0,0,16.84,51s.41.13.4-.05a6.17,6.17,0,0,0,0-.85,25,25,0,0,1,.93-7.14,26.65,26.65,0,0,1,3.29-7.32,25.31,25.31,0,0,1,5.34-6,45.64,45.64,0,0,1,7.11-4.42,32.8,32.8,0,0,0,6.9-4.63q.39-.36.75-.75C41.69,19.66,41.44,19.41,41.29,19.57Z"/><path class="cls-1" d="M35.19,80.4a29.63,29.63,0,0,1-9.63,3c-.22,0-.13.37.09.34a30.19,30.19,0,0,0,7.92-2.21A25.76,25.76,0,0,1,23.1,85.77a26.33,26.33,0,0,1-3.54.33.18.18,0,0,0,0,.35,26.3,26.3,0,0,0,12.19-3.34c.46-.26.91-.53,1.35-.82a40.48,40.48,0,0,1-3.93,3,34.17,34.17,0,0,1-6.82,3.59,14.36,14.36,0,0,1-4.29.91c-.23,0-.23.36,0,.35a18.06,18.06,0,0,0,7.51-2.33,41.5,41.5,0,0,0,6.51-4.19,41.77,41.77,0,0,0,3.33-2.91C35.56,80.54,35.37,80.31,35.19,80.4Z"/><path class="cls-1" d="M38.23,63.78c-.16-.25-.6-1.09-.67-1.2a26.45,26.45,0,0,1-2.05-7.48c-.49-3.05-.91-6.16-2.25-9a11.73,11.73,0,0,0-2.72-3.75c-.17-.15-.42.1-.25.25A14.22,14.22,0,0,1,34.23,50c.75,3.09,1,6.28,1.78,9.36.05.2.12.41.18.62-.74-1.57-1.38-3.19-2.08-4.78a24.15,24.15,0,0,0-3.9-6.58A12.14,12.14,0,0,0,27,46c-.2-.11-.38.2-.18.31a13.8,13.8,0,0,1,5.05,5.21,63.33,63.33,0,0,1,3.41,7.33A34.56,34.56,0,0,0,37,62.32a44.93,44.93,0,0,0-6.57-6.14c-.81-.62-1.65-1.21-2.51-1.77-.19-.13-.36.18-.17.3a43.94,43.94,0,0,1,8.2,7c.69.75,1.36,1.53,2,2.33C38.08,64.15,38.34,64,38.23,63.78Z"/><path class="cls-2" d="M43.94,66.72a8.45,8.45,0,0,0-4.75-3,3.82,3.82,0,0,0-2.89.37,2.7,2.7,0,0,0-1.18,2.34,5.67,5.67,0,0,0,.34,1.77,3,3,0,0,0,.72,1.41c.17.15.42-.1.25-.25a2.57,2.57,0,0,1-.61-1.18,6.08,6.08,0,0,1-.34-1.46,2.44,2.44,0,0,1,1-2.32,3.5,3.5,0,0,1,2.67-.34A8.13,8.13,0,0,1,43.69,67C43.83,67.15,44.08,66.9,43.94,66.72Z"/><path class="cls-1" d="M22,64.52a13.34,13.34,0,0,0-2.84-3.29A11.6,11.6,0,0,0,15.31,59a6,6,0,0,0-4.55.25,24.12,24.12,0,0,0-4,2.62,7.4,7.4,0,0,1-5.07,1.73c-.23,0-.23.33,0,.35,3.29.42,5.68-2.37,8.27-3.89a6.37,6.37,0,0,1,4.48-.93,10.23,10.23,0,0,1,4,2,12.85,12.85,0,0,1,3.26,3.59C21.85,64.89,22.15,64.71,22,64.52Z"/><path class="cls-1" d="M24.24,69A14.8,14.8,0,0,0,17,63.67a10.31,10.31,0,0,0-4.78-.3,11.37,11.37,0,0,0-4.34,2c-.77.52-1.52,1.08-2.33,1.52a2.86,2.86,0,0,1-2.72.3c-.2-.1-.38.2-.18.31,1.5.79,3.1-.26,4.32-1.08A17.4,17.4,0,0,1,11.14,64a10.5,10.5,0,0,1,9.08,1.64,16.63,16.63,0,0,1,3.72,3.58C24.07,69.4,24.38,69.22,24.24,69Z"/><circle class="cls-2" cx="45.82" cy="70.1" r="1.32"/><path class="cls-1" d="M77.49,1.36a12.7,12.7,0,0,1,8.57-1L86,.6A3.26,3.26,0,0,0,82.6,2.51a15.32,15.32,0,0,1-.74,2.38,3.79,3.79,0,0,1-2.48,1.48,9.62,9.62,0,0,0-2.82.86,2.43,2.43,0,0,0-1.2,1.88,11.63,11.63,0,0,0-7.42,1.08,21.62,21.62,0,0,0-2.79-.08l5-3.89A37.23,37.23,0,0,1,77.49,1.36Z"/><path class="cls-1" d="M73.05,12.66c.26.07.51.15.76.24,2.53.93,4.66,2.9,7.32,3.39,2.45.44,4.93-.46,7.36-1s5.27-.74,7.17.89c1.36,1.16,1.92,3,2.42,4.71q1.64,5.63,3.25,11.24c-.59-1.54-2.57-2.12-4.17-1.74A11.32,11.32,0,0,0,93,32.89a8.93,8.93,0,0,1-4.32,2.25,5.76,5.76,0,0,1-3.38-.76,8.84,8.84,0,0,1-1-.68A19,19,0,0,1,81,30.2l-.11,0a23.43,23.43,0,0,0-5.28-10.62,15.26,15.26,0,0,0-11.27-5.13A10,10,0,0,1,73.05,12.66Z"/><path class="cls-1" d="M64.69,35.62a17.43,17.43,0,0,0-2.32-8.23,4.69,4.69,0,0,0,1.67,0A19,19,0,0,0,70.58,32a10,10,0,0,1,2.35,1.21,2.54,2.54,0,0,1,1,2.31,15.36,15.36,0,0,1-1,2c-.81,2.38,2.41,4.82,1.5,7.17-.52,1.36-2.2,1.9-3,3.1a3.09,3.09,0,0,0,0,3.32A9.49,9.49,0,0,1,66,45.27C64.94,42.2,65,38.87,64.69,35.62Z"/><path class="cls-2" d="M64.38,14.48a15.26,15.26,0,0,1,11.27,5.13A23.51,23.51,0,0,1,81,30.2h0a19,19,0,0,0,3.2,3.5,8.84,8.84,0,0,0,1,.68A10.85,10.85,0,0,1,85.49,40c3.1,2,5.23,5.22,7,8.45a39.38,39.38,0,0,1,4.1,9.89,20.2,20.2,0,0,1,.1,9.62c-.71.1-1.44.13-2.15.21A5.45,5.45,0,0,0,91,69.66c-1.61,1.89-.68,5-2.24,7-1.37,1.7-4,1.62-5.85,2.82a8.66,8.66,0,0,0-2.5,3A12.35,12.35,0,0,1,78,85.5a3.65,3.65,0,0,1-3.63.78c-1.59-.67-2.15-2.69-3.55-3.7-1.65-1.18-4-.68-5.81-1.65A6.57,6.57,0,0,1,62.27,77a20.75,20.75,0,0,0-1.72-4.59A4.32,4.32,0,0,0,57,70.25a14.33,14.33,0,0,1,6.51-5.15c2.85-1.29,5.89-2.19,8.54-3.86,4.68-3,7.62-8,9.66-13.15,1.17-2.94,2.18-6.24,1.27-9.27h0a11,11,0,0,0-5.8-6.55c-2.13-1-4.51-1.21-6.75-1.9a8.41,8.41,0,0,1-5-3.53,3.69,3.69,0,0,1-1.35.52,4.69,4.69,0,0,1-1.67,0l-.25-.05a10.65,10.65,0,0,1-4.06-2.13,15.32,15.32,0,0,0-3.94-2.39,19.13,19.13,0,0,1-3.06-1,4.16,4.16,0,0,1-2-4.64,8,8,0,0,1,1.93-3,11,11,0,0,1,4.11-3.38,10.92,10.92,0,0,1,3.61-.52l5.68-.17.72,0a21.62,21.62,0,0,1,2.79.08,10.15,10.15,0,0,1,1.23.19,6.56,6.56,0,0,1,3.88,2.28A10,10,0,0,0,64.38,14.48Z"/><path class="cls-1" d="M73.33,26.91a2.25,2.25,0,0,0,1,.48,1.36,1.36,0,0,0,1-.11,1.24,1.24,0,0,0,.39-1,3.69,3.69,0,0,0-.12-1.24c0-.22-.39-.13-.34.09a3.26,3.26,0,0,1,.11,1c0,.24,0,.62-.22.79a1,1,0,0,1-.81.06,1.93,1.93,0,0,1-.82-.38.18.18,0,0,0-.25,0A.18.18,0,0,0,73.33,26.91Z"/><path class="cls-1" d="M72.73,22.56c.34,0,.66.13,1,.13a.8.8,0,0,0,.74-.43,1.89,1.89,0,0,0,.16-.91,2.57,2.57,0,0,0-.24-1,.17.17,0,0,0-.24-.06.18.18,0,0,0-.07.24,2,2,0,0,1,.2.79,1.49,1.49,0,0,1-.12.75.49.49,0,0,1-.56.25,4.24,4.24,0,0,0-.87-.12.18.18,0,0,0-.17.18A.17.17,0,0,0,72.73,22.56Z"/><path class="cls-1" d="M69,26c.36,0,.7.12,1.06.14a1.13,1.13,0,0,0,.85-.26,1.2,1.2,0,0,0,.3-.91,3,3,0,0,0-.23-1.05.19.19,0,0,0-.24-.06.17.17,0,0,0-.07.24,2.22,2.22,0,0,1,.18.87.79.79,0,0,1-.22.69.94.94,0,0,1-.68.12,6.2,6.2,0,0,0-1-.13C68.72,25.62,68.72,26,69,26Z"/><path class="cls-1" d="M69.45,21.86a4.85,4.85,0,0,1,.93.06.82.82,0,0,0,.7-.36,1.18,1.18,0,0,0,.06-.83,5.38,5.38,0,0,0-.31-1,.18.18,0,0,0-.24-.06.18.18,0,0,0-.06.24,4.47,4.47,0,0,1,.25.81.81.81,0,0,1,0,.65.62.62,0,0,1-.54.15,2.76,2.76,0,0,0-.86,0A.18.18,0,0,0,69.45,21.86Z"/><path class="cls-1" d="M66.56,22.6l.9,0a.6.6,0,0,0,.39-.12.5.5,0,0,0,.16-.34,2.46,2.46,0,0,0-.35-1.57.18.18,0,0,0-.31.17A2.23,2.23,0,0,1,67.67,22c0,.06,0,.16-.06.2s-.18,0-.25,0l-.8,0A.18.18,0,0,0,66.56,22.6Z"/><path class="cls-1" d="M60.05,71.64a27.45,27.45,0,0,1,6.86-4.93,59,59,0,0,0,7.28-4.38,26,26,0,0,0,5.52-5.8,27.23,27.23,0,0,0,3.56-7.26,26,26,0,0,0,1.18-6.78,18,18,0,0,1,0,7,26.21,26.21,0,0,1-3.21,8.35,52.84,52.84,0,0,1-5.35,7.37c-2,2.33-4,4.57-6,6.91a51.92,51.92,0,0,0-5.3,7.37c-.19.33-.38.67-.55,1s.19.38.3.18a46.71,46.71,0,0,1,5.24-7.63c2-2.37,4-4.64,6-7a58,58,0,0,0,5.47-7.31,27.64,27.64,0,0,0,3.51-8.3,18.66,18.66,0,0,0,0-8.76.57.57,0,0,1,0-.14,19.31,19.31,0,0,1,1.7,7.49,29.63,29.63,0,0,1-1.14,8.78,74.69,74.69,0,0,1-3.22,9c-1.21,2.92-2.45,5.84-3.44,8.84a35.5,35.5,0,0,0-1.86,9.17c0,.4,0,.79,0,1.18A.18.18,0,0,0,77,86a32,32,0,0,1,1.6-9.36c.94-3,2.17-6,3.39-9a88.59,88.59,0,0,0,3.32-8.93,31.56,31.56,0,0,0,1.39-8.84A20,20,0,0,0,85,41.69,22.91,22.91,0,0,1,88.48,53.1c.31,4.95-.34,9.89-.33,14.85A34.37,34.37,0,0,0,89,76a.18.18,0,0,0,.34-.09c-1.17-4.84-.84-9.85-.58-14.77.24-4.74.4-9.59-.92-14.2a19.63,19.63,0,0,0-2.09-4.84,36.45,36.45,0,0,1,5.27,8,37.06,37.06,0,0,1,3.36,11.26A35.63,35.63,0,0,1,94.6,68c0,.23.34.23.36,0a36.51,36.51,0,0,0-1.3-11.81,37.16,37.16,0,0,0-5-10.8,35.33,35.33,0,0,0-4.2-5.16s-.42-.13-.41.05,0,.73,0,.86a25.67,25.67,0,0,1-.93,7.13,27,27,0,0,1-3.29,7.32,25.75,25.75,0,0,1-5.34,6A46.11,46.11,0,0,1,67.45,66a33.13,33.13,0,0,0-6.91,4.63c-.25.24-.5.49-.74.75A.18.18,0,0,0,60.05,71.64Z"/><path class="cls-2" d="M66.14,10.81a29.71,29.71,0,0,1,9.63-3c.23,0,.13-.37-.09-.34a30.3,30.3,0,0,0-7.92,2.21A25.8,25.8,0,0,1,78.24,5.44a26.18,26.18,0,0,1,3.53-.33.18.18,0,0,0,0-.35A26.22,26.22,0,0,0,69.58,8.11c-.46.25-.9.52-1.34.81a38.83,38.83,0,0,1,3.93-3A33.68,33.68,0,0,1,79,2.36a14.29,14.29,0,0,1,4.29-.91c.22,0,.22-.36,0-.35a18.06,18.06,0,0,0-7.52,2.33,41.77,41.77,0,0,0-6.51,4.2,38.07,38.07,0,0,0-3.32,2.9C65.78,10.67,66,10.9,66.14,10.81Z"/><path class="cls-2" d="M63.1,27.43c.16.25.6,1.1.67,1.2a26.45,26.45,0,0,1,2,7.48c.49,3,.91,6.16,2.25,9a11.65,11.65,0,0,0,2.73,3.75c.17.15.42-.1.25-.25a14,14,0,0,1-3.94-7.37c-.75-3.09-1-6.28-1.78-9.36l-.18-.62c.74,1.58,1.38,3.2,2.07,4.79a24.5,24.5,0,0,0,3.9,6.57,12,12,0,0,0,3.2,2.6.18.18,0,0,0,.18-.31,13.83,13.83,0,0,1-5.06-5.21A65.65,65.65,0,0,1,66,32.35a35.85,35.85,0,0,0-1.71-3.46A44.36,44.36,0,0,0,70.89,35c.82.62,1.65,1.21,2.51,1.77.19.13.37-.18.18-.3a43.31,43.31,0,0,1-8.2-7c-.7-.75-1.36-1.53-2-2.33C63.25,27.06,63,27.26,63.1,27.43Z"/><path class="cls-1" d="M57.4,24.49a8.44,8.44,0,0,0,4.74,3,3.85,3.85,0,0,0,2.9-.38,2.7,2.7,0,0,0,1.18-2.34A5.67,5.67,0,0,0,65.88,23a3.16,3.16,0,0,0-.72-1.41c-.17-.15-.42.1-.25.25a2.6,2.6,0,0,1,.6,1.18,6.08,6.08,0,0,1,.34,1.46,2.42,2.42,0,0,1-1,2.32,3.48,3.48,0,0,1-2.66.34,8,8,0,0,1-2.41-1,8.22,8.22,0,0,1-2.14-1.89C57.5,24.06,57.26,24.32,57.4,24.49Z"/><path class="cls-2" d="M79.3,26.69A13.38,13.38,0,0,0,82.15,30,11.71,11.71,0,0,0,86,32.19a6.1,6.1,0,0,0,4.55-.26,24,24,0,0,0,4-2.62,7.43,7.43,0,0,1,5.08-1.73c.22,0,.22-.32,0-.35-3.3-.42-5.68,2.37-8.27,3.89a6.39,6.39,0,0,1-4.48.93,10.21,10.21,0,0,1-4-1.94,13,13,0,0,1-3.26-3.6C79.49,26.32,79.18,26.5,79.3,26.69Z"/><path class="cls-2" d="M77.09,22.17a14.83,14.83,0,0,0,7.28,5.37,10.28,10.28,0,0,0,4.77.3,11.34,11.34,0,0,0,4.35-2,27.21,27.21,0,0,1,2.32-1.52,2.9,2.9,0,0,1,2.73-.3c.2.11.37-.2.17-.3-1.5-.8-3.09.25-4.32,1.07a17.4,17.4,0,0,1-4.2,2.41,10.5,10.5,0,0,1-9.08-1.64A16.37,16.37,0,0,1,77.4,22C77.26,21.81,77,22,77.09,22.17Z"/><circle class="cls-1" cx="55.52" cy="21.11" r="1.32"/><circle class="cls-2" cx="50.53" cy="45.72" r="13.58" transform="translate(-13.73 23.04) rotate(-22.7)"/><path class="cls-1" d="M59.38,36.78a10.56,10.56,0,0,0-5.5,5.15c-.1.22-.19.44-.28.66,0-.33,0-.66,0-1s0-.38,0-.56a.21.21,0,0,0,0-.1c.15-1.78,1.3-3.28,1.61-5a7.54,7.54,0,0,0,0-2.72,11.65,11.65,0,0,0-.86-2.49,8.74,8.74,0,0,1-.87-2.81c0-.23-.36-.23-.35,0,0,1.67-.87,3.15-1.41,4.68a6.46,6.46,0,0,0-.4,2.5,9.35,9.35,0,0,0,.65,2.75c.29.76.63,1.5.92,2.25l0,.09c.09.23.18.47.26.71,0,0,0,0,0,.05,0,.22,0,.44,0,.66,0,.66-.07,1.32-.14,2l0-.12c0-.12,0-.24-.07-.32-.17-.7-.36-1.39-.59-2.07a8.62,8.62,0,0,0-2.14-3.5,16.85,16.85,0,0,0-3.85-2.5.18.18,0,0,0-.22.28c1,1.23,1,3,1.47,4.45a4.28,4.28,0,0,0,1.19,1.92,8.85,8.85,0,0,0,1.92,1.2,9.18,9.18,0,0,1,1.38.83,3.7,3.7,0,0,1,.68.69.15.15,0,0,0,.14.08c-.05.34-.11.69-.17,1l.34.07q.11-.5.18-1a2.89,2.89,0,0,1,0-.29,2.18,2.18,0,0,0,.63-.07,5,5,0,0,0,3.07-2.55c.89-1.5,1.34-3.23,2.43-4.62C59.64,37,59.56,36.71,59.38,36.78Z"/><path class="cls-1" d="M62.26,42.21c-2.91.38-5.9,1-8.22,2.92a7.82,7.82,0,0,0-.92.9c0-.15.06-.29.08-.44l-.34-.07c-.07.35-.14.68-.22,1a6.86,6.86,0,0,1-.86-1.39A9.78,9.78,0,0,0,49,42.35a9.48,9.48,0,0,0-4.17-1.52c-.16,0-.22.2-.12.3a25.73,25.73,0,0,1,2.42,3.42,6.27,6.27,0,0,0,3.22,2.39,6,6,0,0,0,2.1.24c-.13.49-.26,1-.42,1.47-.26.78-.55,1.55-.88,2.3a8.38,8.38,0,0,0-6.49-6.34c-.15,0-.32.17-.17.29,1,.84,1.35,2.18,1.87,3.33a6.36,6.36,0,0,0,2.5,2.88,6.38,6.38,0,0,0,1.88.75,27.55,27.55,0,0,1-1.38,2.49l.29.19c.13-.2.26-.4.37-.6.4-.68.77-1.37,1.11-2.08a7.93,7.93,0,0,0,4.66-.61A16.54,16.54,0,0,0,59,48.61a7.18,7.18,0,0,1,1.92-1.31c.17-.07.08-.34-.08-.33a13,13,0,0,0-8.2,2.72,7.4,7.4,0,0,0-.88.89c.24-.6.46-1.2.66-1.82s.34-1.09.48-1.65A4.33,4.33,0,0,0,55,47.3a7.21,7.21,0,0,0,3.75-1.88,19.47,19.47,0,0,1,3.59-2.88C62.49,42.46,62.43,42.19,62.26,42.21Z"/><path class="cls-1" d="M58.4,53.33a13.06,13.06,0,0,0-3.15,2,5,5,0,0,1-3.25,1,7.65,7.65,0,0,1-2-.45c-.32-.11-.64-.24-1-.37h0c-.41.59-.84,1.17-1.3,1.73,2.07-1,4.5-.29,6.59.37a.18.18,0,0,1,0,.34l-2.11.49a20.12,20.12,0,0,1-2,.42A3.54,3.54,0,0,1,47.09,58a23.25,23.25,0,0,1-1.79,1.79,6.84,6.84,0,0,1-2.18,1.38c-.22.08-.31-.27-.1-.34a7.18,7.18,0,0,0,2.44-1.67,23.9,23.9,0,0,0,1.9-2c.44-.54.87-1.09,1.27-1.66a6.19,6.19,0,0,1-3.29-7.22.18.18,0,0,1,.3-.08,10.08,10.08,0,0,1,1.25,1.45A12.61,12.61,0,0,1,49,55l.39-.6.29.19c.29-.19.58-.37.88-.54a11.18,11.18,0,0,1,7.84-1A.18.18,0,0,1,58.4,53.33Z"/><polygon class="cls-1" points="45.78 8.39 47.43 11.37 45.78 14.5 44.2 11.35 45.78 8.39"/><polygon class="cls-1" points="93.36 36.23 95.01 39.21 93.36 42.34 91.78 39.19 93.36 36.23"/><path class="cls-1" d="M41.6,8.7a.88.88,0,0,0,0,1.76A.88.88,0,0,0,41.6,8.7Z"/><path class="cls-1" d="M45.38,3.86a.88.88,0,0,0,0,1.76A.88.88,0,0,0,45.38,3.86Z"/><path class="cls-1" d="M39.77,4.78a.88.88,0,0,0,0,1.76A.88.88,0,0,0,39.77,4.78Z"/><path class="cls-1" d="M94.49,44.61a.88.88,0,0,0,0,1.76A.88.88,0,0,0,94.49,44.61Z"/><path class="cls-1" d="M98.67,38.6a.88.88,0,0,0,0,1.76A.88.88,0,0,0,98.67,38.6Z"/><path class="cls-1" d="M97.88,43a.88.88,0,0,0,0,1.76A.88.88,0,0,0,97.88,43Z"/><path class="cls-1" d="M2.68,47.61a.89.89,0,0,0,0,1.77A.89.89,0,0,0,2.68,47.61Z"/><path class="cls-1" d="M5.81,44.35a.88.88,0,0,0,0,1.76A.88.88,0,0,0,5.81,44.35Z"/><path class="cls-1" d="M2.94,43.17a.88.88,0,0,0,0,1.76A.88.88,0,0,0,2.94,43.17Z"/></g></g></svg>