<svg xmlns="http://www.w3.org/2000/svg" viewBox="0 0 86.58 104.24"><defs><style>.cls-1{fill:#5d4f7d;}.cls-2{fill:#c4bd93;}</style></defs><g id="Layer_2" data-name="Layer 2"><g id="OBJECTS"><path class="cls-1" d="M73.68,72.37a11.51,11.51,0,0,0-7.59,3.19c-.19.18-.37.37-.55.56.15-.33.3-.66.43-1s.16-.38.23-.57a.3.3,0,0,0,.08-.08c.83-1.77,2.58-2.87,3.57-4.54a8.44,8.44,0,0,0,1-2.79,12.69,12.69,0,0,0,.06-2.89A9.9,9.9,0,0,1,71.12,61c.07-.24-.28-.37-.36-.13-.61,1.72-2.1,2.89-3.23,4.26a7,7,0,0,0-1.37,2.41,10.26,10.26,0,0,0-.37,3.07c0,.89.07,1.77.08,2.66v.1c0,.27,0,.55,0,.83a.13.13,0,0,0,0,.06c-.09.22-.17.45-.27.67-.27.67-.57,1.33-.89,2,0,0,0-.09,0-.13s0-.26.06-.36c.08-.77.15-1.56.17-2.34a9.39,9.39,0,0,0-.85-4.4,18.46,18.46,0,0,0-3-4,.2.2,0,0,0-.33.2c.59,1.66-.1,3.44-.18,5.12a4.63,4.63,0,0,0,.47,2.43,9.84,9.84,0,0,0,1.52,1.95,11.09,11.09,0,0,1,1.1,1.38,4.42,4.42,0,0,1,.43,1,.17.17,0,0,0,.11.13c-.18.33-.37.66-.56,1l.33.2c.19-.31.37-.64.56-1l.14-.27a2.4,2.4,0,0,0,.68.16,5.47,5.47,0,0,0,4.12-1.44c1.48-1.2,2.6-2.8,4.24-3.8C73.88,72.65,73.89,72.36,73.68,72.37Z"/><path class="cls-1" d="M74.56,79c-3.11-.72-6.42-1.22-9.53-.14a10.54,10.54,0,0,0-1.29.57c.09-.13.17-.27.26-.41l-.33-.2c-.2.32-.4.64-.61,1a7.36,7.36,0,0,1-.36-1.75A10.46,10.46,0,0,0,61,74.14,10.29,10.29,0,0,0,57.26,71c-.15-.08-.31.12-.24.26a28,28,0,0,1,1.18,4.42,6.76,6.76,0,0,0,2.39,3.68,6.48,6.48,0,0,0,2.06,1.05q-.48.69-1,1.35c-.56.7-1.15,1.37-1.77,2a9.22,9.22,0,0,0-2.35-7.4,9.45,9.45,0,0,0-1.89-1.57c-.15-.1-.4.06-.29.23.72,1.25.56,2.75.65,4.13a7,7,0,0,0,1.47,3.9,7,7,0,0,0,1.63,1.48,25.47,25.47,0,0,1-2.36,2l.23.3c.2-.15.41-.3.61-.47.67-.54,1.3-1.11,1.92-1.71a8.73,8.73,0,0,0,5,1.15,18.22,18.22,0,0,0,4.23-1.5,7.93,7.93,0,0,1,2.48-.62c.2,0,.21-.31,0-.37-3-1-6.37-1.47-9.43-.34a10.93,10.93,0,0,0-1.25.58c.48-.52.94-1,1.37-1.6s.77-1,1.13-1.51a4.67,4.67,0,0,0,2.12,1A7.85,7.85,0,0,0,69.76,81a21.39,21.39,0,0,1,4.77-1.59C74.71,79.38,74.75,79.07,74.56,79Z"/><path class="cls-1" d="M13,72.74c1.65,1,2.77,2.6,4.25,3.8A5.47,5.47,0,0,0,21.33,78a2.34,2.34,0,0,0,.67-.16l.15.27c.18.32.37.65.56,1l.33-.2c-.19-.33-.38-.66-.56-1a.18.18,0,0,0,.11-.13,4.42,4.42,0,0,1,.43-1,11.09,11.09,0,0,1,1.1-1.38,10.18,10.18,0,0,0,1.51-1.95A4.64,4.64,0,0,0,26.11,71c-.08-1.68-.78-3.46-.19-5.12a.19.19,0,0,0-.32-.2,18.14,18.14,0,0,0-3,4,9.39,9.39,0,0,0-.86,4.4c0,.78.1,1.57.18,2.34,0,.1,0,.23.06.36s0,.09,0,.13c-.32-.64-.62-1.3-.9-2-.09-.22-.18-.45-.26-.67a.13.13,0,0,0,0-.06c0-.28,0-.56,0-.83v-.1c0-.89.08-1.77.09-2.66a10.26,10.26,0,0,0-.38-3.07,7.19,7.19,0,0,0-1.36-2.41C18,63.8,16.55,62.63,16,60.91c-.08-.24-.43-.11-.36.13a9.89,9.89,0,0,1,.18,3.21,12.69,12.69,0,0,0,.07,2.89,8.23,8.23,0,0,0,1,2.79c1,1.67,2.74,2.77,3.56,4.54a.24.24,0,0,0,.09.08c.07.19.14.38.22.57s.28.67.43,1c-.17-.19-.35-.38-.54-.56A11.53,11.53,0,0,0,13,72.37C12.81,72.36,12.82,72.65,13,72.74Z"/><path class="cls-1" d="M12.18,79.4A21.39,21.39,0,0,1,17,81a7.84,7.84,0,0,0,4.56.49,4.67,4.67,0,0,0,2.12-1c.36.51.73,1,1.12,1.51s.9,1.08,1.37,1.6A10.78,10.78,0,0,0,24.88,83c-3.06-1.13-6.4-.66-9.44.34-.17.06-.16.36,0,.37a7.8,7.8,0,0,1,2.47.62,18.46,18.46,0,0,0,4.24,1.5,8.75,8.75,0,0,0,5-1.15q.91.9,1.92,1.71c.2.17.4.32.61.47l.23-.3a27,27,0,0,1-2.37-2,6.8,6.8,0,0,0,1.64-1.48,6.94,6.94,0,0,0,1.2-2.34,6.8,6.8,0,0,0,.27-1.56c.09-1.38-.08-2.88.65-4.13.1-.17-.14-.33-.29-.23a9.19,9.19,0,0,0-4.24,9c-.62-.65-1.21-1.32-1.77-2q-.53-.66-1-1.35a6.48,6.48,0,0,0,2.06-1.05,6.87,6.87,0,0,0,2.39-3.68,28,28,0,0,1,1.18-4.42c.06-.14-.09-.34-.25-.26a10.26,10.26,0,0,0-3.68,3.15A10.48,10.48,0,0,0,24,78.05a7.34,7.34,0,0,1-.35,1.75c-.21-.31-.41-.63-.61-1l-.33.2.25.41a9.34,9.34,0,0,0-1.29-.57c-3.1-1.08-6.41-.58-9.53.14C12,79.07,12,79.38,12.18,79.4Z"/><path class="cls-2" d="M53.41,85.32l-.12.11a14.61,14.61,0,0,0-2.42,2.07,25.06,25.06,0,0,0-1.61,3.19,5.85,5.85,0,0,1-1.5,1.74,6.48,6.48,0,0,1-3.9,1.42v0a6.41,6.41,0,0,1-5-1.33,6,6,0,0,1-1.5-1.74,23.81,23.81,0,0,0-1.61-3.19,15.61,15.61,0,0,0-2.42-2.08l-.12-.1.11-.13a3.87,3.87,0,0,1,.6-1.47,1.4,1.4,0,0,1,1.39-.6,2.12,2.12,0,0,1,1,.76c.57.66,1.14,1.31,1.7,2s1.15,1.22,1.92,1.11A1.46,1.46,0,0,0,41,85.89a2.73,2.73,0,0,0-.32-1.7,11,11,0,0,0-2.53-3A15.89,15.89,0,0,1,37,79.93h0a2.54,2.54,0,0,1,.1-1.44,3.6,3.6,0,0,1,1.26-1.77A3.2,3.2,0,0,1,41,76.32a4.41,4.41,0,0,1,2.23,1.57A5.06,5.06,0,0,1,45.6,76.2a3.13,3.13,0,0,1,2.65.38,3.52,3.52,0,0,1,1.26,1.77,2.49,2.49,0,0,1,.11,1.45,14.28,14.28,0,0,1-1.21,1.26,11,11,0,0,0-2.53,3,2.74,2.74,0,0,0-.32,1.7A1.45,1.45,0,0,0,46.69,87c.76.12,1.41-.52,1.92-1.1s1.13-1.32,1.7-2a2.09,2.09,0,0,1,1-.77,1.44,1.44,0,0,1,1.39.6,4.27,4.27,0,0,1,.6,1.48Z"/><path class="cls-2" d="M48,98.89A3.67,3.67,0,0,1,45.62,102l-.13-.07a5.21,5.21,0,0,1-.78,1.08,7.34,7.34,0,0,1-1.52,1.25,7.45,7.45,0,0,1-1.32-1.12,5.28,5.28,0,0,1-.78-1.09l-.13.08A3.68,3.68,0,0,1,38.58,99a15.79,15.79,0,0,1,.21-4.11,9.72,9.72,0,0,0,0-2.35,6.41,6.41,0,0,0,5,1.33v0a6.48,6.48,0,0,0,3.9-1.42,9.73,9.73,0,0,0,0,2.35A15.79,15.79,0,0,1,48,98.89Z"/><path class="cls-2" d="M41,85.89a1.46,1.46,0,0,1-1.13,1.2c-.77.11-1.41-.53-1.92-1.11s-1.13-1.31-1.7-2a2.12,2.12,0,0,0-1-.76,1.4,1.4,0,0,0-1.39.6,3.87,3.87,0,0,0-.6,1.47l-.11.13A12.06,12.06,0,0,1,29.58,79a35.62,35.62,0,0,1-.64-7.65c0-.72,0-1.43,0-2.15A8.81,8.81,0,0,1,26,65a13.43,13.43,0,0,1-.05-5.82A10.7,10.7,0,0,1,14.3,53.48a23,23,0,0,1-1.64-5.56,19.06,19.06,0,0,0-1.78-5.5A6.71,6.71,0,0,0,6.44,39a17.71,17.71,0,0,1,7.76-.65,11.15,11.15,0,0,1,3.31.91A16.23,16.23,0,0,1,22,42.75c1,1,2,2,3,3.06a7.25,7.25,0,0,0,2.3,1.83,4.66,4.66,0,0,0,3.48-.12,7.07,7.07,0,0,0,.83-.4,13.15,13.15,0,0,0,2.13-1.57,10.52,10.52,0,0,1,2.66-1.9,4.84,4.84,0,0,1,2.82-.25,18,18,0,0,0-1.93,3.38,6.45,6.45,0,0,0-.4,4c.69,2.64,3.52,4.46,3.73,7.19.12,1.69-.83,3.26-1.67,4.73-2.35,4.08-4.19,8.74-3.56,13.4a8,8,0,0,0,.83,2.75A7.33,7.33,0,0,0,37,79.92h0a15.89,15.89,0,0,0,1.21,1.26,11,11,0,0,1,2.53,3A2.73,2.73,0,0,1,41,85.89Z"/><path class="cls-2" d="M80.14,38.83a6.7,6.7,0,0,0-4.43,3.46,18.84,18.84,0,0,0-1.79,5.51,22.69,22.69,0,0,1-1.65,5.56A10.66,10.66,0,0,1,60.65,59a13.43,13.43,0,0,1-.06,5.82,8.72,8.72,0,0,1-2.94,4.22c0,.71,0,1.43,0,2.15A35.53,35.53,0,0,1,57,78.86a12,12,0,0,1-3.59,6.46l-.11-.12a4.27,4.27,0,0,0-.6-1.48,1.44,1.44,0,0,0-1.39-.6,2.09,2.09,0,0,0-1,.77c-.57.65-1.14,1.31-1.7,2s-1.16,1.22-1.92,1.1a1.45,1.45,0,0,1-1.13-1.2,2.74,2.74,0,0,1,.32-1.7,11,11,0,0,1,2.53-3,14.28,14.28,0,0,0,1.21-1.26,6.92,6.92,0,0,0,.77-1.09A7.91,7.91,0,0,0,51.22,76c.63-4.66-1.21-9.32-3.56-13.4-.85-1.47-1.79-3-1.67-4.73.2-2.72,3-4.55,3.73-7.19a6.47,6.47,0,0,0-.4-4,18,18,0,0,0-1.93-3.38,4.93,4.93,0,0,1,2.82.26,10.24,10.24,0,0,1,2.66,1.89A12.58,12.58,0,0,0,55,47a6.21,6.21,0,0,0,.82.4,4.64,4.64,0,0,0,3.49.12,7.25,7.25,0,0,0,2.3-1.83q1.47-1.55,3-3.06a16.15,16.15,0,0,1,4.47-3.52,11.63,11.63,0,0,1,3.32-.92A18,18,0,0,1,80.14,38.83Z"/><path class="cls-1" d="M47.39,43.28a4.45,4.45,0,0,0-1.11.34C48,32.88,50.87,22.16,56.82,13.08a27.7,27.7,0,0,1,6-6.86A14.52,14.52,0,0,1,71.3,3,13.68,13.68,0,0,1,81,7.23a20.28,20.28,0,0,1,5,9.53c.58,2.37.82,5-.21,7.2A19.4,19.4,0,0,0,81.1,12.64C79.76,11.13,78,9.76,76,9.72c-2.18,0-4.07,1.47-5.57,3a50.19,50.19,0,0,0-7.56,11.36C59.09,31.3,55.85,38.91,55,47v0a12.58,12.58,0,0,1-2.13-1.57,10.52,10.52,0,0,0-2.66-1.9A4.93,4.93,0,0,0,47.39,43.28Z"/><path class="cls-1" d="M63.29,55.6a10.62,10.62,0,0,1-2.87.19,10.67,10.67,0,0,0,4-4c1.6-2.86,2-6.54,4.5-8.6a11.74,11.74,0,0,1,4.82-1.94,19.75,19.75,0,0,0-1.77,2.59,34.57,34.57,0,0,0-2,5.94c-.64,2-1.68,4-3.51,5A7.39,7.39,0,0,1,63.29,55.6Z"/><path class="cls-1" d="M59.56,59.7c-.47-.07-.93-.12-1.4-.15a2,2,0,0,1-.24,1.36,3.17,3.17,0,0,1-2.29,1.7,2.52,2.52,0,0,1-2.51-1.19,2.38,2.38,0,0,0-.62.52A6,6,0,0,1,54,59.43a3.75,3.75,0,0,1,2.88-1.06A5.06,5.06,0,0,1,59.56,59.7Z"/><path class="cls-1" d="M40.3,43.74l.24.11a6.59,6.59,0,0,1,2.72,2.59A6.52,6.52,0,0,1,46,43.72l.24-.1a4.45,4.45,0,0,1,1.11-.34,17.91,17.91,0,0,1,1.93,3.37,6.47,6.47,0,0,1,.4,4C49,53.28,46.19,55.11,46,57.83c-.12,1.7.83,3.26,1.67,4.73C50,66.64,51.85,71.3,51.22,76a7.91,7.91,0,0,1-.83,2.75,6.92,6.92,0,0,1-.77,1.09,2.49,2.49,0,0,0-.11-1.45,3.52,3.52,0,0,0-1.26-1.77,3.13,3.13,0,0,0-2.65-.38,5.06,5.06,0,0,0-2.39,1.69A4.41,4.41,0,0,0,41,76.32a3.2,3.2,0,0,0-2.66.39,3.52,3.52,0,0,0-1.25,1.77A2.46,2.46,0,0,0,37,79.92a6.83,6.83,0,0,1-.77-1.08,8,8,0,0,1-.83-2.75c-.63-4.66,1.21-9.32,3.56-13.4.84-1.47,1.79-3,1.67-4.73-.21-2.73-3-4.55-3.73-7.19a6.45,6.45,0,0,1,.4-4,18,18,0,0,1,1.93-3.38A5.47,5.47,0,0,1,40.3,43.74Z"/><path class="cls-1" d="M48.48,78.85a1.17,1.17,0,0,1,0,1,2.36,2.36,0,0,1-.9,1.08,7.16,7.16,0,0,1-1.33.66,7.79,7.79,0,0,0-3,2,7.48,7.48,0,0,0-3-1.89,5.6,5.6,0,0,1-1.47-.78,2.16,2.16,0,0,1-.76-1,1.14,1.14,0,0,1,0-1,1.12,1.12,0,0,1,.9-.55,2.2,2.2,0,0,1,1.06.22c1.32.57,3,1.7,3.31,3.09a5.49,5.49,0,0,1,3.15-3.22,2.3,2.3,0,0,1,1.06-.22A1.14,1.14,0,0,1,48.48,78.85Z"/><path class="cls-1" d="M39.19,43.4a4.84,4.84,0,0,0-2.82.25,10.52,10.52,0,0,0-2.66,1.9,12.58,12.58,0,0,1-2.13,1.57l0,0c-.83-8.05-4.07-15.66-7.83-22.84A50.24,50.24,0,0,0,16.17,12.9c-1.5-1.58-3.39-3.09-5.57-3.05-2,0-3.78,1.4-5.12,2.92A19.4,19.4,0,0,0,.71,24.08c-1-2.22-.79-4.82-.21-7.2a20.23,20.23,0,0,1,5-9.52,13.72,13.72,0,0,1,9.74-4.22,14.45,14.45,0,0,1,8.44,3.21,27.52,27.52,0,0,1,6,6.86C35.71,22.28,38.63,33,40.3,43.74A5.47,5.47,0,0,0,39.19,43.4Z"/><path class="cls-1" d="M34.08,62.07a2.89,2.89,0,0,0-.62-.53A2.5,2.5,0,0,1,31,62.73,3.14,3.14,0,0,1,28.66,61a2,2,0,0,1-.24-1.37c-.47,0-.93.09-1.4.16a5,5,0,0,1,2.67-1.33,3.75,3.75,0,0,1,2.88,1.06A5.92,5.92,0,0,1,34.08,62.07Z"/><path class="cls-1" d="M23.29,55.73a7.4,7.4,0,0,1-3.14-.82c-1.84-1-2.87-3-3.51-5a35,35,0,0,0-2-6,20,20,0,0,0-1.77-2.58,11.72,11.72,0,0,1,4.82,1.93c2.54,2.06,2.9,5.75,4.5,8.6a10.69,10.69,0,0,0,4,4A11,11,0,0,1,23.29,55.73Z"/><path class="cls-1" d="M41.14,84.67a18.42,18.42,0,0,0-2.63-2.44,4.07,4.07,0,0,1-1.67-3.45c0-.25-.34-.35-.37-.11a3.86,3.86,0,0,0,1,3,28.21,28.21,0,0,0,2.68,2.44,3.65,3.65,0,0,1,1,1.37A1.3,1.3,0,0,1,40.81,87c-.92.67-2.11-.06-3-.44s-2.23-.62-2.9.35c-.14.21.19.4.33.2a1.42,1.42,0,0,1,1.31-.52,4.59,4.59,0,0,1,1.61.55,2.89,2.89,0,0,0,2.8.21A1.85,1.85,0,0,0,41.14,84.67Z"/><path class="cls-1" d="M41.76,95.34a11.29,11.29,0,0,0-.83,6.78c0,.25.41.14.37-.1a10.89,10.89,0,0,1,.79-6.49C42.2,95.31,41.86,95.11,41.76,95.34Z"/><path class="cls-1" d="M27.58,55.35a11.69,11.69,0,0,0-2.26,7.49,11.24,11.24,0,0,0,.34,2.23A.19.19,0,0,0,26,65a11.27,11.27,0,0,1,1.88-9.42C28.06,55.35,27.73,55.15,27.58,55.35Z"/><path class="cls-2" d="M2.22,18A.2.2,0,0,0,2,17.76H2L.63,16.46c-.19-.17-.46.1-.28.27L1.9,18.18a.2.2,0,0,0,.22,0,.18.18,0,0,0,.11-.17Z"/><path class="cls-2" d="M4.17,14.69A.21.21,0,0,0,4,14.5l-1.58-2a.19.19,0,0,0-.27.27L3.85,15c.1.13.34,0,.33-.14Z"/><path class="cls-2" d="M6.7,11.1C6.1,10,5.49,8.92,4.88,7.84A.19.19,0,0,0,4.55,8c.6,1.09,1.21,2.18,1.82,3.26A.19.19,0,0,0,6.7,11.1Z"/><path class="cls-2" d="M9.82,4.62a.19.19,0,0,0-.38,0A36.2,36.2,0,0,0,10,10c0,.25.42.14.37-.1A36.2,36.2,0,0,1,9.82,4.62Z"/><path class="cls-2" d="M15.8,2.85c-.79,2.61-1.57,5.21-2.35,7.82a.19.19,0,0,0,.37.1C14.6,8.16,15.38,5.56,16.17,3A.19.19,0,0,0,15.8,2.85Z"/><path class="cls-2" d="M22.7,5.57l-5.86,8.21c-.14.2.19.39.34.19L23,5.76C23.18,5.56,22.85,5.36,22.7,5.57Z"/><path class="cls-2" d="M28,11,20,18.28c-.18.17.09.44.27.28l8-7.27C28.43,11.13,28.16,10.86,28,11Z"/><path class="cls-2" d="M32.11,17.6l-9,5.46c-.21.13,0,.46.19.33l9-5.46A.19.19,0,0,0,32.11,17.6Z"/><path class="cls-2" d="M35.45,25.13,26.33,29.8c-.22.11,0,.45.19.33l9.13-4.67C35.87,25.35,35.67,25,35.45,25.13Z"/><path class="cls-2" d="M37.39,32,29,35.86c-.22.1,0,.44.2.33l8.4-3.91C37.81,32.18,37.61,31.84,37.39,32Z"/><path class="cls-2" d="M39.56,40.45l-8.84,2.41a.19.19,0,0,0,.11.37l8.83-2.41A.19.19,0,0,0,39.56,40.45Z"/><path class="cls-1" d="M45.41,84.66A18.42,18.42,0,0,1,48,82.22a4.07,4.07,0,0,0,1.67-3.45c0-.25.34-.35.38-.11a3.9,3.9,0,0,1-1,3,25.77,25.77,0,0,1-2.68,2.43,3.77,3.77,0,0,0-1,1.38A1.3,1.3,0,0,0,45.74,87c.92.67,2.11-.06,3-.44s2.23-.62,2.9.35c.15.21-.19.4-.33.2A1.42,1.42,0,0,0,50,86.56a4.66,4.66,0,0,0-1.61.55,2.89,2.89,0,0,1-2.8.21A1.85,1.85,0,0,1,45.41,84.66Z"/><path class="cls-1" d="M44.79,95.33a11.29,11.29,0,0,1,.83,6.78c0,.25-.41.14-.37-.1a10.89,10.89,0,0,0-.79-6.49C44.36,95.3,44.69,95.1,44.79,95.33Z"/><path class="cls-1" d="M59,55.34a11.69,11.69,0,0,1,2.26,7.49,12,12,0,0,1-.33,2.23.2.2,0,0,1-.38-.1,11.27,11.27,0,0,0-1.88-9.42C58.49,55.34,58.82,55.14,59,55.34Z"/><path class="cls-2" d="M84.33,17.94a.2.2,0,0,1,.19-.19h0l1.4-1.3c.18-.17.45.1.27.27l-1.55,1.45a.2.2,0,0,1-.21,0,.18.18,0,0,1-.12-.17Z"/><path class="cls-2" d="M82.38,14.67a.21.21,0,0,1,.22-.18l1.58-2a.19.19,0,0,1,.27.27c-.58.73-1.16,1.47-1.75,2.2-.1.13-.34,0-.33-.14Z"/><path class="cls-2" d="M79.85,11.09l1.82-3.26A.19.19,0,0,1,82,8c-.6,1.09-1.21,2.18-1.82,3.26A.19.19,0,0,1,79.85,11.09Z"/><path class="cls-2" d="M76.73,4.61a.19.19,0,0,1,.38,0,36.2,36.2,0,0,1-.55,5.4c0,.25-.41.14-.37-.1A36.2,36.2,0,0,0,76.73,4.61Z"/><path class="cls-2" d="M70.75,2.84q1.19,3.9,2.35,7.82a.19.19,0,0,1-.37.1C72,8.15,71.17,5.55,70.38,2.94A.19.19,0,0,1,70.75,2.84Z"/><path class="cls-2" d="M63.85,5.55l5.86,8.22c.14.2-.19.39-.34.19L63.51,5.75C63.37,5.55,63.7,5.35,63.85,5.55Z"/><path class="cls-2" d="M58.57,11l7.95,7.26c.19.17-.09.44-.27.28l-8-7.27C58.12,11.12,58.39,10.84,58.57,11Z"/><path class="cls-2" d="M54.44,17.59l9,5.46c.21.13,0,.46-.19.33l-9-5.46A.19.19,0,0,1,54.44,17.59Z"/><path class="cls-2" d="M51.1,25.12l9.12,4.67c.22.11,0,.45-.19.33l-9.12-4.67C50.68,25.34,50.88,25,51.1,25.12Z"/><path class="cls-2" d="M49.16,31.94l8.41,3.91c.22.1,0,.44-.2.33L49,32.27C48.74,32.17,48.94,31.83,49.16,31.94Z"/><path class="cls-2" d="M47,40.44l8.84,2.41a.19.19,0,0,1-.11.37l-8.83-2.41A.19.19,0,0,1,47,40.44Z"/><path class="cls-1" d="M47.78,92.21a8.43,8.43,0,0,1-8.85.33c-.21-.12-.41.21-.19.33A8.81,8.81,0,0,0,48,92.54C48.18,92.4,48,92.07,47.78,92.21Z"/><path class="cls-1" d="M49.43,10.21a7.1,7.1,0,0,1-1,1.64,7.28,7.28,0,0,1-11.07.39c-.1-.12-.21-.23-.3-.35a7.14,7.14,0,0,1-1-1.64A7.33,7.33,0,0,1,35.45,7a7.63,7.63,0,0,1,.23-1.57,7.3,7.3,0,0,1,14.13.05A7,7,0,0,1,50,7,7.22,7.22,0,0,1,49.43,10.21Z"/><path class="cls-2" d="M56.73,8.59c0,2-4.4,2.88-8.29,3.26-2.95.29-5.61.3-5.86.3s-2.71,0-5.51-.26c-4-.37-8.65-1.24-8.65-3.3,0-1.83,3.66-2.72,7.26-3.16A7.63,7.63,0,0,0,35.45,7c-3.24.44-5.14,1.11-5.47,1.59.35.5,2.47,1.23,6.09,1.66a54.44,54.44,0,0,0,6.51.36,54.24,54.24,0,0,0,6.85-.4c3.41-.43,5.4-1.14,5.74-1.62C54.85,8.13,53.08,7.48,50,7a7,7,0,0,0-.22-1.56C53.3,5.93,56.73,6.82,56.73,8.59Z"/><circle class="cls-2" cx="42.74" cy="32.67" r="2.78"/><polygon class="cls-1" points="44.9 22.45 46.01 24.77 43.69 23.66 42.83 27.86 41.96 23.66 39.64 24.77 40.74 22.45 36.55 21.59 40.74 20.73 39.64 18.4 41.96 19.51 42.83 15.31 43.69 19.51 46.01 18.4 44.9 20.73 49.1 21.59 44.9 22.45"/><polygon class="cls-1" points="18.98 30.01 20.66 33.05 18.98 36.24 17.36 33.03 18.98 30.01"/><path class="cls-1" d="M15.07,32.23a.9.9,0,0,0,0,1.8A.9.9,0,0,0,15.07,32.23Z"/><path class="cls-1" d="M19.14,25.13a.9.9,0,0,0,0,1.79A.9.9,0,0,0,19.14,25.13Z"/><path class="cls-1" d="M15.07,26.57a.9.9,0,0,0,0,1.8A.9.9,0,0,0,15.07,26.57Z"/><polygon class="cls-1" points="74.78 16.17 76.47 19.21 74.78 22.4 73.17 19.18 74.78 16.17"/><path class="cls-1" d="M71.92,21.74a.9.9,0,0,0,0,1.8A.9.9,0,0,0,71.92,21.74Z"/><path class="cls-1" d="M72.08,14.64a.9.9,0,0,0,0,1.8A.9.9,0,0,0,72.08,14.64Z"/><path class="cls-1" d="M79,17.88a.9.9,0,0,0,0,1.8A.9.9,0,0,0,79,17.88Z"/></g></g></svg>