<svg width="379" height="93" viewBox="0 0 379 93" fill="none" xmlns="http://www.w3.org/2000/svg">
<path d="M171.234 20.3084V47.9708H162.645V44.5201H154.112V47.7445H131V17.6496H139.702V23.9288H145.41V17.6496H149.704C150.948 17.6496 152.002 18.0833 152.869 18.9507C153.698 19.8558 154.112 20.8929 154.112 22.062V23.4197H162.645V20.3084H171.234ZM147.896 93V71.8431C147.896 70.6362 148.311 69.618 149.139 68.7883C150.006 67.9209 151.042 67.4872 152.247 67.4872H159.989C161.458 67.4872 162.193 66.7707 162.193 65.3376V61.604C162.193 60.1332 161.458 59.3978 159.989 59.3978H147.896V50.6861H170.895V76.1989H158.746C157.314 76.1989 156.599 76.9343 156.599 78.4051V82.1387C156.599 83.5718 157.314 84.2883 158.746 84.2883H170.895V93H147.896ZM145.41 32.6971H139.702V38.9763H145.41V32.6971ZM162.645 32.0748H154.112V35.865H162.645V32.0748Z" fill="white"/>
<path d="M177.048 21.4398C177.839 20.6101 178.856 20.1953 180.099 20.1953H198.917V47.8577H175.805V24.4945C175.805 23.25 176.219 22.2318 177.048 21.4398ZM220.673 38.5237H214.344V47.8577H205.698V20.1953H214.344V29.8686H220.673V38.5237ZM184.394 37.1095C184.394 38.5426 185.11 39.2591 186.541 39.2591H190.214V28.7938H186.541C185.11 28.7938 184.394 29.5103 184.394 30.9434V37.1095Z" fill="white"/>
<path d="M224.741 42.2573V21.1569C224.741 19.9124 225.156 18.8753 225.984 18.0456C226.813 17.2159 227.849 16.8011 229.092 16.8011H230.053L230.11 16.7445H244.011C245.48 16.7445 246.215 16.028 246.215 14.5949V10.8613C246.215 9.42822 245.48 8.71168 244.011 8.71168H224.741V0H254.917V25.5128H235.591C234.159 25.5128 233.444 26.2293 233.444 27.6624V31.396C233.444 32.8668 234.159 33.6022 235.591 33.6022H254.917V42.2573H224.741ZM224.798 55.4945V46.8394H254.691V55.4945H243.898V64.0365H235.252V55.4945H224.798Z" fill="white"/>
<path d="M285.047 20.2518V37.958C285.047 39.2025 284.632 40.2397 283.804 41.0693C282.975 41.899 281.958 42.3139 280.752 42.3139H276.457V31.1131C276.457 29.6423 275.723 28.9069 274.254 28.9069H260.183V20.2518H285.047ZM285.216 46.9525V55.6077H259.844V46.9525H264.93V38.4106H273.576V46.9525H285.216ZM304.938 38.5237H298.609V55.7774H289.963V20.1953H298.609V29.8686H304.938V38.5237ZM273.745 80.6113V62.9051C273.745 61.6606 274.159 60.6235 274.988 59.7938C275.817 58.9641 276.834 58.5493 278.04 58.5493H282.334V69.75C282.334 71.2208 283.069 71.9562 284.538 71.9562H298.609V80.6113H273.745Z" fill="white"/>
<path d="M309.727 55.4945V46.8394H339.62V55.4945H309.727ZM342.615 38.6369L334.534 44.0109L330.748 37.7883L324.815 28.0018L318.881 37.7883L315.152 44.0109L310.913 41.8047C310.348 41.4653 309.821 41.1448 309.331 40.8431C308.841 40.5414 308.502 40.1077 308.314 39.542C307.9 38.4483 308.069 37.2792 308.823 36.0347L309.953 34.1679L314.756 26.3047L315.491 25.0602L315.547 25.0036H308.71V16.3485H320.463V11.9361H329.109V16.3485H340.92V25.0036H334.139V25.0602L334.93 26.3047L339.676 34.1679L342.615 38.6369ZM339.111 58.5493V76.2555C339.111 77.5 338.697 78.5371 337.868 79.3668C337.039 80.1965 336.022 80.6113 334.817 80.6113H330.522V69.4106C330.522 67.9398 329.787 67.2044 328.318 67.2044H309.444V58.5493H339.111Z" fill="white"/>
<path d="M379 37.5055L370.919 42.9361L367.133 36.7135L361.2 26.927L355.266 36.7135L351.537 42.9361L347.298 40.6734C346.696 40.3717 346.149 40.07 345.66 39.7682C345.208 39.4288 344.887 38.9951 344.699 38.4672C344.322 37.3735 344.492 36.2044 345.208 34.9599L346.338 33.0931L351.141 25.2299L351.876 23.9854L357.188 15.2737H365.268L370.524 23.9854L371.315 25.2299L376.062 33.0931L379 37.5055ZM376.062 46.896V55.5511H346.168V46.896H356.962V38.354H365.607V46.896H376.062Z" fill="white"/>
<path d="M13.6248 44.1554C14.0885 42.8636 16.2209 42.8636 16.6846 44.1554L19.1195 50.9387C19.3263 51.5146 19.9468 51.9076 20.6494 51.9076H28.7056C30.2352 51.9076 30.8935 53.5712 29.6797 54.3695L23.0159 58.7519C22.4849 59.1011 22.2633 59.6966 22.4601 60.245L24.9699 67.2369C25.4286 68.5147 23.7031 69.5436 22.4659 68.73L16.1288 64.5624C15.5542 64.1845 14.7552 64.1845 14.1806 64.5624L7.84351 68.73C6.60632 69.5436 4.88082 68.5147 5.33951 67.2369L7.84932 60.245C8.04616 59.6966 7.8245 59.1011 7.29356 58.7519L0.629727 54.3695C-0.584054 53.5712 0.0742195 51.9076 1.60384 51.9076H9.66C10.3627 51.9076 10.9832 51.5146 11.1899 50.9387L13.6248 44.1554Z" fill="white"/>
<path d="M55.2121 22.6465C56.0966 20.1933 60.1528 20.1933 61.0373 22.6465L66.13 36.7708C66.5244 37.8646 67.7055 38.6107 69.0426 38.6107H85.8424C88.7573 38.6107 90.0096 41.7772 87.6942 43.2931L73.8384 52.3648C72.8244 53.0287 72.401 54.1632 72.7775 55.2074L78.0058 69.7076C78.8812 72.1356 75.5991 74.0938 73.2414 72.5502L59.9765 63.8653C58.8834 63.1497 57.3659 63.1497 56.2729 63.8653L43.008 72.5502C40.6503 74.0938 37.3682 72.1356 38.2436 69.7076L43.4719 55.2074C43.8484 54.1632 43.425 53.0287 42.411 52.3648L28.5552 43.2931C26.2398 41.7772 27.4921 38.6107 30.407 38.6107H47.2067C48.5439 38.6107 49.725 37.8646 50.1194 36.7708L55.2121 22.6465Z" fill="white"/>
<path d="M20.6201 76.656C21.0829 75.3627 23.2179 75.3627 23.6807 76.656L24.5719 79.1464C24.7782 79.7229 25.399 80.1164 26.1022 80.1164H29.1723C30.7007 80.1164 31.3597 81.7779 30.1483 82.577L27.5101 84.3174C26.9808 84.6666 26.7599 85.2607 26.9558 85.8081L27.9259 88.519C28.3834 89.7976 26.6558 90.8252 25.4196 90.0097L23.1264 88.497C22.551 88.1174 21.7498 88.1174 21.1744 88.497L18.8812 90.0097C17.6451 90.8252 15.9174 89.7976 16.3749 88.519L17.345 85.8081C17.5409 85.2607 17.32 84.6666 16.7908 84.3174L14.1526 82.577C12.9411 81.7779 13.6001 80.1164 15.1286 80.1164H18.1986C18.9018 80.1164 19.5227 79.7229 19.7289 79.1464L20.6201 76.656Z" fill="white"/>
<path d="M55.511 73.8838C55.9755 72.5934 58.1055 72.5934 58.57 73.8838L60.1063 78.1518C60.3134 78.7271 60.9336 79.1196 61.6358 79.1196H66.7751C68.3058 79.1196 68.9634 80.7852 67.7475 81.5826L63.4508 84.4004C62.9184 84.7496 62.696 85.3464 62.8937 85.8956L64.5012 90.3613C64.9609 91.6385 63.2374 92.6685 61.9993 91.8565L58.0129 89.2422C57.439 88.8658 56.6421 88.8658 56.0681 89.2422L52.0818 91.8565C50.8437 92.6685 49.1201 91.6385 49.5798 90.3613L51.1873 85.8956C51.385 85.3464 51.1627 84.7496 50.6302 84.4004L46.3336 81.5826C45.1177 80.7852 45.7753 79.1196 47.306 79.1196H52.4452C53.1474 79.1196 53.7676 78.7271 53.9747 78.1518L55.511 73.8838Z" fill="white"/>
<path fill-rule="evenodd" clip-rule="evenodd" d="M31.8463 35.5122C30.8044 34.6188 30.8044 33.1703 31.8463 32.2768L43.5849 22.2106C44.6268 21.3172 46.316 21.3172 47.3578 22.2106C48.3997 23.104 48.3997 24.5526 47.3578 25.446L35.6192 35.5122C34.5774 36.4057 32.8882 36.4057 31.8463 35.5122Z" fill="white"/>
<path fill-rule="evenodd" clip-rule="evenodd" d="M75.1626 33.2246C74.1207 32.3312 74.1207 30.8827 75.1626 29.9892L90.6362 16.7201C91.6781 15.8267 93.3673 15.8267 94.4091 16.7201C95.451 17.6135 95.451 19.0621 94.4091 19.9555L78.9355 33.2246C77.8937 34.1181 76.2045 34.1181 75.1626 33.2246Z" fill="white"/>
<path fill-rule="evenodd" clip-rule="evenodd" d="M83.6993 64.7959C82.6575 63.9025 82.6575 62.454 83.6993 61.5605L90.1022 56.0698C91.1441 55.1764 92.8333 55.1764 93.8751 56.0698C94.917 56.9633 94.917 58.4118 93.8751 59.3053L87.4723 64.7959C86.4304 65.6894 84.7412 65.6894 83.6993 64.7959Z" fill="white"/>
<path fill-rule="evenodd" clip-rule="evenodd" d="M55.42 15.4629C54.3782 14.5695 54.3782 13.1209 55.42 12.2275L61.8229 6.73684C62.8648 5.8434 64.554 5.8434 65.5958 6.73684C66.6377 7.63027 66.6377 9.07881 65.5958 9.97225L59.193 15.4629C58.1511 16.3564 56.4619 16.3564 55.42 15.4629Z" fill="white"/>
<path fill-rule="evenodd" clip-rule="evenodd" d="M98.7368 13.1753C97.6949 12.2819 97.6949 10.8333 98.7368 9.93991L101.938 7.19457C102.98 6.30114 104.669 6.30114 105.711 7.19457C106.753 8.08801 106.753 9.53655 105.711 10.43L102.51 13.1753C101.468 14.0688 99.7787 14.0688 98.7368 13.1753Z" fill="white"/>
<path fill-rule="evenodd" clip-rule="evenodd" d="M98.1059 52.5249C97.0641 51.6315 97.0641 50.183 98.1059 49.2895L101.307 46.5442C102.349 45.6508 104.038 45.6508 105.08 46.5442C106.122 47.4376 106.122 48.8862 105.08 49.7796L101.879 52.5249C100.837 53.4184 99.1478 53.4184 98.1059 52.5249Z" fill="white"/>
</svg>
