<svg width="98" height="88" viewBox="0 0 98 88" fill="none" xmlns="http://www.w3.org/2000/svg">
<path d="M21.4517 15.3847L16.4379 17.9965C12.4027 20.0984 10.3852 21.1493 9.27597 22.8977C8.16675 24.6461 8.16675 26.7752 8.16675 31.0335V60.9704C8.16675 66.5655 8.16675 69.363 9.56432 70.92C10.4943 71.956 11.7975 72.6525 13.2382 72.8834C15.4035 73.2303 18.0545 71.8494 23.3562 69.0877C26.9564 67.2123 30.4214 65.2646 34.7283 65.7928C36.6874 66.033 38.5562 66.8674 42.2936 68.5361L57.867 75.4895C61.2355 76.9935 61.2663 77 65.0123 77H73.5001C81.1997 77 85.0495 77 87.4415 74.8047C89.8334 72.6094 89.8334 69.0761 89.8334 62.0095V37.2954C89.8334 30.2288 89.8334 26.6955 87.4415 24.5002C85.0495 22.3049 81.1997 22.3049 73.5001 22.3049H65.0123C61.2663 22.3049 61.2355 22.2984 57.867 20.7944L44.2629 14.7203C38.5828 12.1842 35.7428 10.9162 32.7173 11.0043C29.6918 11.0924 26.9451 12.5232 21.4517 15.3847Z" stroke="#333333" stroke-width="3" stroke-linecap="round" stroke-linejoin="round"/>
<path d="M32.6667 11L32.6667 64.1667" stroke="#333333" stroke-width="3" stroke-linecap="round" stroke-linejoin="round"/>
<path d="M61.25 23.833L61.25 75.1663" stroke="#333333" stroke-width="3" stroke-linecap="round" stroke-linejoin="round"/>
</svg>
