<svg width="88" height="88" viewBox="0 0 88 88" fill="none" xmlns="http://www.w3.org/2000/svg">
<path d="M29.3262 58.6663H43.9928M29.3262 40.333H58.6595" stroke="#333333" stroke-width="3" stroke-linecap="round"/>
<path d="M27.5 12.833C21.7954 13.0041 18.3942 13.6391 16.0408 15.9947C12.819 19.2195 12.819 24.4098 12.819 34.7903L12.819 58.6459C12.819 69.0264 12.819 74.2167 16.0408 77.4415C19.2626 80.6663 24.4481 80.6663 34.819 80.6663L53.1523 80.6663C63.5232 80.6663 68.7086 80.6663 71.9305 77.4415C75.1523 74.2167 75.1523 69.0264 75.1523 58.6459V34.7903C75.1523 24.4098 75.1523 19.2195 71.9305 15.9947C69.5771 13.6391 66.1759 13.0041 60.4713 12.833" stroke="#333333" stroke-width="3"/>
<path d="M27.4856 13.7497C27.4856 10.2058 30.3584 7.33301 33.9023 7.33301H54.0689C57.6128 7.33301 60.4856 10.2058 60.4856 13.7497C60.4856 17.2935 57.6128 20.1663 54.0689 20.1663H33.9023C30.3584 20.1663 27.4856 17.2935 27.4856 13.7497Z" stroke="#333333" stroke-width="3" stroke-linejoin="round"/>
</svg>
