<svg xmlns="http://www.w3.org/2000/svg" viewBox="0 0 72.02 106.05"><defs><style>.cls-1{fill:#5d4f7d;}.cls-2{fill:#c4bd93;}</style></defs><g id="Layer_2" data-name="Layer 2"><g id="OBJECTS"><path class="cls-1" d="M1.58,37.29a14.35,14.35,0,0,0,5.11,10.2c0,.46,0,.91,0,1.37a21.82,21.82,0,0,0,5.82,13,25.19,25.19,0,0,0,11.8,7C28.75,70.07,36.77,70,40.9,68a14,14,0,0,0,4.73-21.32,12.47,12.47,0,0,0,.27-1.38,13.61,13.61,0,0,0-4.25-11.42,18.39,18.39,0,0,0-11.78-4.73,51.31,51.31,0,0,0-10.44.79,48.51,48.51,0,0,0-6.79,2.41A37.23,37.23,0,0,1,6,34.59a15.44,15.44,0,0,1-1.79.26c-.52,0-1.06,0-1.58.1a1.16,1.16,0,0,0-1,.88A4.75,4.75,0,0,0,1.58,37.29Z"/><path class="cls-1" d="M70.42,17a14.36,14.36,0,0,1-4.21,9.37,3.41,3.41,0,0,0-1,2.18v0a21.82,21.82,0,0,1-5.82,13,25,25,0,0,1-11.8,7c-4.39,1.18-12.41,1.14-16.54-.91a14.22,14.22,0,0,1-7.63-10.41c-.54-3.42,3.4-7,5.27-9.86a3.41,3.41,0,0,0,.49-2.35V25a13.6,13.6,0,0,1,4.25-11.42A18.33,18.33,0,0,1,45.24,8.85a25.81,25.81,0,0,1,7.32.78,49.39,49.39,0,0,1,6.79,2.42A38.14,38.14,0,0,0,66,14.31a15.44,15.44,0,0,0,1.79.26c.52,0,1.06,0,1.58.1a1.18,1.18,0,0,1,1,.87A5.56,5.56,0,0,1,70.42,17Z"/><path class="cls-2" d="M36,58.78a15.72,15.72,0,0,1-1.24,6.29,8.05,8.05,0,0,1-2.08,3.07l0,0A4.43,4.43,0,0,1,30,69.24l-.32,0h0a5.18,5.18,0,0,0-1.36.18,5.46,5.46,0,0,0-1.33.54l-.08,0a6.89,6.89,0,0,0-3.59,3.25,25.37,25.37,0,0,0-.78,2.57,5,5,0,0,1-1.33,2.27c-1.2,1.12-2.84,1.7-3.87,3a5.37,5.37,0,0,0-1,2.41,50.31,50.31,0,0,1-5.46,1,7.9,7.9,0,0,1-2.7,0A2.91,2.91,0,0,1,6,83a5.6,5.6,0,0,1,0-2.76,2.61,2.61,0,0,0-.82-2.52c-.54-.35-1.34-.36-1.81-.76A2,2,0,0,0,4,76.76a7.11,7.11,0,0,0,1.85-1.34,3.46,3.46,0,0,1,2.05-1A4.8,4.8,0,0,1,4.6,72.94c-.37-.41-.79-.92-1.33-.85a1.18,1.18,0,0,0-.81.63h0a1.15,1.15,0,0,0-.23.21,9.94,9.94,0,0,1,.38-2.06,3.09,3.09,0,0,0,0-1.42S0,68.78,0,66.8c0-1.45,2.65-2,3.79-7.37a17,17,0,0,0-.18-5.73,21.53,21.53,0,0,1-.18-3.4,22.7,22.7,0,0,1,4.5-13,19.83,19.83,0,0,0,7.53,11.18c4.49,3.42,10,5.26,15.43,6.69l.1,0a2.18,2.18,0,0,1,2.22-1.13,3.17,3.17,0,0,1,2.26,1.79,5.17,5.17,0,0,1,.43,1.33A9.4,9.4,0,0,1,36,58.78Z"/><path class="cls-1" d="M11.61,52.55a14.29,14.29,0,0,1,1.8,3c-.91-.6-1.7-1.37-2.6-2a5.17,5.17,0,0,0-3.17-1.14,5.1,5.1,0,0,0-2.92,1.33,1.4,1.4,0,0,1-.15-1.62A2.7,2.7,0,0,1,5.87,51a4.56,4.56,0,0,1,2.54-.42A5.3,5.3,0,0,1,11.61,52.55Z"/><path class="cls-1" d="M6,69.17c-.87.29-1.88-.28-2.72.07.5-.45,1.3-.36,1.86-.74a1.33,1.33,0,0,0,.42-1.68,1.14,1.14,0,0,1,1,.25,1.2,1.2,0,0,1,.34,1.2A1.34,1.34,0,0,1,6,69.17Z"/><path class="cls-1" d="M4,76.76a2.31,2.31,0,0,1-.68.15.85.85,0,0,1-.21-.25c-.42-.7.19-1.53.76-2.11-.76.26-1.53-.52-1.64-1.31a1.51,1.51,0,0,1,0-.3,1.14,1.14,0,0,1,.22-.22h0a1.16,1.16,0,0,1,.81-.63c.54-.07,1,.44,1.33.85a4.8,4.8,0,0,0,3.33,1.52,3.46,3.46,0,0,0-2,1A6.88,6.88,0,0,1,4,76.76Z"/><path class="cls-1" d="M34.58,57a1.11,1.11,0,0,0-1.83-.39,3.82,3.82,0,0,0-1,2.57,6,6,0,0,0,0,1.47,1.42,1.42,0,0,0,.59,1,2.51,2.51,0,0,1,.83.94,2.18,2.18,0,0,1,.18,1.23,2,2,0,0,1-2,1.61c-.25,0-.25.38,0,.39a2.33,2.33,0,0,0,2.31-3,2.67,2.67,0,0,0-.5-1,2.73,2.73,0,0,0-.38-.38,1.91,1.91,0,0,1-.5-.44,2.4,2.4,0,0,1-.2-1.35,6.15,6.15,0,0,1,.2-1.49A2.43,2.43,0,0,1,33,56.84c.37-.29,1-.31,1.18.23A.19.19,0,0,0,34.58,57Z"/><path class="cls-1" d="M35.33,53.81a3.49,3.49,0,0,0-3.91.63,7.32,7.32,0,0,0-2,4,.19.19,0,0,0,.37.1,7.23,7.23,0,0,1,1.78-3.63,3.13,3.13,0,0,1,3.61-.72A.19.19,0,0,0,35.33,53.81Z"/><path class="cls-1" d="M11,57.69a12.73,12.73,0,0,1-5.52-2.84c-.19-.16-.47.11-.28.28s.6.5.91.73a4.07,4.07,0,0,0-.35,3,1.38,1.38,0,0,0,.08.29.54.54,0,0,0,0,.11,2.6,2.6,0,0,0,.1.25c-.28.14-.55.29-.82.44a.19.19,0,0,0,.19.34A20.24,20.24,0,0,1,11,58.1a.2.2,0,0,0,.13-.12A.19.19,0,0,0,11,57.69ZM8,58.66a1.63,1.63,0,0,0,.11-.17,2.29,2.29,0,0,0,.28-1.33,13.08,13.08,0,0,0,1.92.73A21.57,21.57,0,0,0,8,58.66Z"/><path class="cls-2" d="M69.41,48a3.24,3.24,0,0,0,0,1.42,10.62,10.62,0,0,1,.37,2.06.88.88,0,0,0-.22-.21h0a1.15,1.15,0,0,0-.8-.63c-.54-.07-1,.45-1.33.85A4.8,4.8,0,0,1,64.09,53a3.37,3.37,0,0,1,2,1A7.29,7.29,0,0,0,68,55.3a2,2,0,0,0,.68.15c-.48.4-1.27.41-1.82.76A2.63,2.63,0,0,0,66,58.73a5.59,5.59,0,0,1,0,2.76A2.86,2.86,0,0,1,63.9,63a7.9,7.9,0,0,1-2.7,0,43,43,0,0,1-7.37-1.49c-.13-.11-.26-.21-.38-.33a6.31,6.31,0,0,1-.66-.71,14.7,14.7,0,0,1-2.3-4.72l-.18-.52L50.22,55a14.66,14.66,0,0,0-2.37-4.84A5.52,5.52,0,0,0,43.18,48c-.19-.12-.39-.23-.59-.34a1.1,1.1,0,0,1,0,.18l-.2-.12-.32,0a4.42,4.42,0,0,1-2.76-1.1,8,8,0,0,1-2.07-3.06A15.47,15.47,0,0,1,36,37.32a6.77,6.77,0,0,1,.57-2.92,3.13,3.13,0,0,1,2.26-1.79A2.18,2.18,0,0,1,41,33.74l.09,0c5.47-1.42,11-3.27,15.44-6.69a19.93,19.93,0,0,0,7.53-11.18,22.68,22.68,0,0,1,4.32,16.4l-.15,1.12a13.73,13.73,0,0,0,0,4.61C69.37,43.32,72,43.9,72,45.34,72,47.33,69.41,48,69.41,48Z"/><path class="cls-1" d="M60.41,31.1a14.21,14.21,0,0,0-1.8,3c.91-.6,1.71-1.37,2.6-2A5.2,5.2,0,0,1,64.38,31a5.16,5.16,0,0,1,2.92,1.33,1.38,1.38,0,0,0,.15-1.61,2.77,2.77,0,0,0-1.3-1.11,4.64,4.64,0,0,0-2.54-.41A5.26,5.26,0,0,0,60.41,31.1Z"/><path class="cls-1" d="M66,47.71c.87.3,1.88-.28,2.72.07-.5-.45-1.3-.36-1.86-.73a1.33,1.33,0,0,1-.42-1.68,1.08,1.08,0,0,0-1,.25,1.18,1.18,0,0,0-.34,1.19A1.34,1.34,0,0,0,66,47.71Z"/><path class="cls-1" d="M68,55.3a2.19,2.19,0,0,0,.67.16.89.89,0,0,0,.21-.26c.42-.69-.19-1.53-.76-2.11.76.26,1.53-.52,1.64-1.31a1.53,1.53,0,0,0,0-.3,1.15,1.15,0,0,0-.23-.21h0a1.18,1.18,0,0,0-.81-.63c-.54-.07-1,.45-1.33.85A4.85,4.85,0,0,1,64.09,53a3.35,3.35,0,0,1,2,1A7,7,0,0,0,68,55.3Z"/><path class="cls-1" d="M37.44,35.51a1.11,1.11,0,0,1,1.83-.39,3.8,3.8,0,0,1,1,2.57,6,6,0,0,1,0,1.46,1.4,1.4,0,0,1-.59,1,2.53,2.53,0,0,0-.83,1,2.25,2.25,0,0,0-.18,1.23,2,2,0,0,0,2,1.6c.25,0,.25.38,0,.39a2.32,2.32,0,0,1-2.31-3,2.8,2.8,0,0,1,.5-1A2.22,2.22,0,0,1,39.2,40a2.36,2.36,0,0,0,.5-.44,2.42,2.42,0,0,0,.2-1.36,6.29,6.29,0,0,0-.2-1.49A2.47,2.47,0,0,0,39,35.38c-.37-.28-1-.31-1.18.23A.19.19,0,0,1,37.44,35.51Z"/><path class="cls-1" d="M36.69,32.36A3.48,3.48,0,0,1,40.6,33a7.32,7.32,0,0,1,2,4c.06.24-.31.35-.37.1a7.27,7.27,0,0,0-1.78-3.63,3.15,3.15,0,0,0-3.61-.72C36.66,32.81,36.47,32.47,36.69,32.36Z"/><path class="cls-1" d="M60.87,36.52a.16.16,0,0,0,.13.12,20.24,20.24,0,0,1,5.62,2.23.19.19,0,0,0,.2-.33c-.27-.16-.55-.3-.83-.45a1.86,1.86,0,0,0,.1-.25l.06-.1c0-.1,0-.19.07-.29a4.1,4.1,0,0,0-.35-3.05c.31-.23.62-.47.91-.73s-.09-.44-.28-.27A12.61,12.61,0,0,1,61,36.23.19.19,0,0,0,60.87,36.52Zm.88-.09a12,12,0,0,0,1.92-.73A2.28,2.28,0,0,0,64,37a1,1,0,0,0,.11.17A21.57,21.57,0,0,0,61.75,36.43Z"/><path class="cls-1" d="M31.16,54.62c-.8,1.09-1.88,2.34-3.38,2.21s-2-1.54-3.27-1.84-2.37.21-3.52.37a4.38,4.38,0,0,1-1.73-.07,3.71,3.71,0,0,1-1.47-.86,11.74,11.74,0,0,1-2-3,7.53,7.53,0,0,0-1.12-1.56,5.49,5.49,0,0,0-1.39-1c-1-.5-2-.83-3-1.41A4.19,4.19,0,0,1,8.34,45a10.39,10.39,0,0,1-.09-3.73,7.88,7.88,0,0,0-.31-4.09.17.17,0,0,1,0-.17h0a.2.2,0,0,1,.34-.2A39,39,0,0,0,12,42a40.07,40.07,0,0,0,8.6,7.52,39,39,0,0,0,10.41,4.78A.19.19,0,0,1,31.16,54.62Z"/><path class="cls-1" d="M41,33.77c.81,1.09,1.88,2.34,3.38,2.2s2-1.53,3.27-1.83,2.38.21,3.52.37a4.38,4.38,0,0,0,1.73-.07,3.68,3.68,0,0,0,1.48-.86,12,12,0,0,0,2-2.95,8,8,0,0,1,1.13-1.56,5.2,5.2,0,0,1,1.38-1c1-.51,2-.84,3-1.41a4.27,4.27,0,0,0,1.94-2.54,10.56,10.56,0,0,0,.08-3.72,8,8,0,0,1,.32-4.09.2.2,0,0,0,0-.17v0c.13-.21-.21-.41-.34-.19a39,39,0,0,1-3.78,5.25,40,40,0,0,1-8.59,7.52A39,39,0,0,1,41.1,33.48.21.21,0,0,0,41,33.77Z"/><path class="cls-2" d="M61.4,11.71a11.69,11.69,0,0,0-7.68,3.22,7.27,7.27,0,0,0-.54.57c.14-.34.29-.67.43-1,.08-.19.16-.38.23-.58a.2.2,0,0,0,.08-.08c.84-1.79,2.61-2.9,3.61-4.59a8.26,8.26,0,0,0,1-2.82,12.87,12.87,0,0,0,.06-2.91,9.85,9.85,0,0,1,.2-3.25c.06-.24-.29-.37-.37-.13-.61,1.74-2.12,2.92-3.27,4.3a7.25,7.25,0,0,0-1.38,2.43A10.17,10.17,0,0,0,53.43,10c0,.89.07,1.79.08,2.68v.1c0,.28,0,.57,0,.85,0,0,0,0,0,.05-.08.23-.17.46-.26.68-.28.68-.59,1.35-.91,2,0,0,0-.1,0-.14s0-.26.06-.36c.08-.78.16-1.57.18-2.36A9.45,9.45,0,0,0,51.73,9a18.33,18.33,0,0,0-3-4.08.2.2,0,0,0-.33.2c.6,1.68-.11,3.48-.19,5.18a4.71,4.71,0,0,0,.48,2.45,10.08,10.08,0,0,0,1.53,2,9.35,9.35,0,0,1,1.11,1.4,4.22,4.22,0,0,1,.43,1,.24.24,0,0,0,.12.14l-.57,1,.33.2c.19-.31.38-.64.56-1,.06-.09.1-.19.15-.28a2.49,2.49,0,0,0,.69.17,5.53,5.53,0,0,0,4.16-1.45c1.5-1.22,2.64-2.84,4.3-3.85C61.61,12,61.62,11.71,61.4,11.71Z"/><path class="cls-2" d="M62.29,18.45c-3.15-.74-6.5-1.24-9.63-.15a9,9,0,0,0-1.31.57c.09-.14.18-.27.26-.42l-.33-.2-.62,1a7.6,7.6,0,0,1-.36-1.78,10.56,10.56,0,0,0-5.49-7.14c-.16-.08-.31.12-.25.27A27.25,27.25,0,0,1,45.75,15a6.53,6.53,0,0,0,4.5,4.78c-.33.46-.66.92-1,1.36a26.65,26.65,0,0,1-1.79,2,9.31,9.31,0,0,0-2.37-7.48,9.13,9.13,0,0,0-1.91-1.59c-.15-.09-.39.06-.29.24.73,1.26.56,2.77.65,4.17a7.58,7.58,0,0,0,.28,1.58A6.83,6.83,0,0,0,46.67,24a29,29,0,0,1-2.39,2.05l.23.31c.2-.16.41-.31.61-.48.68-.54,1.32-1.12,2-1.73a8.83,8.83,0,0,0,5.06,1.17,18.17,18.17,0,0,0,4.28-1.51,8,8,0,0,1,2.5-.62c.2,0,.21-.32,0-.38-3.06-1-6.44-1.49-9.54-.35a10.21,10.21,0,0,0-1.26.58c.49-.52,1-1.06,1.39-1.62s.77-1,1.14-1.52a4.73,4.73,0,0,0,2.14,1,7.93,7.93,0,0,0,4.61-.5,21.65,21.65,0,0,1,4.82-1.6C62.44,18.8,62.48,18.49,62.29,18.45Z"/><path class="cls-2" d="M54,28.47a14.6,14.6,0,0,0-4,.82,5.55,5.55,0,0,1-3.77-.18,8.12,8.12,0,0,1-1.89-1.24c-.29-.24-.57-.49-.85-.75h0c-.65.46-1.33.89-2,1.29,2.52-.2,4.78,1.44,6.69,2.93a.19.19,0,0,1-.13.35l-2.38-.3c-.76-.1-1.52-.18-2.26-.35a3.89,3.89,0,0,1-2.88-2.1A23.28,23.28,0,0,1,38,30.09a7.51,7.51,0,0,1-2.8.59c-.25,0-.21-.39,0-.39a8,8,0,0,0,3.17-.78,27.68,27.68,0,0,0,2.73-1.35c.67-.38,1.33-.79,2-1.22a6.84,6.84,0,0,1-.61-8.75.19.19,0,0,1,.33,0,11.38,11.38,0,0,1,.74,2,14,14,0,0,1,.13,6.31c.22-.15.43-.31.64-.47l.23.31a10.52,10.52,0,0,1,1.12-.21,12.26,12.26,0,0,1,8.51,2A.2.2,0,0,1,54,28.47Z"/><path class="cls-2" d="M10,30.93c1.59,1.13,2.61,2.82,4,4.14a5.52,5.52,0,0,0,4,1.74,2.43,2.43,0,0,0,.7-.11c0,.09.08.19.13.29.16.33.32.67.5,1l.34-.17c-.17-.34-.34-.69-.5-1a.24.24,0,0,0,.13-.13,3.69,3.69,0,0,1,.5-.94A9.41,9.41,0,0,1,21,34.39a10.15,10.15,0,0,0,1.67-1.86,4.77,4.77,0,0,0,.65-2.42c0-1.7-.54-3.54.17-5.17a.2.2,0,0,0-.31-.23,19,19,0,0,0-3.31,3.85,9.43,9.43,0,0,0-1.17,4.38c0,.79,0,1.59,0,2.38,0,.09,0,.22,0,.36s0,.09,0,.13c-.28-.67-.54-1.36-.77-2.05l-.22-.7s0,0,0-.05c0-.28,0-.56.05-.84v-.1c.08-.89.2-1.78.27-2.68A10.21,10.21,0,0,0,18,26.27a7.09,7.09,0,0,0-1.21-2.52c-1-1.46-2.46-2.75-3-4.53a.2.2,0,0,0-.38.11,9.85,9.85,0,0,1,0,3.25,13.53,13.53,0,0,0-.15,2.91,8.52,8.52,0,0,0,.84,2.89c.88,1.75,2.57,3,3.27,4.83l.08.09c.06.2.12.39.19.59s.24.69.36,1c-.16-.2-.33-.41-.51-.6a11.59,11.59,0,0,0-7.42-3.75C9.86,30.55,9.85,30.84,10,30.93Z"/><path class="cls-2" d="M8.72,37.6a21.34,21.34,0,0,1,4.7,1.93,7.94,7.94,0,0,0,4.56.83,4.78,4.78,0,0,0,2.21-.87c.33.55.67,1.08,1,1.6s.82,1.16,1.26,1.72a8.89,8.89,0,0,0-1.21-.67c-3-1.36-6.41-1.13-9.54-.32-.17,0-.19.35,0,.37a7.89,7.89,0,0,1,2.46.8,18.53,18.53,0,0,0,4.16,1.81A8.77,8.77,0,0,0,23.49,44c.58.65,1.18,1.27,1.82,1.87.18.17.38.34.58.51l.25-.29a27.49,27.49,0,0,1-2.24-2.21,6.88,6.88,0,0,0,1.75-1.38A7,7,0,0,0,27,40.22a7.41,7.41,0,0,0,.38-1.56c.19-1.38.13-2.9.95-4.11.12-.17-.12-.34-.28-.26A9.31,9.31,0,0,0,23.18,43c-.59-.7-1.13-1.42-1.65-2.17-.32-.46-.62-.94-.9-1.43a6.58,6.58,0,0,0,2.15-.91A6.84,6.84,0,0,0,25.45,35,28.88,28.88,0,0,1,27,30.62c.08-.14-.06-.35-.23-.28a10.48,10.48,0,0,0-6,6.73,7.45,7.45,0,0,1-.49,1.75l-.54-1-.34.17c.07.15.14.3.22.44a8.39,8.39,0,0,0-1.26-.66c-3-1.31-6.42-1-9.62-.54C8.52,37.25,8.54,37.56,8.72,37.6Z"/><path class="cls-2" d="M16.26,47.81a14.5,14.5,0,0,1,4,1.1A5.55,5.55,0,0,0,24,49a8.41,8.41,0,0,0,2-1.1c.31-.22.61-.46.91-.69h0c.62.5,1.26,1,1.92,1.43-2.5-.38-4.86,1.1-6.88,2.45a.2.2,0,0,0,.11.36l2.4-.14c.75,0,1.52-.07,2.27-.18a3.92,3.92,0,0,0,3-1.9,23.29,23.29,0,0,0,2.45,1.34,7.36,7.36,0,0,0,2.75.78c.25,0,.24-.37,0-.38a7.81,7.81,0,0,1-3.1-1,26.64,26.64,0,0,1-2.64-1.53c-.64-.43-1.26-.89-1.86-1.36a6.83,6.83,0,0,0,1.23-8.69.19.19,0,0,0-.33,0,11.14,11.14,0,0,0-.88,1.93,14,14,0,0,0-.58,6.29c-.2-.17-.41-.34-.6-.52l-.25.29c-.37-.11-.73-.21-1.1-.29a12.3,12.3,0,0,0-8.63,1.37A.19.19,0,0,0,16.26,47.81Z"/><path class="cls-1" d="M60.17,70.76c-.9,2.29-2.3,4.41-2.77,6.84-.41,2.06-.12,4.24-.79,6.23a7,7,0,0,1-5,4.53c-1.19.26-2.53.22-3.7.51a3.71,3.71,0,0,0-1.83,1,4.37,4.37,0,0,0-.72,1.07,10.87,10.87,0,0,1-1.5,3c-1.35,1.42-6.84,1.2-8.46,2.3a3.51,3.51,0,0,0-1.47,3.66A3,3,0,0,0,37,102.07a2.65,2.65,0,0,0,2.16-2.33,4,4,0,0,1-.2,4.49A4.88,4.88,0,0,1,34.53,106a6.09,6.09,0,0,1-3.74-2A6.05,6.05,0,0,1,29,100.38a.08.08,0,0,0,0,0,12,12,0,0,1-.23-1.46V98.7s0,0,0,0a7.18,7.18,0,0,0-1.29-3.72c-1.09-1.34-2.84-1.86-4.39-2.44a12.72,12.72,0,0,1-4.4-2.56,7.64,7.64,0,0,1-2.4-4.31,6.62,6.62,0,0,1,0-2.13,5.37,5.37,0,0,1,1-2.41c1-1.32,2.67-1.9,3.87-3a5,5,0,0,0,1.33-2.27,25.37,25.37,0,0,1,.78-2.57A6.89,6.89,0,0,1,26.88,70l.08,0a11.67,11.67,0,0,1,1.33-.54,5.18,5.18,0,0,1,1.36-.18h0l.32,0a4.43,4.43,0,0,0,2.73-1.08,15.61,15.61,0,0,1,2.86-.4,9.65,9.65,0,0,0,1.06-2.28,15.64,15.64,0,0,0,.74-6.37,9.32,9.32,0,0,0-.27-1.58c1.73-2.75,5.41-5.59,5.47-9,0-.11.24-.53.24-.64s.14-.12.21-.09l.43.2c.08,0,.1.11.19.1a5.51,5.51,0,0,1,4.82,1.71,14.56,14.56,0,0,1,2.75,4.64,2,2,0,0,1,.11.26c.07.17.15.33.22.51a14.8,14.8,0,0,0,2.67,4.52,6.4,6.4,0,0,0,.72.65c.12.1.26.2.4.3,1.5,1,3.37,1.61,4.51,3C61.38,65.63,61.06,68.45,60.17,70.76Z"/><path class="cls-2" d="M29.72,68a7.63,7.63,0,0,0-3.45,3.58,8.55,8.55,0,0,0-.71,2.57,22.21,22.21,0,0,1-.45,2.81,5,5,0,0,1-1.29,2.24,11.21,11.21,0,0,1-1.89,1.46,10,10,0,0,0-3.55,3.24A6.46,6.46,0,0,0,18,89.37c.09.23.47.12.37-.11a6.06,6.06,0,0,1,.18-4.88A8.79,8.79,0,0,1,22,81.05a7.69,7.69,0,0,0,3.24-3.27c.71-1.69.52-3.59,1.09-5.31a7.33,7.33,0,0,1,3.61-4.18C30.14,68.18,30,67.84,29.72,68Z"/><path class="cls-2" d="M32,67.71a9.26,9.26,0,0,0-3.38,3.72,9.11,9.11,0,0,0-.81,2.39,28.37,28.37,0,0,0-.28,2.91,10.59,10.59,0,0,1-.52,2.9,6.76,6.76,0,0,1-1.37,2.17,43.93,43.93,0,0,0-3.44,3.65A7.85,7.85,0,0,0,21,91.35c.05.24.42.14.38-.11a7.39,7.39,0,0,1,1-5.29,25.07,25.07,0,0,1,3.36-3.63,8.37,8.37,0,0,0,1.41-1.94,8,8,0,0,0,.71-2.59c.23-1.84.14-3.71.82-5.47a8.85,8.85,0,0,1,3.55-4.27C32.44,67.91,32.24,67.58,32,67.71Z"/><path class="cls-2" d="M31.16,72.6c.92-1.82,2.35-3.6,2.17-5.77,0-.25-.41-.25-.39,0,.16,2-1.09,3.65-2,5.31a8,8,0,0,0-.92,2.59,11,11,0,0,0,.08,2.86,19.05,19.05,0,0,1,.23,2.92,6.83,6.83,0,0,1-.7,2.77c-.83,1.72-2.12,3.15-3,4.82s-1.47,3.88-.47,5.69a.19.19,0,0,0,.33-.19,5.51,5.51,0,0,1,.44-5.23c.89-1.66,2.18-3.08,3-4.78A7.46,7.46,0,0,0,30.72,81a12.19,12.19,0,0,0-.13-2.83,17.24,17.24,0,0,1-.2-2.87A6.69,6.69,0,0,1,31.16,72.6Z"/><path class="cls-2" d="M58,66a7.76,7.76,0,0,0-2.55-1.81,21.05,21.05,0,0,1-3.06-1.48c-1.8-1.23-2.55-3.4-3-5.43-.5-2.19-.76-4.52-2-6.45a8.25,8.25,0,0,0-5.85-3.52.24.24,0,0,0-.15,0,5.26,5.26,0,0,0-.6-.19,3.33,3.33,0,0,0-.39-.36c-.19-.16-.46.11-.27.27l.36.33a.14.14,0,0,0,.08.09c1.73,1.8,2.09,4.48,2.12,6.9,0,2.78-.23,5.7,1,8.3a7.6,7.6,0,0,0,2.48,2.89c1,.75,2.18,1.33,3.26,2a15.72,15.72,0,0,1,5,5.25,15.89,15.89,0,0,1,2.26,7.88.2.2,0,0,0,.39,0A16.56,16.56,0,0,0,50.67,68c-2-1.54-4.71-2.41-6.15-4.6-1.62-2.45-1.43-5.53-1.43-8.33,0-2.5-.21-5.31-1.78-7.33a6.54,6.54,0,0,1,3.42,4.17c.77,2.41.7,5,1.28,7.41a9.65,9.65,0,0,0,1.23,3.07,7.09,7.09,0,0,0,2.34,2.25c1,.59,2,1,3,1.57a10,10,0,0,1,2.59,2,9.76,9.76,0,0,1,2.61,6.59.2.2,0,0,0,.39,0,10.11,10.11,0,0,0-2-6,9.74,9.74,0,0,0-2.3-2.23,28.6,28.6,0,0,0-3-1.65,8.71,8.71,0,0,1-2.77-2,8.28,8.28,0,0,1-1.52-3.09c-.69-2.45-.6-5.05-1.28-7.51a7.78,7.78,0,0,0-2.84-4.34,7.69,7.69,0,0,1,4.39,2.75c1.36,1.82,1.68,4.15,2.14,6.32a10.38,10.38,0,0,0,2.47,5.43c1.58,1.55,3.92,1.8,5.61,3.19a7.32,7.32,0,0,1,2.63,6c0,.26.38.25.39,0A7.65,7.65,0,0,0,58,66Z"/><polygon class="cls-1" points="1.86 22.14 3.68 25.43 1.86 28.89 0.11 25.41 1.86 22.14"/><path class="cls-1" d="M3.1,31.4a1,1,0,0,0,0,2A1,1,0,0,0,3.1,31.4Z"/><path class="cls-1" d="M7.72,24.76a1,1,0,0,0,0,1.95A1,1,0,0,0,7.72,24.76Z"/><path class="cls-1" d="M6.85,29.67a1,1,0,0,0,0,1.94A1,1,0,0,0,6.85,29.67Z"/><polygon class="cls-1" points="64.39 64.79 66.21 68.08 64.39 71.53 62.63 68.06 64.39 64.79"/><path class="cls-1" d="M65.63,74.05a1,1,0,0,0,0,2A1,1,0,0,0,65.63,74.05Z"/><path class="cls-1" d="M70.25,67.41a1,1,0,0,0,0,2A1,1,0,0,0,70.25,67.41Z"/><path class="cls-1" d="M69.38,72.32a1,1,0,0,0,0,1.94A1,1,0,0,0,69.38,72.32Z"/></g></g></svg>