<svg xmlns="http://www.w3.org/2000/svg" viewBox="0 0 90.42 98.7"><defs><style>.cls-1{fill:#5d4f7d;}.cls-2{fill:#c4bd93;}</style></defs><g id="Layer_2" data-name="Layer 2"><g id="OBJECTS"><path class="cls-1" d="M12.92,26.36a1.1,1.1,0,0,1-1.1-1.1V22.37a5.35,5.35,0,1,1,10.69,0,1.1,1.1,0,1,1-2.2,0,3.15,3.15,0,1,0-6.29,0v2.89A1.11,1.11,0,0,1,12.92,26.36Z"/><polygon class="cls-1" points="0.48 74.48 0.12 74.4 16.81 18.71 17.16 18.78 0.48 74.48"/><path class="cls-2" d="M34,74.44s-1,7.75-16.86,7.75S.3,74.44.3,74.44Z"/><polygon class="cls-1" points="33.85 74.48 16.81 18.74 17.16 18.67 34.21 74.4 33.85 74.48"/><path class="cls-2" d="M43.39,25.16,21.11,22.65V20H69.17v2.64L46.89,25.16,45.8,26.41l2.51,3.13-1.77,1s-1,18.37,1.94,26.63,3.2,14.39-1.35,17.35c0,0-.3,3.75,2.17,4s2.06,2.42,1.06,2.92l-.15.06.17.19a.11.11,0,0,1-.08,0,37.71,37.71,0,0,1-5.09.32h-.14a40,40,0,0,1-5.13-.37h0l.14-.16a1,1,0,0,1-.21-.1c-.94-.56-1.17-2.6,1.13-2.88,2.46-.29,2.17-4,2.17-4-4.55-3-4.24-9.1-1.35-17.35s1.93-26.63,1.93-26.63l-1.77-1,2.52-3.13Z"/><path class="cls-2" d="M77.82,98.7H12.46s.07-2.61,13.86-5.17c12.45-2.32,13.84-8.43,14-9.59a1.47,1.47,0,0,0,0-.2,1.91,1.91,0,0,1-.32-.17c1.68.18,3.37.27,5.06.29h.14c1.63,0,3.26,0,4.89-.19l-.16.07s0,.1,0,.28c.2,1.34,1.79,7.24,14,9.51C77.74,96.09,77.82,98.7,77.82,98.7Z"/><path class="cls-1" d="M77.5,26.36a1.1,1.1,0,0,0,1.1-1.1V22.37a5.35,5.35,0,1,0-10.69,0,1.1,1.1,0,0,0,2.2,0,3.15,3.15,0,1,1,6.29,0v2.89A1.1,1.1,0,0,0,77.5,26.36Z"/><polygon class="cls-1" points="89.94 74.48 90.3 74.4 73.61 18.71 73.25 18.78 89.94 74.48"/><path class="cls-2" d="M56.39,74.44s1,7.75,16.86,7.75,16.87-7.75,16.87-7.75Z"/><polygon class="cls-1" points="56.57 74.48 73.61 18.74 73.25 18.67 56.21 74.4 56.57 74.48"/><path class="cls-1" d="M47.47,25.08a39.05,39.05,0,0,1-4.59,0,.17.17,0,1,0,0,.34,39.05,39.05,0,0,0,4.59,0C47.7,25.4,47.71,25.06,47.47,25.08Z"/><path class="cls-1" d="M46.43,26.3c-.86,0-1.72,0-2.58,0a.17.17,0,1,0,0,.34c.86,0,1.72,0,2.58,0A.17.17,0,1,0,46.43,26.3Z"/><path class="cls-1" d="M46.81,30.49l-3.39,0a.17.17,0,1,0,0,.34l3.39,0A.17.17,0,1,0,46.81,30.49Z"/><path class="cls-1" d="M48.41,29.44l-6.52-.08a.17.17,0,1,0,0,.34l6.52.08A.17.17,0,1,0,48.41,29.44Z"/><path class="cls-1" d="M42.82,71.92a13.88,13.88,0,0,1-1-9.05,13.57,13.57,0,0,1,.81-2.48c.08-.21-.27-.29-.36-.09a14.2,14.2,0,0,0-.67,9.27,13.45,13.45,0,0,0,.95,2.52C42.6,72.29,42.92,72.12,42.82,71.92Z"/><path class="cls-1" d="M43.62,73.47l-.54-.81a.19.19,0,0,0-.25-.06.16.16,0,0,0-.07.23l.54.81a.19.19,0,0,0,.25.06A.16.16,0,0,0,43.62,73.47Z"/><path class="cls-1" d="M50.1,83.67c-1.63.14-3.26.2-4.89.19h-.14c-1.69,0-3.38-.11-5.06-.29-.93-.61-.37-1.5-.09-1.86h0a36.78,36.78,0,0,0,5.13.38h.14a37.71,37.71,0,0,0,5.09-.32.11.11,0,0,0,.08,0C50.69,82.14,51.24,83.08,50.1,83.67Z"/><path class="cls-1" d="M50.38,81.74a.11.11,0,0,1-.08,0,37.71,37.71,0,0,1-5.09.32h-.14a36.78,36.78,0,0,1-5.13-.38h0a.15.15,0,0,1-.07-.26.23.23,0,0,1,.19-.06,38.43,38.43,0,0,0,5,.37h.14a37.77,37.77,0,0,0,5-.31.2.2,0,0,1,.16,0A.16.16,0,0,1,50.38,81.74Z"/><path class="cls-1" d="M50.26,84A2.58,2.58,0,0,1,50,84c-1.58.13-3.17.19-4.76.18h-.14c-1.59,0-3.17-.1-4.75-.26l-.33,0c-.23,0-.23-.36,0-.34h0c1.68.18,3.37.27,5.06.29h.14c1.63,0,3.26,0,4.89-.19h.16C50.5,83.64,50.5,84,50.26,84Z"/><path class="cls-1" d="M34.14,74.42a48.32,48.32,0,0,1-26.9,2.52,19,19,0,0,1-7-2.55c-.2-.13-.38.19-.19.32a18.13,18.13,0,0,0,6.19,2.4,47.3,47.3,0,0,0,6.81,1,48.79,48.79,0,0,0,13.69-1,47.36,47.36,0,0,0,7.47-2.28C34.46,74.68,34.36,74.33,34.14,74.42Z"/><path class="cls-1" d="M90.1,74.41a11.41,11.41,0,0,1-5.57,2.11,54.15,54.15,0,0,1-6.62.48A75.63,75.63,0,0,1,64,76.07a73.05,73.05,0,0,1-7.64-1.63.19.19,0,0,0-.1.36,76.87,76.87,0,0,0,14,2.37c2.36.18,4.74.25,7.11.21a60.08,60.08,0,0,0,6.83-.44,12.22,12.22,0,0,0,6.23-2.27C90.54,74.52,90.28,74.26,90.1,74.41Z"/><path class="cls-1" d="M82.94,66.92a9.24,9.24,0,1,1-1.27-10.48,6.15,6.15,0,1,0,1.27,10.48Z"/><path class="cls-1" d="M23.57,61.62a6.39,6.39,0,1,1-6.39-6.38A6.38,6.38,0,0,1,23.57,61.62Z"/><path class="cls-2" d="M18.73,52.66c-.1.42-.29.81-.4,1.22a2,2,0,0,0-.08.85,7.48,7.48,0,0,0-1.07-.08,7.18,7.18,0,0,0-1.62.19,2.59,2.59,0,0,1,.55-1.7,17.3,17.3,0,0,0,1.32-1.77,1.83,1.83,0,0,0-.06-2.07A3.16,3.16,0,0,1,18.73,52.66Z"/><path class="cls-2" d="M15.63,70.6c.11-.41.29-.8.41-1.22a2.22,2.22,0,0,0,.07-.85,7.59,7.59,0,0,0,1.07.08,7.27,7.27,0,0,0,1.63-.19,2.7,2.7,0,0,1-.55,1.7,17.4,17.4,0,0,0-1.33,1.77A1.83,1.83,0,0,0,17,74,3.17,3.17,0,0,1,15.63,70.6Z"/><path class="cls-2" d="M8.21,60.08c.42.1.81.29,1.22.41a2.25,2.25,0,0,0,.86.07,6.26,6.26,0,0,0-.09,1.07,6.66,6.66,0,0,0,.2,1.62,2.6,2.6,0,0,1-1.71-.55,17.3,17.3,0,0,0-1.77-1.32,1.83,1.83,0,0,0-2.07.07A3.16,3.16,0,0,1,8.21,60.08Z"/><path class="cls-2" d="M26.15,63.18c-.41-.1-.8-.29-1.22-.4a2,2,0,0,0-.85-.08,7.48,7.48,0,0,0,.08-1.07A7.18,7.18,0,0,0,24,60a2.57,2.57,0,0,1,1.7.55,17.3,17.3,0,0,0,1.77,1.32,1.85,1.85,0,0,0,2.08-.06A3.19,3.19,0,0,1,26.15,63.18Z"/><path class="cls-2" d="M11.94,54.19c.22.37.36.78.57,1.15a2.07,2.07,0,0,0,.55.66,7.51,7.51,0,0,0-.81.7,6.12,6.12,0,0,0-1,1.28,2.54,2.54,0,0,1-.82-1.59,19.56,19.56,0,0,0-.31-2.19,1.85,1.85,0,0,0-1.52-1.42A3.18,3.18,0,0,1,11.94,54.19Z"/><path class="cls-2" d="M22.43,69.07c-.22-.37-.36-.78-.58-1.15a1.93,1.93,0,0,0-.55-.65,7.67,7.67,0,0,0,.81-.7,6.89,6.89,0,0,0,1-1.29,2.6,2.6,0,0,1,.81,1.59,17.5,17.5,0,0,0,.32,2.19,1.83,1.83,0,0,0,1.51,1.42A3.15,3.15,0,0,1,22.43,69.07Z"/><path class="cls-2" d="M9.74,66.88c.37-.22.78-.37,1.15-.58a2.07,2.07,0,0,0,.66-.55,6.66,6.66,0,0,0,.7.81,6.52,6.52,0,0,0,1.28,1,2.58,2.58,0,0,1-1.59.81,17.5,17.5,0,0,0-2.19.32,1.83,1.83,0,0,0-1.42,1.51A3.16,3.16,0,0,1,9.74,66.88Z"/><path class="cls-2" d="M24.62,56.38c-.37.22-.78.37-1.15.58a2,2,0,0,0-.65.55,8.82,8.82,0,0,0-.7-.81,6.89,6.89,0,0,0-1.29-1,2.6,2.6,0,0,1,1.6-.81,18.06,18.06,0,0,0,2.19-.32A1.83,1.83,0,0,0,26,53,3.15,3.15,0,0,1,24.62,56.38Z"/><polygon class="cls-1" points="79.54 59.42 81.26 62.52 79.54 65.77 77.89 62.49 79.54 59.42"/><path class="cls-1" d="M76.62,47.37a.92.92,0,0,0,0,1.84A.92.92,0,0,0,76.62,47.37Z"/><path class="cls-1" d="M82.94,58.49a.92.92,0,0,0,0,1.84A.92.92,0,0,0,82.94,58.49Z"/><path class="cls-1" d="M71.22,47.37a.92.92,0,0,0,0,1.84A.92.92,0,0,0,71.22,47.37Z"/><polygon class="cls-1" points="14.81 88.75 16.52 91.84 14.81 95.1 13.16 91.82 14.81 88.75"/><path class="cls-1" d="M9.18,91.92a.92.92,0,0,0,0,1.84A.92.92,0,0,0,9.18,91.92Z"/><path class="cls-1" d="M17.88,85.4a.92.92,0,0,0,0,1.84A.92.92,0,0,0,17.88,85.4Z"/><path class="cls-1" d="M12,84.49a.92.92,0,0,0,0,1.83A.92.92,0,0,0,12,84.49Z"/><path class="cls-1" d="M74.24,44a.92.92,0,0,0,0,1.84A.92.92,0,0,0,74.24,44Z"/><path class="cls-1" d="M27.63,66.87a.92.92,0,0,0,0,1.83A.92.92,0,0,0,27.63,66.87Z"/><path class="cls-1" d="M12.09,48.38a.92.92,0,0,0,0,1.83A.92.92,0,0,0,12.09,48.38Z"/><path class="cls-1" d="M15,44.89a.92.92,0,0,0,0,1.83A.92.92,0,0,0,15,44.89Z"/><path class="cls-1" d="M59.37,41.27a11.63,11.63,0,0,0-7.68,3.21,7.27,7.27,0,0,0-.54.57c.15-.33.3-.67.43-1,.08-.19.16-.38.23-.57,0,0,.07-.06.08-.09.84-1.79,2.61-2.9,3.61-4.58a8.42,8.42,0,0,0,1-2.82,13.57,13.57,0,0,0,.07-2.92,9.53,9.53,0,0,1,.19-3.24c.07-.24-.29-.38-.37-.14-.61,1.74-2.12,2.92-3.27,4.31a7.11,7.11,0,0,0-1.38,2.42,10.25,10.25,0,0,0-.38,3.11c0,.9.07,1.79.08,2.69v.1q0,.42,0,.84s0,0,0,.06c-.08.22-.17.45-.26.68-.28.67-.58,1.34-.91,2,0,0,0-.09,0-.14s0-.26.06-.35c.09-.79.16-1.58.18-2.37a9.45,9.45,0,0,0-.86-4.45,18.56,18.56,0,0,0-3-4.08.19.19,0,0,0-.32.21c.59,1.68-.12,3.47-.2,5.17a4.69,4.69,0,0,0,.48,2.45,10.08,10.08,0,0,0,1.53,2,9.89,9.89,0,0,1,1.11,1.4,3.89,3.89,0,0,1,.43,1,.2.2,0,0,0,.12.13q-.28.51-.57,1l.33.21.57-1c.05-.1.09-.19.15-.29a2.12,2.12,0,0,0,.68.17,5.53,5.53,0,0,0,4.16-1.45c1.5-1.21,2.64-2.83,4.3-3.84C59.58,41.55,59.59,41.26,59.37,41.27Z"/><path class="cls-1" d="M60.26,48c-3.15-.73-6.5-1.23-9.63-.15a9,9,0,0,0-1.31.58c.09-.14.18-.28.26-.42l-.33-.21c-.2.33-.41.65-.62,1A7.52,7.52,0,0,1,48.27,47a10.43,10.43,0,0,0-5.49-7.14c-.16-.08-.31.12-.25.26a27.25,27.25,0,0,1,1.19,4.47,6.91,6.91,0,0,0,2.41,3.72,6.45,6.45,0,0,0,2.09,1.06c-.32.46-.66.92-1,1.36-.56.71-1.16,1.39-1.79,2.05a9.28,9.28,0,0,0-4.27-9.07c-.15-.1-.4,0-.3.23.74,1.27.56,2.78.65,4.17a7.58,7.58,0,0,0,.28,1.58,6.74,6.74,0,0,0,2.86,3.86,29,29,0,0,1-2.39,2.05l.23.31c.2-.16.42-.31.61-.47q1-.82,1.95-1.74a8.68,8.68,0,0,0,5.06,1.17,18.17,18.17,0,0,0,4.28-1.51,8.11,8.11,0,0,1,2.51-.62c.19,0,.2-.32,0-.37-3.06-1-6.44-1.5-9.54-.35a8.33,8.33,0,0,0-1.25.58q.72-.8,1.38-1.62t1.14-1.53a4.73,4.73,0,0,0,2.14,1A7.93,7.93,0,0,0,55.4,50a21.29,21.29,0,0,1,4.82-1.59C60.41,48.35,60.45,48.05,60.26,48Z"/><path class="cls-1" d="M52,58a13.9,13.9,0,0,0-4,.82,5.55,5.55,0,0,1-3.77-.18,8.75,8.75,0,0,1-1.88-1.24c-.3-.24-.58-.5-.86-.76h0c-.65.45-1.32.88-2,1.28,2.51-.2,4.77,1.45,6.68,2.93a.2.2,0,0,1-.13.36l-2.38-.31c-.76-.1-1.52-.17-2.25-.34a3.93,3.93,0,0,1-2.89-2.11,25.41,25.41,0,0,1-2.54,1.17,7.42,7.42,0,0,1-2.8.58c-.24,0-.21-.39,0-.38a8,8,0,0,0,3.17-.79,25.7,25.7,0,0,0,2.74-1.34q1-.57,2-1.23a6.88,6.88,0,0,1-1.86-3.93,7,7,0,0,1,1.25-4.82.19.19,0,0,1,.33,0,10.14,10.14,0,0,1,.74,2,14,14,0,0,1,.13,6.31l.64-.48.23.31a10.52,10.52,0,0,1,1.12-.21,12.3,12.3,0,0,1,8.51,2C52.28,57.78,52.16,58,52,58Z"/><polygon class="cls-1" points="48.95 12.95 50.95 17.16 46.74 15.16 45.18 22.78 43.62 15.16 39.4 17.16 41.41 12.95 33.79 11.39 41.41 9.83 39.4 5.62 43.62 7.62 45.18 0 46.74 7.62 50.95 5.62 48.95 9.83 56.57 11.39 48.95 12.95"/></g></g></svg>