<svg xmlns="http://www.w3.org/2000/svg" viewBox="0 0 77.42 98.75"><defs><style>.cls-1{fill:#c4bd93;}.cls-2{fill:#5d4f7d;}</style></defs><g id="Layer_2" data-name="Layer 2"><g id="OBJECTS"><path class="cls-1" d="M39.16,84.92a3.5,3.5,0,0,1-3.23-1,4.51,4.51,0,0,1-1-3.29,7.13,7.13,0,0,1,3.48-5.75.19.19,0,0,1,.19.32l0,0a2.8,2.8,0,0,1,.65-.15,3.62,3.62,0,0,1,2.95,1.2,4.43,4.43,0,0,1,1.1,3.27C43.16,81.88,41.55,84.47,39.16,84.92Z"/><path class="cls-1" d="M38.84,88.15a9.63,9.63,0,0,1-1.93,3.66,4.47,4.47,0,0,1-3.12,1.82,3,3,0,0,1-2.67-2.11,5.5,5.5,0,0,1,.49-4,8.78,8.78,0,0,1,3.27-3.67A7.32,7.32,0,0,1,36.32,83a2,2,0,0,1,1.8-.08A2.09,2.09,0,0,1,39,84.23a5.87,5.87,0,0,1,.14,1.87A9,9,0,0,1,38.84,88.15Z"/><path class="cls-1" d="M33.6,94.6A11.55,11.55,0,0,1,32,96.26c-2.06,1.75-5.28,3.43-7.91,1.87A3.28,3.28,0,0,1,22.44,95c.17-1.47,1.5-2.29,2.74-2.86a15.06,15.06,0,0,1,6.51-1.31,3.62,3.62,0,0,1,2.06.26,1.71,1.71,0,0,1,.78,1.56A3.49,3.49,0,0,1,33.6,94.6Z"/><path class="cls-1" d="M23.06,98.25c-2.5.73-5.17-.25-7.2-1.72-1-.76-2.38-1.93-1.95-3.39s2.2-1.61,3.41-1.67a8.87,8.87,0,0,1,4.32.9c.32.12.64.25,1,.4a9.48,9.48,0,0,1,1.59,1,2.92,2.92,0,0,1,1.17,1.6,2.22,2.22,0,0,1-.47,1.75A3.56,3.56,0,0,1,23.06,98.25Z"/><path class="cls-1" d="M15.84,94.46a1.9,1.9,0,0,1-1.64.22,4.74,4.74,0,0,1-1.66-1,9.22,9.22,0,0,1-1.2-1.22,9.12,9.12,0,0,1-1.75-3.59c-.11-.34-.22-.68-.31-1a4.65,4.65,0,0,1-.19-1.33,4.92,4.92,0,0,1-1.8-2.24,2.74,2.74,0,0,1,.24-2.46,2,2,0,0,1,2-.91,1.71,1.71,0,0,1,1,.56,3.05,3.05,0,0,1,.55,1.25c.22.75.44,1.49.65,2.24a5.49,5.49,0,0,1,2,1.41,9.63,9.63,0,0,1,2.73,6.37A1.85,1.85,0,0,1,15.84,94.46Z"/><path class="cls-2" d="M39.31,85.11a4.34,4.34,0,0,0-3.55-1.87.18.18,0,0,0,0,.36A4,4,0,0,1,39,85.3C39.13,85.49,39.45,85.3,39.31,85.11Z"/><path class="cls-2" d="M13.11,78.05a5.69,5.69,0,0,1-3,3,4.28,4.28,0,0,1-3.88-.22,4,4,0,0,1-.63-6.63,14.43,14.43,0,0,1,1.7-1,3.39,3.39,0,0,0,.45-.4,3.31,3.31,0,0,0,.7-1.27,2.73,2.73,0,0,0-.77-2.73,2.35,2.35,0,0,0-2.67-.3c-.14.08-.3-.1-.24-.23a2.67,2.67,0,0,1,.53-.79A3.52,3.52,0,0,1,9.25,67a7,7,0,0,1,3.1,2.75A9.22,9.22,0,0,1,13.11,78.05Z"/><path class="cls-2" d="M35.15,28.76a5.57,5.57,0,0,0-.75.86,8.78,8.78,0,0,0-1.14,2.49,4.66,4.66,0,0,1-1,.26,2.09,2.09,0,0,1-2.55-1.77,4.85,4.85,0,0,1-.05-.76,6.85,6.85,0,0,1,.35-2.1,1.82,1.82,0,0,1,.2-.45.83.83,0,0,1,.3-.29,1.34,1.34,0,0,1,1.14.15Z"/><path class="cls-2" d="M21,34.3A10.78,10.78,0,0,1,7.92,20.15H8a5.49,5.49,0,0,0,.37,1.39h0A6.48,6.48,0,0,0,10.22,24a7.75,7.75,0,0,0,1.71,1.06,11.34,11.34,0,0,0,2.54.79,7.44,7.44,0,0,1,2.87.83,4.35,4.35,0,0,1,1.53,2.39c.27.92.38,1.88.65,2.81a5.29,5.29,0,0,0,.27.76h0a3.86,3.86,0,0,0,1.07,1.53Z"/><path class="cls-1" d="M30,27.74a6.85,6.85,0,0,0-.35,2.1,4.85,4.85,0,0,0,.05.76,24.47,24.47,0,0,1-8.76,3.56l-.05,0a3.86,3.86,0,0,1-1.07-1.53h0A4,4,0,0,1,21.07,31a14.86,14.86,0,0,1,9.1-3.66A1.82,1.82,0,0,0,30,27.74Z"/><path class="cls-1" d="M28,4.72c-1.77,1.57-4.18,2.35-5.77,4.12A14.81,14.81,0,0,0,20,13h0l-.21.47a8.16,8.16,0,0,1-3,3.95,1,1,0,0,1,0,.14,6,6,0,0,1-4.85,7.53h0A7.75,7.75,0,0,1,10.22,24a6.48,6.48,0,0,1-1.89-2.48h0a3.54,3.54,0,0,1,.44-2.78,5,5,0,0,1,2.49-1.95A8.87,8.87,0,0,1,14,16.27c1.17-2.55,2-5.32,3.72-7.52A11.16,11.16,0,0,1,28,4.72Z"/><path class="cls-2" d="M28.23,7.89a11,11,0,0,1-.59,1.19,18.45,18.45,0,0,1-10.85,8.46,1,1,0,0,0,0-.14,8.16,8.16,0,0,0,3-3.95L20,13h0a19.59,19.59,0,0,0,7.22-5.43,1.5,1.5,0,0,1,.46-.41.46.46,0,0,1,.57.07A.66.66,0,0,1,28.23,7.89Z"/><path class="cls-2" d="M48.17,53.82c0,.64,0,1.27,0,1.91a30.66,30.66,0,0,1-.42,3.58h0a23.3,23.3,0,0,1-1.89,5.91c-.29.59-.61,1.18-1,1.75-.12.2-.25.39-.38.59a14.56,14.56,0,0,1-1.8,9.13l-6.53,0a14.51,14.51,0,0,1-1.79-9.14c-.14-.19-.26-.39-.38-.59a16.57,16.57,0,0,1-1-1.75,22.65,22.65,0,0,1-1.88-5.91h0a26.74,26.74,0,0,1-.42-3.57c0-.64-.05-1.27-.05-1.91A43,43,0,0,1,31,48.85h0c.2-1.63.47-3.24.78-4.84s.7-3.4,1.07-5.09l0,0a6.84,6.84,0,0,0,1.34,1.68,16.61,16.61,0,0,0,5.23,2.89,16.59,16.59,0,0,0,5.18-2.86A7.12,7.12,0,0,0,46,38.92l0,0c.38,1.69.75,3.39,1.07,5.09s.58,3.22.78,4.84h0A40.88,40.88,0,0,1,48.17,53.82Z"/><path class="cls-2" d="M28.83,74.58a8,8,0,0,1-6.13-4.45.76.76,0,0,1-.07-.65c.14-.26.48-.26.78-.17a1.27,1.27,0,0,1,.18.06,12.08,12.08,0,0,1,5,3.82l-.06.36a1.07,1.07,0,0,0,.22,1Z"/><path class="cls-2" d="M23.31,56.3a7.65,7.65,0,0,1-1.86,3.18c-.3-.09-.64-.09-.78.17a7,7,0,0,1,2.1-3.75c.12-.1.29-.2.43-.13S23.36,56.11,23.31,56.3Z"/><path class="cls-2" d="M25.26,66.13a7.63,7.63,0,0,1-1.85,3.18c-.3-.09-.64-.09-.78.17a6.88,6.88,0,0,1,2.09-3.75c.13-.1.29-.2.43-.14S25.31,65.94,25.26,66.13Z"/><path class="cls-2" d="M22.72,46.93a7.64,7.64,0,0,1-1.85,3.17c-.3-.08-.64-.09-.78.17a7,7,0,0,1,2.09-3.75c.12-.09.29-.19.43-.13S22.77,46.74,22.72,46.93Z"/><path class="cls-2" d="M24.27,37.16a7.57,7.57,0,0,1-1.84,3.17c-.31-.08-.65-.09-.79.17a7,7,0,0,1,2.11-3.75c.12-.1.27-.2.42-.13S24.33,37,24.27,37.16Z"/><path class="cls-1" d="M31.13,59.28h0a17.57,17.57,0,0,1-3.07,5c-.3.33-.79.66-1.17.49h0l-.12-.07a1,1,0,0,1-.22-1l.06-.36c.51-2.87,2.31-5.33,4.11-7.65A26.74,26.74,0,0,0,31.13,59.28Z"/><path class="cls-1" d="M34,66.94a22.24,22.24,0,0,1-4,7.15c-.31.33-.8.66-1.18.49h0l-.12-.07a1.07,1.07,0,0,1-.22-1l.06-.36c.53-3,2.47-5.53,4.34-7.94l.12-.06A16.57,16.57,0,0,0,34,66.94Z"/><path class="cls-1" d="M31.77,44c-.31,1.6-.58,3.21-.78,4.84h0a19.39,19.39,0,0,1-3.52,6c-.3.33-.79.66-1.17.5h0l-.12-.08a1,1,0,0,1-.22-.95c0-.12,0-.24.07-.37.62-3.13,3.87-7.57,5.75-10Z"/><path class="cls-1" d="M32.73,38.64A20.73,20.73,0,0,1,29,45.11c-.31.34-.8.66-1.18.49h0a.37.37,0,0,1-.12-.07,1,1,0,0,1-.22-1l.06-.37c.54-3,2.69-6,4.55-8.33A5.1,5.1,0,0,0,32.73,38.64Z"/><path class="cls-2" d="M20.16,50.92a.72.72,0,0,1-.07-.65c.14-.26.48-.25.78-.17l.18.06A12.25,12.25,0,0,1,26,54h0c0,.13-.05.25-.07.37a1,1,0,0,0,.22.95l.12.08A8.05,8.05,0,0,1,20.16,50.92Z"/><path class="cls-2" d="M26.76,64.68l.12.07a8,8,0,0,1-6.13-4.45.73.73,0,0,1-.08-.65c.14-.26.48-.26.78-.17a.76.76,0,0,1,.18.06,12,12,0,0,1,5,3.82h0l-.06.36A1,1,0,0,0,26.76,64.68Z"/><path class="cls-2" d="M21.72,41.15a.73.73,0,0,1-.08-.65c.14-.26.48-.25.79-.17l.18.06a12.17,12.17,0,0,1,5,3.82h0l-.06.37a1,1,0,0,0,.22,1,.37.37,0,0,0,.12.07A8,8,0,0,1,21.72,41.15Z"/><path class="cls-2" d="M45.94,33.61l-.07.06a5.94,5.94,0,0,0-3.71-2.17l-5.49,0A5.88,5.88,0,0,0,33,33.64l-.07-.06a15,15,0,0,1,.36-1.47,8.78,8.78,0,0,1,1.14-2.49,5.57,5.57,0,0,1,.75-.86,4.43,4.43,0,0,1,2.75-1.31l3,0a4.48,4.48,0,0,1,2.76,1.31,5.65,5.65,0,0,1,.75.87,8.6,8.6,0,0,1,1.14,2.48C45.72,32.62,45.84,33.11,45.94,33.61Z"/><path class="cls-1" d="M46.11,38.66c0,.09-.09.18-.14.26a7.12,7.12,0,0,1-1.35,1.69,16.59,16.59,0,0,1-5.18,2.86,16.61,16.61,0,0,1-5.23-2.89,6.84,6.84,0,0,1-1.34-1.68,2.15,2.15,0,0,1-.14-.26,5.1,5.1,0,0,1-.61-2.76h0a3.59,3.59,0,0,1,.11-.72A4.43,4.43,0,0,1,33,33.64a5.88,5.88,0,0,1,3.7-2.16l5.49,0a5.94,5.94,0,0,1,3.71,2.17,4.41,4.41,0,0,1,.73,1.51,4.58,4.58,0,0,1,.12.71h0A5.27,5.27,0,0,1,46.11,38.66Z"/><path class="cls-2" d="M49.21,29.87a4.85,4.85,0,0,1-.05.76,2.32,2.32,0,0,1-.43,1,2.35,2.35,0,0,1-2.12.74,4.58,4.58,0,0,1-1-.26,8.6,8.6,0,0,0-1.14-2.48,5.65,5.65,0,0,0-.75-.87l3.54-1.61A1.34,1.34,0,0,1,48.37,27a.81.81,0,0,1,.29.29,2,2,0,0,1,.21.45A6.9,6.9,0,0,1,49.21,29.87Z"/><path class="cls-2" d="M70.81,28a10.77,10.77,0,0,1-13,6.32l.11-.09a3.87,3.87,0,0,0,1.09-1.54,5.41,5.41,0,0,0,.27-.77c.26-.92.37-1.89.64-2.81a4.3,4.3,0,0,1,1.54-2.38,7.19,7.19,0,0,1,2.87-.84,10.62,10.62,0,0,0,2.53-.79A8.05,8.05,0,0,0,68.62,24a6.42,6.42,0,0,0,1.88-2.47h0a5.07,5.07,0,0,0,.37-1.4h0A10.85,10.85,0,0,1,70.81,28Z"/><path class="cls-1" d="M59.05,32.69A3.87,3.87,0,0,1,58,34.23l0,0a24.82,24.82,0,0,1-8.77-3.56,4.85,4.85,0,0,0,.05-.76,6.9,6.9,0,0,0-.34-2.11,2,2,0,0,0-.21-.45A14.91,14.91,0,0,1,57.76,31,4,4,0,0,1,59.05,32.69Z"/><path class="cls-1" d="M70.51,21.56h0A6.42,6.42,0,0,1,68.62,24,8.05,8.05,0,0,1,66.9,25.1h0A6,6,0,0,1,62,17.56l0-.13a8.2,8.2,0,0,1-3-3.95L58.85,13h0a14.65,14.65,0,0,0-2.28-4.14c-1.58-1.76-4-2.54-5.76-4.12a11.16,11.16,0,0,1,10.34,4c1.74,2.21,2.55,5,3.73,7.52a8.87,8.87,0,0,1,2.71.53,5,5,0,0,1,2.48,1.95A3.48,3.48,0,0,1,70.51,21.56Z"/><path class="cls-2" d="M62.08,17.43l0,.13A18.39,18.39,0,0,1,51.2,9.1a10.19,10.19,0,0,1-.6-1.19.71.71,0,0,1,0-.69.48.48,0,0,1,.57-.07,1.32,1.32,0,0,1,.46.42A19.84,19.84,0,0,0,58.85,13h0l.21.48A8.2,8.2,0,0,0,62.08,17.43Z"/><path class="cls-1" d="M52.07,64.7l-.12.07h0c-.39.17-.87-.16-1.18-.49a17.63,17.63,0,0,1-3.06-5h0a30.66,30.66,0,0,0,.42-3.58c1.79,2.32,3.6,4.79,4.11,7.65,0,.12,0,.24,0,.37A1,1,0,0,1,52.07,64.7Z"/><path class="cls-1" d="M50.12,74.53a.37.37,0,0,1-.12.07h0c-.39.17-.88-.15-1.18-.49a22.29,22.29,0,0,1-4-7.14c.35-.57.67-1.16,1-1.75l.13.06c1.87,2.4,3.8,5,4.33,7.93,0,.12,0,.24.06.36A1,1,0,0,1,50.12,74.53Z"/><path class="cls-1" d="M51.1,45.56l-.11.07h0c-.38.16-.86-.17-1.17-.5a20.35,20.35,0,0,1-3.69-6.47,5.27,5.27,0,0,0,.61-2.76c1.85,2.38,4,5.36,4.54,8.33,0,.12,0,.25.06.37A1,1,0,0,1,51.1,45.56Z"/><path class="cls-1" d="M52.66,55.33l-.12.07h0c-.39.17-.87-.16-1.18-.49a19.72,19.72,0,0,1-3.52-6h0c-.2-1.62-.47-3.23-.78-4.84h0c1.87,2.41,5.12,6.85,5.75,10l.06.37A1,1,0,0,1,52.66,55.33Z"/><path class="cls-2" d="M57.12,41.17A8.05,8.05,0,0,1,51,45.63l.11-.07a1,1,0,0,0,.22-1c0-.12,0-.25-.06-.37a12.11,12.11,0,0,1,5-3.81.55.55,0,0,1,.18-.06c.3-.09.64-.09.78.16A.75.75,0,0,1,57.12,41.17Z"/><path class="cls-2" d="M56.13,70.15A8,8,0,0,1,50,74.6a.37.37,0,0,0,.12-.07,1,1,0,0,0,.22-1c0-.12,0-.24-.06-.36a12,12,0,0,1,5-3.82l.18-.06c.3-.08.64-.09.78.17A.73.73,0,0,1,56.13,70.15Z"/><path class="cls-2" d="M58.67,51a8,8,0,0,1-6.13,4.45l.12-.07a1,1,0,0,0,.22-1L52.82,54h0a12.11,12.11,0,0,1,5-3.81,1,1,0,0,1,.18-.06h0c.3-.09.64-.09.78.16A.75.75,0,0,1,58.67,51Z"/><path class="cls-2" d="M58.09,60.32A8,8,0,0,1,52,64.77l.12-.07a1,1,0,0,0,.22-1c0-.13,0-.25,0-.37a12.1,12.1,0,0,1,5-3.82l.18-.06c.3-.08.64-.09.78.17A.76.76,0,0,1,58.09,60.32Z"/><path class="cls-2" d="M56.21,69.5c-.14-.26-.48-.25-.78-.17a7.49,7.49,0,0,1-1.85-3.17c-.06-.2-.08-.46.11-.54s.3,0,.42.13A7,7,0,0,1,56.21,69.5Z"/><path class="cls-2" d="M58.16,59.67c-.14-.26-.48-.25-.78-.17a7.49,7.49,0,0,1-1.85-3.17c-.05-.2-.07-.46.11-.54s.3,0,.42.13A6.9,6.9,0,0,1,58.16,59.67Z"/><path class="cls-2" d="M56.41,40.36a7.52,7.52,0,0,1-1.85-3.18c-.05-.19-.07-.45.11-.54s.3,0,.42.13a6.9,6.9,0,0,1,2.1,3.75C57.05,40.27,56.71,40.27,56.41,40.36Z"/><path class="cls-2" d="M58.75,50.29c-.14-.25-.48-.25-.78-.16h0A7.52,7.52,0,0,1,56.12,47c-.06-.19-.07-.45.11-.54s.3,0,.42.14A6.84,6.84,0,0,1,58.75,50.29Z"/><path class="cls-1" d="M48.26,46.82a33.13,33.13,0,0,0-13.83-.92,32.68,32.68,0,0,0-3.91.81.19.19,0,0,0,.1.36,32.42,32.42,0,0,1,13.72-.74,31,31,0,0,1,3.82.85A.19.19,0,0,0,48.26,46.82Z"/><path class="cls-1" d="M48,52.06a48.16,48.16,0,0,0-13.51-.45c-1.26.14-2.52.33-3.77.56-.23,0-.13.4.1.36a47.52,47.52,0,0,1,13.31-.62c1.26.11,2.52.28,3.77.5C48.15,52.45,48.25,52.1,48,52.06Z"/><path class="cls-1" d="M48.26,57.57a32.51,32.51,0,0,0-17.85.33c-.22.07-.13.42.1.35a32,32,0,0,1,13.83-1.1,32.7,32.7,0,0,1,3.82.77A.18.18,0,0,0,48.26,57.57Z"/><path class="cls-1" d="M46.48,62.74A28.46,28.46,0,0,0,32,62.65a.19.19,0,0,0,.1.36,27.93,27.93,0,0,1,11.22-.58,30.17,30.17,0,0,1,3.11.66C46.61,63.16,46.71,62.8,46.48,62.74Z"/><path class="cls-1" d="M45.63,66.23A20.9,20.9,0,0,0,36,65.39a21.46,21.46,0,0,0-2.73.6.18.18,0,0,0,.1.35,20.44,20.44,0,0,1,9.52-.44,18.34,18.34,0,0,1,2.62.68C45.75,66.65,45.85,66.3,45.63,66.23Z"/><path class="cls-1" d="M76.46,41.68a11,11,0,0,0-7.23,3q-.27.27-.51.54c.14-.31.28-.63.41-1l.21-.54a.3.3,0,0,0,.08-.08c.79-1.69,2.45-2.73,3.39-4.32a7.9,7.9,0,0,0,1-2.66A12.64,12.64,0,0,0,73.85,34,9.18,9.18,0,0,1,74,30.9a.18.18,0,0,0-.34-.13c-.58,1.65-2,2.76-3.07,4.06a6.6,6.6,0,0,0-1.3,2.29A9.59,9.59,0,0,0,69,40c0,.85.07,1.69.08,2.53v.1c0,.26,0,.53,0,.79,0,0,0,0,0,0-.08.22-.16.43-.25.65-.26.63-.54,1.26-.85,1.87,0,0,0-.08,0-.12s0-.25.06-.34c.08-.74.15-1.49.16-2.23a8.87,8.87,0,0,0-.81-4.19,17.53,17.53,0,0,0-2.86-3.84.18.18,0,0,0-.3.19c.56,1.59-.11,3.28-.18,4.88a4.38,4.38,0,0,0,.45,2.31,10,10,0,0,0,1.44,1.86,8.74,8.74,0,0,1,1,1.31,4,4,0,0,1,.41.92.18.18,0,0,0,.11.13c-.18.32-.35.63-.54.94l.31.19c.19-.3.36-.61.54-.91a2.15,2.15,0,0,1,.14-.26,2.13,2.13,0,0,0,.64.15,5.2,5.2,0,0,0,3.92-1.37C73.89,44.51,75,43,76.52,42,76.65,42,76.66,41.68,76.46,41.68Z"/><path class="cls-1" d="M77.3,48c-3-.69-6.12-1.16-9.07-.13a9.56,9.56,0,0,0-1.23.54,4.11,4.11,0,0,0,.24-.39l-.31-.19c-.19.3-.38.61-.58.91A7.86,7.86,0,0,1,66,47.09a10,10,0,0,0-1.67-3.73,9.75,9.75,0,0,0-3.51-3c-.14-.08-.29.11-.23.24a26.78,26.78,0,0,1,1.12,4.22A6.48,6.48,0,0,0,64,48.32a6.17,6.17,0,0,0,2,1c-.3.44-.61.87-.94,1.29-.53.66-1.1,1.3-1.69,1.92a8.66,8.66,0,0,0-4-8.53c-.14-.1-.38,0-.28.22.69,1.19.53,2.61.62,3.92a6.74,6.74,0,0,0,.26,1.49,6.31,6.31,0,0,0,2.7,3.63,27.3,27.3,0,0,1-2.25,1.93l.22.3.57-.45A23.69,23.69,0,0,0,63,53.4a8.14,8.14,0,0,0,4.76,1.1,17.13,17.13,0,0,0,4-1.43,7.71,7.71,0,0,1,2.36-.58c.19,0,.2-.3,0-.35a13.58,13.58,0,0,0-9-.33,9.75,9.75,0,0,0-1.18.55c.45-.49.89-1,1.3-1.53s.73-.94,1.07-1.43a4.44,4.44,0,0,0,2,1,7.44,7.44,0,0,0,4.34-.47,20.87,20.87,0,0,1,4.54-1.51C77.44,48.35,77.48,48.06,77.3,48Z"/><path class="cls-2" d="M51.25,16.3A11.1,11.1,0,1,1,49.72,3.7a7.39,7.39,0,1,0-3,14.14A7.35,7.35,0,0,0,51.25,16.3Z"/><path class="cls-1" d="M.9,42c1.56.95,2.63,2.48,4,3.62A5.17,5.17,0,0,0,8.86,47a2.13,2.13,0,0,0,.64-.15,2.15,2.15,0,0,1,.14.26c.18.3.35.61.54.91l.31-.19c-.19-.31-.37-.62-.54-.94a.18.18,0,0,0,.11-.13,4,4,0,0,1,.41-.92,8.74,8.74,0,0,1,1-1.31A10,10,0,0,0,13,42.69a4.38,4.38,0,0,0,.45-2.31c-.07-1.6-.74-3.29-.18-4.88a.18.18,0,0,0-.3-.19,17.53,17.53,0,0,0-2.86,3.84,8.87,8.87,0,0,0-.81,4.19c0,.74.08,1.49.16,2.23,0,.09,0,.21.06.34s0,.08,0,.12c-.31-.61-.59-1.24-.85-1.87-.09-.22-.18-.43-.25-.65,0,0,0,0,0,0,0-.26,0-.53,0-.79v-.1c0-.84.07-1.68.08-2.53a9.91,9.91,0,0,0-.36-2.92,6.6,6.6,0,0,0-1.3-2.29c-1.08-1.3-2.5-2.41-3.07-4.06a.18.18,0,0,0-.34.13A9.18,9.18,0,0,1,3.57,34a12.64,12.64,0,0,0,.06,2.75,7.9,7.9,0,0,0,1,2.66C5.55,41,7.21,42,8,43.68a.3.3,0,0,0,.08.08c.06.18.14.36.21.54s.27.64.41,1q-.24-.27-.51-.54a11,11,0,0,0-7.23-3C.75,41.68.77,42,.9,42Z"/><path class="cls-1" d="M.15,48.37a20.87,20.87,0,0,1,4.54,1.51A7.44,7.44,0,0,0,9,50.35a4.44,4.44,0,0,0,2-1c.34.49.7,1,1.07,1.43s.85,1,1.3,1.53a9.75,9.75,0,0,0-1.18-.55,13.58,13.58,0,0,0-9,.33c-.17,0-.16.34,0,.35a7.71,7.71,0,0,1,2.36.58,17.13,17.13,0,0,0,4,1.43,8.14,8.14,0,0,0,4.76-1.1A23.69,23.69,0,0,0,16.28,55l.57.45.22-.3a25.74,25.74,0,0,1-2.25-1.93,6.31,6.31,0,0,0,2.7-3.63,6.74,6.74,0,0,0,.26-1.49c.09-1.31-.07-2.73.62-3.92.1-.17-.14-.32-.28-.22a8.66,8.66,0,0,0-4,8.53c-.6-.62-1.16-1.26-1.69-1.92-.33-.42-.64-.85-.94-1.29a6.17,6.17,0,0,0,2-1,6.48,6.48,0,0,0,2.28-3.49,26.78,26.78,0,0,1,1.12-4.22c.06-.13-.09-.32-.24-.24a9.83,9.83,0,0,0-3.51,3,10,10,0,0,0-1.66,3.73,7.86,7.86,0,0,1-.34,1.67c-.2-.3-.39-.61-.58-.91l-.31.19a4.11,4.11,0,0,0,.24.39,9.56,9.56,0,0,0-1.23-.54c-2.95-1-6.11-.56-9.07.13C-.06,48.06,0,48.35.15,48.37Z"/><polygon class="cls-2" points="16.46 64.68 18.18 67.78 16.46 71.03 14.81 67.75 16.46 64.68"/><path class="cls-2" d="M13.37,63.09a.92.92,0,0,0,0,1.84A.92.92,0,0,0,13.37,63.09Z"/><path class="cls-2" d="M16.63,59.7a.92.92,0,0,0,0,1.83A.92.92,0,0,0,16.63,59.7Z"/><path class="cls-2" d="M13.64,58.47a.92.92,0,0,0,0,1.84A.92.92,0,0,0,13.64,58.47Z"/><polygon class="cls-2" points="63.22 65.1 64.93 68.2 63.22 71.45 61.57 68.17 63.22 65.1"/><path class="cls-2" d="M60.12,63.51a.92.92,0,0,0,0,1.84A.92.92,0,0,0,60.12,63.51Z"/><path class="cls-2" d="M63.38,60.12a.92.92,0,0,0,0,1.83A.92.92,0,0,0,63.38,60.12Z"/><path class="cls-2" d="M60.39,58.89a.92.92,0,0,0,0,1.84A.92.92,0,0,0,60.39,58.89Z"/><path class="cls-2" d="M34.11,93.61a4.34,4.34,0,0,0-3-2.82c-.23-.05-.33.3-.1.36a4,4,0,0,1,2.78,2.56C33.83,93.93,34.18,93.83,34.11,93.61Z"/><path class="cls-2" d="M23.83,93.35c-.14-.19-.46,0-.32.18a4,4,0,0,1,.45,3.9c-.09.21.22.4.32.18A4.36,4.36,0,0,0,23.83,93.35Z"/><path class="cls-2" d="M16.23,91.67a4.54,4.54,0,0,1-2,2.67c-.2.12,0,.44.19.31a4.85,4.85,0,0,0,2.19-2.88A.18.18,0,0,0,16.23,91.67Z"/><path class="cls-2" d="M11.74,85a.2.2,0,0,0-.26,0,3.33,3.33,0,0,1-2.19,1.27.19.19,0,1,0,0,.37,3.73,3.73,0,0,0,2.45-1.38A.19.19,0,0,0,11.74,85Z"/></g></g></svg>