<svg xmlns="http://www.w3.org/2000/svg" viewBox="0 0 86.42 92.71"><defs><style>.cls-1{fill:#5d4f7d;}.cls-2{fill:#c4bd93;}</style></defs><g id="Layer_2" data-name="Layer 2"><g id="OBJECTS"><path class="cls-1" d="M26.63,52.07c-1.05.6-2.09,1.21-3.13,1.82a16.14,16.14,0,0,1-2,1,8.34,8.34,0,0,1-7.65-.76c-.74-.5-1.41-1.12-2.11-1.68a15.25,15.25,0,0,0-6.3-2.9h0a13.41,13.41,0,0,1,9.54.25,11.1,11.1,0,0,0,3.51,1.21,10.78,10.78,0,0,0,3.47-.74,4.25,4.25,0,0,1,3.45.2A3.68,3.68,0,0,1,26.63,52.07Z"/><path class="cls-1" d="M27.05,43.28l.07,0a9.65,9.65,0,0,0-.6,1.15c-1.81-1.42-4.33-1.6-6.63-1.34A21.13,21.13,0,0,0,15,44.27a28.61,28.61,0,0,1-8.88-2.82A11.34,11.34,0,0,1,.89,36.89a10.42,10.42,0,0,1-.52-7.08c1.48-6.49,6.19-11.66,9.85-17.23a57.93,57.93,0,0,0,4.33-7.83A11.64,11.64,0,0,0,15.88,0c.89,3.68-.1,7.57-1.69,11s-3.76,6.56-5.44,9.94a10.48,10.48,0,0,0-1.41,5.28,7.68,7.68,0,0,0,4.92,6.2,14.73,14.73,0,0,0,8.2.49c2.36-.43,4.66-1.17,7-1.73l1,0C26.66,34.93,25.68,39.34,27.05,43.28Z"/><path class="cls-2" d="M74.5,45.63a20.48,20.48,0,0,0-3.07-1.36,21.13,21.13,0,0,0-4.9-1.13c-2.3-.26-4.82-.08-6.62,1.34a9.71,9.71,0,0,0-.61-1.15l.07,0c1.38-3.94.39-8.35-1.44-12.12a25.09,25.09,0,0,1-5.59-.83c-3-.8-6.08-2.16-9.13-1.55h0c-3.05-.61-6.11.75-9.12,1.55a25.26,25.26,0,0,1-5.6.83c-1.83,3.77-2.81,8.18-1.44,12.12l.07,0a9.65,9.65,0,0,0-.6,1.15c-1.81-1.42-4.33-1.6-6.63-1.34A21.13,21.13,0,0,0,15,44.27a20.48,20.48,0,0,0-3.07,1.36c-2.31,1.24-4.41,2.91-6.84,3.91l.34.06h0a13.41,13.41,0,0,1,9.54.25,11.1,11.1,0,0,0,3.51,1.21,10.78,10.78,0,0,0,3.47-.74,4.25,4.25,0,0,1,3.45.2,3.68,3.68,0,0,1,1.24,1.56c0,.1.09.19.13.29,2,4.64.6,10.23,2.77,14.79.77,1.6,1.95,3,2.4,4.74.63,2.41-.29,4.91-1,7.28s-1.2,5.13.14,7.22a6.57,6.57,0,0,0,2.35,2.09,9.85,9.85,0,0,0,1,.51,10.69,10.69,0,0,0,5.33.78c.67-.08,1.35-.22,2-.33a4.8,4.8,0,0,1,1.37-.15h.08a4.91,4.91,0,0,1,1.38.15c.67.11,1.35.25,2,.33A10.59,10.59,0,0,0,52,89h0a7.53,7.53,0,0,0,1-.5,6.57,6.57,0,0,0,2.35-2.09c1.34-2.09.86-4.84.14-7.22s-1.64-4.87-1-7.28c.45-1.72,1.64-3.14,2.4-4.74,2.17-4.56.78-10.15,2.77-14.79,0-.1.09-.19.14-.29A3.65,3.65,0,0,1,61,50.51a4.26,4.26,0,0,1,3.45-.2,10.78,10.78,0,0,0,3.47.74,11.15,11.15,0,0,0,3.52-1.21A13.38,13.38,0,0,1,81,49.59h0l.35-.06C78.91,48.54,76.81,46.87,74.5,45.63ZM32.14,54.76a1.29,1.29,0,0,1-1.22,1,2.28,2.28,0,0,1-2.17-1.45,3.31,3.31,0,0,1,.19-2.7,3.24,3.24,0,0,0-1.86-.86,4.25,4.25,0,0,1,4.33,1.07,6.68,6.68,0,0,1,1.75,4.58A8.58,8.58,0,0,0,32.14,54.76Zm5.34,30.9a1.24,1.24,0,0,1-.86.25,3,3,0,0,1-2.15-1.21,5.57,5.57,0,0,1-1-2.32A5.38,5.38,0,0,1,33.42,80a17.89,17.89,0,0,0,.84-2.7,2.81,2.81,0,0,1,.19-1.39,6.31,6.31,0,0,1,.39,2,17,17,0,0,0,.86,3.85,6.77,6.77,0,0,0,2,3.23A.72.72,0,0,1,37.48,85.66Zm15.46-3.28a5.58,5.58,0,0,1-1,2.32,3,3,0,0,1-2.15,1.21,1.24,1.24,0,0,1-.86-.25A.68.68,0,0,1,48.7,85a6.92,6.92,0,0,0,2-3.23A17,17,0,0,0,51.58,78a6.59,6.59,0,0,1,.39-2,2.81,2.81,0,0,1,.2,1.39A16.78,16.78,0,0,0,53,80,5.53,5.53,0,0,1,52.94,82.38ZM57.68,54.3a2.28,2.28,0,0,1-2.17,1.45,1.29,1.29,0,0,1-1.23-1,8.58,8.58,0,0,0-1,1.63A6.64,6.64,0,0,1,55,51.81a4.24,4.24,0,0,1,4.32-1.07,3.24,3.24,0,0,0-1.86.86A3.36,3.36,0,0,1,57.68,54.3Z"/><path class="cls-2" d="M52,89a8,8,0,0,1-2.54,3c-1.46.88-3.29.78-5,.66l-1.23-.1-1.23.1c-1.71.12-3.53.22-5-.66a8.09,8.09,0,0,1-2.54-3,10.69,10.69,0,0,0,5.33.78c.67-.08,1.35-.22,2-.33a13,13,0,0,1,1.37-.15h.08a13.22,13.22,0,0,1,1.38.15c.67.11,1.35.25,2,.33A10.59,10.59,0,0,0,52,89Z"/><path class="cls-1" d="M37.48,85.66a1.24,1.24,0,0,1-.86.25,3,3,0,0,1-2.15-1.21,5.57,5.57,0,0,1-1-2.32A5.38,5.38,0,0,1,33.42,80a17.89,17.89,0,0,0,.84-2.7,2.81,2.81,0,0,1,.19-1.39,6.31,6.31,0,0,1,.39,2,17,17,0,0,0,.86,3.85,6.77,6.77,0,0,0,2,3.23A.72.72,0,0,1,37.48,85.66Z"/><path class="cls-1" d="M52.94,82.38a5.58,5.58,0,0,1-1,2.32,3,3,0,0,1-2.15,1.21,1.24,1.24,0,0,1-.86-.25A.68.68,0,0,1,48.7,85a6.92,6.92,0,0,0,2-3.23A17,17,0,0,0,51.58,78a6.59,6.59,0,0,1,.39-2,2.81,2.81,0,0,1,.2,1.39A16.78,16.78,0,0,0,53,80,5.53,5.53,0,0,1,52.94,82.38Z"/><path class="cls-1" d="M33.16,56.39a8.58,8.58,0,0,0-1-1.63,1.29,1.29,0,0,1-1.22,1,2.28,2.28,0,0,1-2.17-1.45,3.31,3.31,0,0,1,.19-2.7,3.24,3.24,0,0,0-1.86-.86,4.25,4.25,0,0,1,4.33,1.07A6.68,6.68,0,0,1,33.16,56.39Z"/><path class="cls-1" d="M57.48,51.6a3.36,3.36,0,0,1,.2,2.7,2.28,2.28,0,0,1-2.17,1.45,1.29,1.29,0,0,1-1.23-1,8.58,8.58,0,0,0-1,1.63A6.64,6.64,0,0,1,55,51.81a4.24,4.24,0,0,1,4.32-1.07A3.24,3.24,0,0,0,57.48,51.6Z"/><path class="cls-1" d="M81,49.6a15.16,15.16,0,0,0-6.29,2.9c-.71.56-1.37,1.18-2.12,1.68a8.34,8.34,0,0,1-7.65.76,15.36,15.36,0,0,1-2-1L59.8,52.07A3.65,3.65,0,0,1,61,50.51a4.26,4.26,0,0,1,3.45-.2,10.78,10.78,0,0,0,3.47.74,11.15,11.15,0,0,0,3.52-1.21A13.38,13.38,0,0,1,81,49.59Z"/><path class="cls-1" d="M85.53,36.89a11.34,11.34,0,0,1-5.22,4.56,28.52,28.52,0,0,1-8.88,2.82,21.13,21.13,0,0,0-4.9-1.13c-2.3-.26-4.82-.08-6.62,1.34a9.71,9.71,0,0,0-.61-1.15l.07,0c1.38-3.94.39-8.35-1.44-12.12l1,0c2.34.56,4.63,1.3,7,1.73a14.74,14.74,0,0,0,8.2-.49,7.67,7.67,0,0,0,4.91-6.2,10.48,10.48,0,0,0-1.41-5.28C76,17.56,73.82,14.43,72.23,11S69.65,3.68,70.54,0a11.64,11.64,0,0,0,1.33,4.75,57.93,57.93,0,0,0,4.33,7.83c3.66,5.57,8.37,10.74,9.85,17.23A10.42,10.42,0,0,1,85.53,36.89Z"/><path class="cls-1" d="M37.16,56.16a11.92,11.92,0,0,0-10.23-7.95c-.23,0-.23.34,0,.36a11.76,11.76,0,0,1,6,2.33A11.57,11.57,0,0,1,36.7,56c1.8,4.72,0,9.63-.9,14.33a17,17,0,0,0,0,8,.18.18,0,0,0,.35-.1c-1.46-5,.72-10,1.42-14.86A15,15,0,0,0,37.16,56.16Z"/><path class="cls-1" d="M51.91,88.85c-2,1.15-4.45.5-6.63.36-2.35-.16-4.61.61-7,.56A6,6,0,0,1,35,88.83c-.2-.14-.38.18-.19.32,1.84,1.25,4.17,1.06,6.26.75a21.54,21.54,0,0,1,3.75-.35c1.25,0,2.48.28,3.73.33a6.62,6.62,0,0,0,3.53-.71A.18.18,0,0,0,51.91,88.85Z"/><path class="cls-2" d="M12.6,13.76a9,9,0,0,0-2.29-1.58c-.21-.1-.4.21-.18.31A9.09,9.09,0,0,1,12.34,14C12.51,14.18,12.77,13.92,12.6,13.76Z"/><path class="cls-2" d="M10.65,16.87a13.28,13.28,0,0,0-2.51-1.44.19.19,0,0,0-.25.07.18.18,0,0,0,.06.25,12.27,12.27,0,0,1,2.51,1.44.19.19,0,0,0,.25-.07A.18.18,0,0,0,10.65,16.87Z"/><path class="cls-2" d="M8.16,21.41a16.28,16.28,0,0,0-3.72-.76c-.23,0-.23.35,0,.37a15.44,15.44,0,0,1,3.62.75C8.28,21.84,8.38,21.49,8.16,21.41Z"/><path class="cls-2" d="M7.31,24.78q-2.85,1-5.77,1.78a.18.18,0,0,0,.1.35c1.94-.51,3.87-1.11,5.77-1.77C7.63,25.06,7.54,24.7,7.31,24.78Z"/><path class="cls-2" d="M8.12,29.46a56,56,0,0,0-7.25,7c-.16.18.1.44.26.26a56,56,0,0,1,7.25-7C8.56,29.57,8.3,29.31,8.12,29.46Z"/><path class="cls-2" d="M11.92,32.44,6.85,41.72c-.11.21.21.4.32.19l5.07-9.29A.18.18,0,0,0,11.92,32.44Z"/><path class="cls-2" d="M17.24,32.8,15.29,44c0,.23.31.33.35.1L17.59,32.9C17.63,32.67,17.28,32.57,17.24,32.8Z"/><path class="cls-2" d="M23.17,32.31c-.32,3.64-.65,7.29-1,10.94,0,.23.34.23.36,0,.33-3.65.65-7.3,1-10.94C23.56,32.07,23.19,32.07,23.17,32.31Z"/><path class="cls-1" d="M49.29,56.27a11.91,11.91,0,0,1,10.23-8c.23,0,.23.34,0,.36a11.72,11.72,0,0,0-6,2.33,11.57,11.57,0,0,0-3.79,5.08c-1.8,4.72,0,9.63.9,14.33a17,17,0,0,1,0,8c-.07.23-.42.13-.35-.09,1.45-5-.72-10-1.42-14.87A14.92,14.92,0,0,1,49.29,56.27Z"/><path class="cls-2" d="M73.85,13.86a9.26,9.26,0,0,1,2.29-1.58c.21-.1.4.21.18.32a8.79,8.79,0,0,0-2.21,1.52C73.94,14.28,73.68,14,73.85,13.86Z"/><path class="cls-2" d="M75.8,17a13.28,13.28,0,0,1,2.51-1.44.2.2,0,0,1,.25.07.18.18,0,0,1-.06.25A12.75,12.75,0,0,0,76,17.29.19.19,0,0,1,75.8,17Z"/><path class="cls-2" d="M78.29,21.52A15.78,15.78,0,0,1,82,20.75c.23,0,.23.35,0,.37a15.44,15.44,0,0,0-3.62.75C78.17,21.94,78.07,21.59,78.29,21.52Z"/><path class="cls-2" d="M79.14,24.88q2.85,1,5.77,1.78a.18.18,0,0,1-.1.35c-1.94-.51-3.87-1.1-5.77-1.77C78.82,25.16,78.91,24.8,79.14,24.88Z"/><path class="cls-2" d="M78.33,29.56a56.59,56.59,0,0,1,7.25,7c.16.18-.1.44-.26.26a56,56,0,0,0-7.25-7C77.89,29.67,78.15,29.41,78.33,29.56Z"/><path class="cls-2" d="M74.53,32.54l5.07,9.29c.11.2-.21.39-.32.18l-5.07-9.29A.18.18,0,0,1,74.53,32.54Z"/><path class="cls-2" d="M69.21,32.91l2,11.14c0,.23-.31.33-.35.1L68.86,33C68.82,32.77,69.17,32.67,69.21,32.91Z"/><path class="cls-2" d="M63.28,32.41l1,10.94c0,.23-.34.23-.36,0-.33-3.65-.65-7.3-1-10.94C62.89,32.17,63.26,32.17,63.28,32.41Z"/><path class="cls-1" d="M49.55,79.26a11.32,11.32,0,0,1-12.84-.09c-.2-.14-.38.18-.19.31A11.81,11.81,0,0,0,47,81a12.22,12.22,0,0,0,2.78-1.38C49.93,79.45,49.75,79.13,49.55,79.26Z"/><path class="cls-1" d="M47.27,85.92a9.66,9.66,0,0,1-7.39.1c-.22-.09-.31.26-.09.35a10,10,0,0,0,7.67-.13C47.67,86.14,47.48,85.82,47.27,85.92Z"/><polygon class="cls-1" points="43.21 31.77 44.62 38.64 48.42 36.84 46.62 40.63 53.49 42.05 46.62 43.45 48.42 47.26 44.62 45.45 43.21 52.33 41.8 45.45 38 47.26 39.81 43.45 32.93 42.05 39.81 40.63 38 36.84 41.8 38.64 43.21 31.77"/><path class="cls-2" d="M38,27.63a9.49,9.49,0,1,1,10.83.11,6.18,6.18,0,0,0,.87-2.46A6.3,6.3,0,1,0,38,27.63Z"/><polygon class="cls-1" points="25.39 23.82 23.75 20.87 25.39 17.76 26.96 20.89 25.39 23.82"/><path class="cls-1" d="M31.36,23.39a.88.88,0,0,0,0-1.75A.88.88,0,0,0,31.36,23.39Z"/><path class="cls-1" d="M24.87,27.27a.88.88,0,0,0,0-1.75A.88.88,0,0,0,24.87,27.27Z"/><path class="cls-1" d="M29.67,28.15a.88.88,0,0,0,0-1.75A.88.88,0,0,0,29.67,28.15Z"/><polygon class="cls-1" points="56.7 17.77 55.06 14.81 56.7 11.7 58.28 14.83 56.7 17.77"/><path class="cls-1" d="M56.86,7.12a.88.88,0,0,0,1.76,0A.88.88,0,0,0,56.86,7.12Z"/><path class="cls-1" d="M54.34,9.21a.88.88,0,0,0,0-1.75A.88.88,0,0,0,54.34,9.21Z"/><path class="cls-1" d="M59.48,11.7a.88.88,0,0,0,0-1.75A.88.88,0,0,0,59.48,11.7Z"/><path class="cls-1" d="M72.09,67.77a10.92,10.92,0,0,0-7.23,3c-.18.17-.35.35-.51.53.14-.31.28-.63.4-1,.08-.17.15-.36.22-.54a.3.3,0,0,0,.08-.08c.78-1.68,2.45-2.73,3.39-4.32a8.15,8.15,0,0,0,1-2.65,12.64,12.64,0,0,0,0-2.75A9.54,9.54,0,0,1,69.65,57c.07-.22-.27-.35-.34-.12-.58,1.64-2,2.75-3.08,4.06a6.89,6.89,0,0,0-1.3,2.28,10,10,0,0,0-.35,2.93c0,.84.06,1.69.08,2.53v.09c0,.27,0,.53,0,.79,0,0,0,0,0,.06-.08.21-.16.43-.25.64-.26.64-.55,1.26-.85,1.88,0,0,0-.09,0-.13a2.8,2.8,0,0,0,0-.34c.08-.74.15-1.48.17-2.23A8.87,8.87,0,0,0,63,65.23a17.24,17.24,0,0,0-2.86-3.83.18.18,0,0,0-.3.19c.55,1.58-.11,3.27-.18,4.87a4.38,4.38,0,0,0,.45,2.31,9.26,9.26,0,0,0,1.44,1.86,8.82,8.82,0,0,1,1,1.32,3.8,3.8,0,0,1,.41.92.18.18,0,0,0,.1.12c-.17.32-.35.63-.53.94l.31.19c.19-.3.36-.6.53-.91l.15-.26a2.08,2.08,0,0,0,.64.16,5.28,5.28,0,0,0,3.92-1.37c1.4-1.15,2.48-2.67,4-3.63C72.28,68,72.29,67.76,72.09,67.77Z"/><path class="cls-1" d="M72.93,74.11c-3-.69-6.12-1.16-9.07-.13a7.91,7.91,0,0,0-1.23.54l.24-.4-.31-.19c-.19.31-.38.61-.58.91a7.18,7.18,0,0,1-.34-1.67,9.93,9.93,0,0,0-5.18-6.72c-.15-.07-.29.12-.23.25a26.37,26.37,0,0,1,1.12,4.21,6.51,6.51,0,0,0,2.28,3.5,6.07,6.07,0,0,0,2,1c-.3.43-.61.86-1,1.28-.53.67-1.09,1.31-1.68,1.93a8.76,8.76,0,0,0-4-8.54c-.15-.09-.38,0-.28.22.69,1.19.53,2.61.62,3.93a6.84,6.84,0,0,0,.26,1.49,6.42,6.42,0,0,0,1.14,2.22,6.76,6.76,0,0,0,1.56,1.41A27.72,27.72,0,0,1,56,81.28l.22.29c.2-.15.4-.29.58-.45a23.65,23.65,0,0,0,1.83-1.63,8.25,8.25,0,0,0,4.77,1.09,16.67,16.67,0,0,0,4-1.42,7.72,7.72,0,0,1,2.36-.59c.18,0,.19-.3,0-.35a13.58,13.58,0,0,0-9-.32,7.54,7.54,0,0,0-1.19.55c.46-.5.89-1,1.31-1.53s.73-1,1.07-1.44a4.46,4.46,0,0,0,2,1A7.4,7.4,0,0,0,68.35,76a20.09,20.09,0,0,1,4.55-1.51C73.07,74.44,73.11,74.15,72.93,74.11Z"/><path class="cls-1" d="M14.3,68.11c1.56,1,2.63,2.48,4,3.63a5.25,5.25,0,0,0,3.92,1.37A2.15,2.15,0,0,0,22.9,73l.14.26c.18.31.35.61.54.91l.31-.19c-.19-.31-.36-.62-.54-.94a.19.19,0,0,0,.11-.12,3.8,3.8,0,0,1,.41-.92,8.82,8.82,0,0,1,1.05-1.32,9.64,9.64,0,0,0,1.44-1.86,4.38,4.38,0,0,0,.45-2.31c-.07-1.6-.74-3.29-.18-4.87a.18.18,0,0,0-.3-.19,17.24,17.24,0,0,0-2.86,3.83,8.87,8.87,0,0,0-.81,4.19c0,.75.08,1.49.16,2.23,0,.09,0,.21.06.34s0,.09,0,.13c-.31-.62-.59-1.24-.85-1.88-.09-.21-.18-.43-.25-.64,0,0,0,0,0-.06,0-.26,0-.52,0-.79v-.09c0-.84.07-1.69.08-2.53a9.66,9.66,0,0,0-.36-2.93,6.56,6.56,0,0,0-1.3-2.28c-1.08-1.31-2.49-2.42-3.07-4.06a.18.18,0,0,0-.34.12A9.26,9.26,0,0,1,17,60,12.64,12.64,0,0,0,17,62.79a7.93,7.93,0,0,0,1,2.65c.94,1.59,2.6,2.64,3.39,4.32a.3.3,0,0,0,.08.08l.21.54c.13.32.27.64.41,1-.16-.18-.33-.36-.51-.53a10.94,10.94,0,0,0-7.23-3C14.16,67.76,14.17,68,14.3,68.11Z"/><path class="cls-1" d="M13.55,74.46A19.85,19.85,0,0,1,18.09,76a7.44,7.44,0,0,0,4.34.47,4.46,4.46,0,0,0,2-1c.34.49.7,1,1.07,1.44s.85,1,1.3,1.53a7.44,7.44,0,0,0-1.18-.55,13.57,13.57,0,0,0-9,.32c-.17,0-.16.34,0,.35a7.72,7.72,0,0,1,2.36.59,16.67,16.67,0,0,0,4,1.42,8.21,8.21,0,0,0,4.76-1.09c.59.57,1.2,1.12,1.84,1.63.18.16.38.3.57.45l.22-.29a27.58,27.58,0,0,1-2.25-1.93,6.76,6.76,0,0,0,1.56-1.41,6.42,6.42,0,0,0,1.14-2.22,6.84,6.84,0,0,0,.26-1.49c.09-1.32-.07-2.74.62-3.93.1-.17-.14-.31-.28-.22a8.87,8.87,0,0,0-1.8,1.49,8.77,8.77,0,0,0-2.23,7.05c-.59-.62-1.16-1.26-1.69-1.93-.33-.42-.64-.85-.94-1.28a6.17,6.17,0,0,0,2-1,6.51,6.51,0,0,0,2.28-3.5,26.37,26.37,0,0,1,1.12-4.21c.06-.13-.09-.32-.23-.25a9.81,9.81,0,0,0-3.52,3,10,10,0,0,0-1.66,3.72,7.73,7.73,0,0,1-.34,1.67c-.2-.3-.39-.6-.58-.91l-.31.19a3.26,3.26,0,0,0,.24.4A8.35,8.35,0,0,0,22.59,74c-2.95-1-6.1-.56-9.07.13C13.34,74.15,13.38,74.44,13.55,74.46Z"/></g></g></svg>