<svg xmlns="http://www.w3.org/2000/svg" viewBox="0 0 64.88 99.18"><defs><style>.cls-1{fill:#c4bd93;}.cls-2{fill:#5d4f7d;}</style></defs><g id="Layer_2" data-name="Layer 2"><g id="OBJECTS"><path class="cls-1" d="M57.74,18.16A23.93,23.93,0,0,0,34.56,0h-.7a23.9,23.9,0,0,0-22.48,18c.28.32.57.63.88.92a22.83,22.83,0,0,1,44.62.17A6.71,6.71,0,0,0,57.74,18.16Z"/><path class="cls-2" d="M59.9,59c-.31,3.2.83,6.36.22,9.55a6.58,6.58,0,0,1-1.63,3.37,9.61,9.61,0,0,1-3.23,1.81,5.88,5.88,0,0,0-1.61.93,3,3,0,0,0-.93,1.77,7.15,7.15,0,0,1-.53,2.14h0l.1.07a10.83,10.83,0,0,1,3,13.42,12.52,12.52,0,0,1-5.18,5.5,13.73,13.73,0,0,1-8.2,1.52,14.45,14.45,0,0,1-4-1,36,36,0,0,1-3.78-2,12.62,12.62,0,0,0-4-1.59,9.6,9.6,0,0,0-4,.36c-2.41.66-4.87,1.93-7.42,1.67s-4.14-2.21-5-4.45c-1-2.6-1.18-5.66-3-7.93-1.56-2-4-2.77-6.18-3.93A9.79,9.79,0,0,1,1.7,78,7,7,0,0,1,.15,74.72a14,14,0,0,1,1.18-7.66c1.15-2.8,2.7-5.48,3.25-8.49s-.44-5.88-1.18-8.78c-.67-2.6-1-5.38.46-7.79a13.74,13.74,0,0,1,2.65-3,39.78,39.78,0,0,0,3.1-3c3.92-4.38,6.58-10,11.53-13.35a12.24,12.24,0,0,1,7.22-2.33,8.77,8.77,0,0,1,6,2.34,8.93,8.93,0,0,1,.87-.76,10.13,10.13,0,0,1,14.68,2.33c1.6,2.35,1.84,5.3,3.27,7.73a7.37,7.37,0,0,0,3.23,2.87,30.92,30.92,0,0,1,3.93,2A11,11,0,0,1,64.5,43a10.72,10.72,0,0,1-.71,7.53C62.44,53.35,60.22,55.79,59.9,59Z"/><path class="cls-1" d="M56.8,52.71a8.93,8.93,0,0,1-3.6,3.48,24,24,0,0,1-5,13.47,17.24,17.24,0,0,1-12.7,6.54,17.28,17.28,0,0,1-12.71-6.54,24,24,0,0,1-5-13.47,8.74,8.74,0,0,1-4.51-9.67,4,4,0,0,1,1.8-2.78,2.1,2.1,0,0,1,2.57.55,51.12,51.12,0,0,0,10.16-5,18.65,18.65,0,0,0,7.62-9.57h.08a18.55,18.55,0,0,0,7.62,9.57,50.59,50.59,0,0,0,10.16,5,2.08,2.08,0,0,1,2.56-.55,3.94,3.94,0,0,1,1.8,2.78A8.83,8.83,0,0,1,56.8,52.71Z"/><path class="cls-2" d="M39.41,68a5.53,5.53,0,0,1-3.66,1.89A5.51,5.51,0,0,1,32.1,68a8.87,8.87,0,0,0,3.65.44A8.9,8.9,0,0,0,39.41,68Z"/><path class="cls-2" d="M26,44.94a6.48,6.48,0,0,0-5,2.55,5,5,0,0,1,2.66-3.28,10.34,10.34,0,0,1,4.43-1,3.57,3.57,0,0,1,2.24.44,2.59,2.59,0,0,1,1,1.75,7.83,7.83,0,0,1-.07,2A6.54,6.54,0,0,0,26,44.94Z"/><path class="cls-2" d="M31.08,59.42c1.55.23,3.11.38,4.67.46,1.57-.08,3.13-.23,4.68-.46a1.13,1.13,0,0,1-.62,1,3.2,3.2,0,0,1-1.34.29,3.24,3.24,0,0,0-1.35.29c-.35.18-.62.49-.95.69a1.08,1.08,0,0,1-.42.16,1,1,0,0,1-.41-.16c-.34-.2-.6-.51-1-.69A3.24,3.24,0,0,0,33,60.75a3.2,3.2,0,0,1-1.34-.29A1.13,1.13,0,0,1,31.08,59.42Z"/><path class="cls-2" d="M50.13,47.49a6.43,6.43,0,0,0-10.22-.05,7.83,7.83,0,0,1-.08-2,2.63,2.63,0,0,1,1-1.75A3.61,3.61,0,0,1,43,43.2a10.37,10.37,0,0,1,4.43,1A5,5,0,0,1,50.13,47.49Z"/><path class="cls-2" d="M41.12,66.29a2.64,2.64,0,0,0,1,.17A2.5,2.5,0,0,1,41,67a6.79,6.79,0,0,1-1.56.1l-3.69,0-3.68,0a6.79,6.79,0,0,1-1.56-.1,2.5,2.5,0,0,1-1.16-.55,2.64,2.64,0,0,0,1-.17,7.73,7.73,0,0,0,1.76-1.15,4.79,4.79,0,0,1,1.82-1,1.94,1.94,0,0,1,1.78.39,2,2,0,0,1,1.79-.39,4.79,4.79,0,0,1,1.82,1A7.31,7.31,0,0,0,41.12,66.29Z"/><path class="cls-2" d="M52.81,86.9a8.56,8.56,0,0,1-4.69,4.26,15.35,15.35,0,0,1-7.58.68,25.75,25.75,0,0,1-6.21-1.58,28,28,0,0,1-5.71-3,29,29,0,0,1-4.92-4.2,28.48,28.48,0,0,1-3.9-5.28A30.38,30.38,0,0,1,17,71.3a32.07,32.07,0,0,1-1.24-7,32.71,32.71,0,0,1,.3-7.06c0-.32.1-.64.16-1a.22.22,0,0,0,.08,0,4.94,4.94,0,0,1,5.42,2.41c1.1,2,.84,4.44,1.23,6.65.34,1.94,1.22,4,3.23,4.67a15.09,15.09,0,0,0,3.61.41,4.17,4.17,0,0,1,2.89,1.19c1.13,1.33.68,3.8,2.47,4.61,1.06.48,2.25,0,3.36,0A2.94,2.94,0,0,1,41,77.73a6.42,6.42,0,0,1,.93,2.76c.14,1.2.11,2.41.3,3.6A5.3,5.3,0,0,0,43.59,87a5.19,5.19,0,0,0,2.62,1.39,5.69,5.69,0,0,0,5.45-2.06,6.79,6.79,0,0,0,1.51-3.72A6.44,6.44,0,0,1,52.81,86.9Z"/><path class="cls-2" d="M30.3,49.72a7,7,0,0,1-8.2.23.18.18,0,0,0-.2.31A7.31,7.31,0,0,0,30.54,50C30.73,49.85,30.49,49.57,30.3,49.72Z"/><path class="cls-2" d="M26,51.92a7.77,7.77,0,0,1-4.35-1.36.55.55,0,0,1,.62-.91,6.7,6.7,0,0,0,7.77-.22h0a.55.55,0,0,1,.78.1.53.53,0,0,1-.09.76,7.73,7.73,0,0,1-4.36,1.62ZM30.53,50Z"/><path class="cls-2" d="M49.4,48.72a7.18,7.18,0,0,1-8.87,1.08c-.2-.12-.37.21-.16.34a7.62,7.62,0,0,0,7.55.15A7.35,7.35,0,0,0,49.68,49C49.84,48.79,49.56,48.55,49.4,48.72Z"/><path class="cls-2" d="M44.28,51.59a7.94,7.94,0,0,1-4.11-1.14A.57.57,0,0,1,39.9,50a.61.61,0,0,1,.29-.49.53.53,0,0,1,.53,0,6.8,6.8,0,0,0,8.42-1h0a.53.53,0,0,1,.53-.15.57.57,0,0,1,.41.4.52.52,0,0,1-.14.51,8.45,8.45,0,0,1-1.84,1.4A8,8,0,0,1,44.28,51.59Z"/><path class="cls-2" d="M52.93,53.4a.19.19,0,0,0-.36.1,18.79,18.79,0,0,1,.5,5.44c0,.23.35.23.37,0A19.13,19.13,0,0,0,52.93,53.4Z"/><path class="cls-1" d="M56.28,60.18a10.73,10.73,0,0,1-1.25-4A4.54,4.54,0,0,1,56,53a3.27,3.27,0,0,1,.63-.55c.2-.13,0-.45-.18-.32a4.07,4.07,0,0,0-1.68,2.7,7,7,0,0,0,.39,3.62c.49,1.37,1.22,2.64,1.75,4a6.94,6.94,0,0,1,.49,4.21c-.63,2.37-3,3.66-4.74,5.16-1.89,1.62-3.49,4-3.21,6.62a40,40,0,0,0,1.17,4.29,3.84,3.84,0,0,1-.76,3.72,2.11,2.11,0,0,1-.75.47.18.18,0,0,0-.12.22A3.77,3.77,0,0,1,48,86.8,5,5,0,0,1,46,84.71a11,11,0,0,1-.93-3.18,2,2,0,0,0,0-.24,2.58,2.58,0,0,0,1.35-1.49,4.62,4.62,0,0,0,0-2.68c-.23-1-.62-1.89-.79-2.88a5.17,5.17,0,0,1,.22-2.53,5.26,5.26,0,0,1,1.59-2.3c.18-.15-.08-.41-.27-.26a5.63,5.63,0,0,0-2,4.15c0,1.92,1.19,3.65,1,5.58a2.49,2.49,0,0,1-1.27,2.05,5.75,5.75,0,0,0-1-2.21,3.89,3.89,0,0,0-2.44-1.39,23.43,23.43,0,0,0-3.35-.17,4.61,4.61,0,0,1-3.06-1c-.18-.17-.44.09-.26.26,1.56,1.48,3.87,1,5.82,1.2a4.08,4.08,0,0,1,2.84,1.17,6.23,6.23,0,0,1,1.23,3.08,10,10,0,0,0,1,3.24,5.14,5.14,0,0,0,2.14,2.07,4.28,4.28,0,0,0,3.06.32,3.86,3.86,0,0,0,2.22-1.76,5.13,5.13,0,0,0,.64-3.42A6.53,6.53,0,0,1,54,86.08a6.54,6.54,0,0,1-11.3,2.54c-1.42-1.65-1.87-4-3.56-5.45a4.73,4.73,0,0,0-3.5-1c-1.46.12-2.84.66-4.28.91a4.86,4.86,0,0,1-3.62-.56,3.61,3.61,0,0,1-1.25-3.3,7.45,7.45,0,0,0-.42-3.63,5,5,0,0,0-2.33-2.09c-2.08-1-4.53-1-6.53-2.24a4.1,4.1,0,0,1-2-2.8,7.24,7.24,0,0,1,.58-3.92c1-2.47,2.7-4.9,2.16-7.7a4.41,4.41,0,0,0-.69-1.64c-.14-.19-.46,0-.32.19,1.71,2.43.14,5.45-.95,7.77a11.21,11.21,0,0,0-1.21,4,4.68,4.68,0,0,0,1.07,3.48c1.6,1.8,4.2,2,6.36,2.66a7,7,0,0,1,3,1.66A3.53,3.53,0,0,1,26,76.45a6.71,6.71,0,0,1,.15,2c0,1.23-.15,2.59.59,3.65a4,4,0,0,0,3,1.5A14.14,14.14,0,0,0,34,82.82a5.85,5.85,0,0,1,4.2.18,5.87,5.87,0,0,1,2.15,2.45,29.6,29.6,0,0,0,1.67,3,7.11,7.11,0,0,0,6.27,2.85,7,7,0,0,0,5.54-3.83,6.84,6.84,0,0,0,.54-4.49,10,10,0,0,1,.38,4.8,8.94,8.94,0,0,1-1.84,4.17,9.73,9.73,0,0,1-3.62,2.73A9.62,9.62,0,0,1,40.17,94c-3.17-1.87-5.86-4.86-9.67-5.39a6.68,6.68,0,0,0-2.67.15,12.61,12.61,0,0,0-2.27,1c-1.43.75-3,1.68-4.7,1.22a5,5,0,0,1-3.13-3.44c-.62-1.87-.59-3.86-1-5.77a6.73,6.73,0,0,0-2.41-4.13A16.88,16.88,0,0,0,10.13,76,5.74,5.74,0,0,1,8.2,74.88a3.7,3.7,0,0,1-1.13-2A6.47,6.47,0,0,1,8.45,68c1.08-1.5,2.47-2.74,3.6-4.19a7.81,7.81,0,0,0,1.87-5c-.08-2.11-1-4-1.49-6.06a5.67,5.67,0,0,1,.84-5.16,3.05,3.05,0,0,1,1.91-1.07c.24,0,.24-.4,0-.37a4,4,0,0,0-3.16,3c-.59,2,.1,4.06.7,5.93s1.21,4.09.43,6.14a15,15,0,0,1-3.33,4.58,11.73,11.73,0,0,0-3,4.6,4.82,4.82,0,0,0,.89,4.59c1,1.11,2.62,1.48,4,1.93a9.51,9.51,0,0,1,2.15.93,5,5,0,0,1,1.68,1.88c1.73,3.27.53,7.6,3.25,10.43a4.31,4.31,0,0,0,2,1.21,4.36,4.36,0,0,0,2.35-.1c1.67-.51,3.07-1.63,4.75-2.1a7.88,7.88,0,0,1,5.63.9,39.79,39.79,0,0,1,4.77,3.21,13.8,13.8,0,0,0,4.85,2.41,10.16,10.16,0,0,0,11.41-5.85,10.38,10.38,0,0,0-.81-9.08,9.4,9.4,0,0,0-.84-1.15c-.13-.27-1.09-.5.1,1.13a5.59,5.59,0,0,1,.06,4.41,3.69,3.69,0,0,1-2,2,3.76,3.76,0,0,1-1.76.16,3.19,3.19,0,0,0,1.77-2.56,10,10,0,0,0-.84-4.29,8.71,8.71,0,0,1-.49-2.25A5.68,5.68,0,0,1,50,76.23a8.47,8.47,0,0,1,2-3.31c1.64-1.74,4-2.83,5.22-5C58.71,65.41,57.4,62.59,56.28,60.18Z"/><path class="cls-1" d="M9.05,30.92c1.41.86,2.38,2.24,3.64,3.27a4.67,4.67,0,0,0,3.53,1.23,1.76,1.76,0,0,0,.58-.14c.05.08.09.16.13.24.16.27.31.55.48.81l.28-.17c-.16-.27-.33-.56-.48-.84a.18.18,0,0,0,.1-.11,3.1,3.1,0,0,1,.37-.83,8.19,8.19,0,0,1,.94-1.19,8.67,8.67,0,0,0,1.29-1.67,4,4,0,0,0,.42-2.08c-.07-1.45-.67-3-.17-4.39a.16.16,0,0,0-.27-.18,15.83,15.83,0,0,0-2.58,3.46,8,8,0,0,0-.73,3.77c0,.67.08,1.35.15,2,0,.08,0,.19.05.31s0,.07,0,.11c-.27-.55-.53-1.12-.77-1.69-.08-.19-.15-.39-.22-.58,0,0,0,0,0,0v-.8c0-.75.07-1.51.07-2.27a8.69,8.69,0,0,0-.32-2.64,6,6,0,0,0-1.17-2.06c-1-1.17-2.25-2.18-2.77-3.66-.07-.2-.37-.09-.31.12a8.19,8.19,0,0,1,.16,2.75,12.08,12.08,0,0,0,0,2.48,7.33,7.33,0,0,0,.88,2.39c.85,1.43,2.35,2.37,3.06,3.89a.16.16,0,0,0,.07.07c.06.16.12.33.19.49s.25.57.37.86c-.15-.17-.3-.33-.46-.49a9.9,9.9,0,0,0-6.51-2.73C8.92,30.61,8.93,30.85,9.05,30.92Z"/><path class="cls-1" d="M8.38,36.64A18,18,0,0,1,12.47,38a6.64,6.64,0,0,0,3.91.42,4,4,0,0,0,1.82-.86c.31.44.62.87,1,1.29s.77.94,1.18,1.38a8.59,8.59,0,0,0-1.07-.49,12.16,12.16,0,0,0-8.09.29c-.15,0-.14.31,0,.32a6.73,6.73,0,0,1,2.12.52A15.25,15.25,0,0,0,17,42.16a7.44,7.44,0,0,0,4.29-1q.8.78,1.65,1.47l.52.41.2-.27a22.31,22.31,0,0,1-2-1.74A5.72,5.72,0,0,0,24,37.77a6.59,6.59,0,0,0,.23-1.34c.08-1.18-.07-2.47.55-3.53.09-.16-.12-.29-.24-.21A8.07,8.07,0,0,0,23,34a7.91,7.91,0,0,0-2,6.34,22.53,22.53,0,0,1-1.51-1.73c-.3-.37-.58-.76-.86-1.16a5.39,5.39,0,0,0,1.77-.9,5.87,5.87,0,0,0,2.05-3.15,24.61,24.61,0,0,1,1-3.79c.06-.12-.07-.29-.21-.22A8.84,8.84,0,0,0,20,32.13a9,9,0,0,0-1.5,3.35,6.25,6.25,0,0,1-.31,1.5c-.18-.26-.35-.54-.52-.82l-.28.17c.07.13.14.24.22.36a9.13,9.13,0,0,0-1.11-.49c-2.66-.92-5.5-.5-8.17.12C8.19,36.36,8.22,36.62,8.38,36.64Z"/><path class="cls-1" d="M61.37,29.73a9.85,9.85,0,0,0-6.51,2.73c-.16.15-.32.31-.47.48.13-.28.26-.57.37-.86s.14-.32.2-.48a.27.27,0,0,0,.07-.08c.71-1.51,2.21-2.46,3-3.89A6.75,6.75,0,0,0,59,25.24,11.34,11.34,0,0,0,59,22.77,8.26,8.26,0,0,1,59.18,20c0-.2-.25-.32-.31-.11-.52,1.48-1.8,2.48-2.77,3.66a6.07,6.07,0,0,0-1.17,2.05,8.73,8.73,0,0,0-.32,2.64c0,.76,0,1.52.07,2.28v.08c0,.24,0,.48,0,.72a.43.43,0,0,1,0,.05c-.07.19-.15.38-.23.57-.23.58-.49,1.14-.76,1.7a.49.49,0,0,1,0-.12c0-.11,0-.22,0-.3.07-.67.13-1.34.15-2a8.07,8.07,0,0,0-.74-3.78A15.42,15.42,0,0,0,50.59,24a.17.17,0,0,0-.28.17c.51,1.43-.09,2.95-.16,4.39a4,4,0,0,0,.41,2.08,9.2,9.2,0,0,0,1.3,1.68,8.11,8.11,0,0,1,.94,1.18,3.24,3.24,0,0,1,.37.83.2.2,0,0,0,.1.12l-.48.84.28.17.48-.82.12-.23a2.41,2.41,0,0,0,.59.14,4.7,4.7,0,0,0,3.52-1.24c1.27-1,2.24-2.4,3.64-3.26C61.54,30,61.55,29.72,61.37,29.73Z"/><path class="cls-1" d="M62.13,35.44c-2.68-.62-5.51-1-8.17-.12a7.34,7.34,0,0,0-1.11.49c.08-.12.15-.24.22-.36l-.28-.17c-.17.28-.35.55-.52.82A5.88,5.88,0,0,1,52,34.59a9,9,0,0,0-1.5-3.35,8.89,8.89,0,0,0-3.17-2.7c-.13-.06-.26.11-.21.22a24.76,24.76,0,0,1,1,3.8,5.76,5.76,0,0,0,2,3.15,5.54,5.54,0,0,0,1.76.9c-.27.39-.55.78-.85,1.16-.48.6-1,1.17-1.52,1.73a7.87,7.87,0,0,0-2-6.35,8,8,0,0,0-1.62-1.34c-.13-.08-.34.05-.25.2a7.86,7.86,0,0,1,.56,3.54,6.16,6.16,0,0,0,.23,1.34,6,6,0,0,0,1,2,5.84,5.84,0,0,0,1.4,1.27,23.77,23.77,0,0,1-2,1.74l.19.26.52-.4c.58-.46,1.12-1,1.65-1.47a7.39,7.39,0,0,0,4.3,1A15.84,15.84,0,0,0,57.15,40a6.74,6.74,0,0,1,2.12-.53c.17,0,.18-.27,0-.32a12.28,12.28,0,0,0-8.09-.29,7.41,7.41,0,0,0-1.07.5c.41-.45.8-.91,1.18-1.38s.65-.85,1-1.29a4.09,4.09,0,0,0,1.82.86A6.74,6.74,0,0,0,58,37.11a18.54,18.54,0,0,1,4.09-1.36C62.25,35.73,62.29,35.47,62.13,35.44Z"/><path class="cls-2" d="M39.41,15.77a6.07,6.07,0,1,1-.84-6.89,4,4,0,1,0,.84,6.89Z"/><polygon class="cls-2" points="7.77 23.02 9.5 26.14 7.77 29.41 6.11 26.11 7.77 23.02"/><path class="cls-2" d="M4.65,21.42a.93.93,0,0,0,0,1.85A.93.93,0,0,0,4.65,21.42Z"/><path class="cls-2" d="M7.94,18a.92.92,0,0,0,0,1.84A.92.92,0,0,0,7.94,18Z"/><path class="cls-2" d="M4.92,16.77a.92.92,0,0,0,0,1.84A.92.92,0,0,0,4.92,16.77Z"/><polygon class="cls-2" points="57.95 74.54 59.68 77.66 57.95 80.94 56.28 77.64 57.95 74.54"/><path class="cls-2" d="M54.83,75.28a.93.93,0,0,0,0,1.85A.93.93,0,0,0,54.83,75.28Z"/><path class="cls-2" d="M59.68,81.7a.93.93,0,0,0,0,1.85A.93.93,0,0,0,59.68,81.7Z"/><path class="cls-2" d="M60.57,74.11a.93.93,0,0,0,0,1.85A.93.93,0,0,0,60.57,74.11Z"/></g></g></svg>