<svg width="80" height="65" viewBox="0 0 80 65" fill="none" xmlns="http://www.w3.org/2000/svg">
<path d="M10.1302 29.0239C10.475 28.0635 12.0604 28.0635 12.4052 29.0239L14.2156 34.0675C14.3693 34.4956 14.8307 34.7878 15.3531 34.7878H21.3429C22.4802 34.7878 22.9697 36.0248 22.0672 36.6183L17.1126 39.8767C16.7178 40.1363 16.553 40.579 16.6994 40.9868L18.5654 46.1854C18.9065 47.1354 17.6235 47.9004 16.7037 47.2955L11.992 44.1968C11.5647 43.9158 10.9707 43.9158 10.5434 44.1968L5.83175 47.2955C4.91188 47.9004 3.62895 47.1354 3.96999 46.1854L5.83607 40.9868C5.98242 40.579 5.81761 40.1363 5.42285 39.8767L0.46821 36.6183C-0.434251 36.0248 0.0551831 34.7878 1.19248 34.7878H7.18233C7.70476 34.7878 8.16611 34.4956 8.31981 34.0675L10.1302 29.0239Z" fill="#221A55"/>
<path d="M41.0506 13.0319C41.7083 11.2079 44.7241 11.2079 45.3818 13.0319L49.1683 23.5335C49.4615 24.3468 50.3396 24.9015 51.3338 24.9015H63.8247C65.992 24.9015 66.923 27.2558 65.2015 28.3829L54.8995 35.1278C54.1456 35.6214 53.8308 36.4649 54.1108 37.2413L57.998 48.0224C58.6489 49.8277 56.2086 51.2836 54.4556 50.1359L44.593 43.6786C43.7804 43.1465 42.6521 43.1465 41.8394 43.6786L31.9768 50.1359C30.2238 51.2836 27.7835 49.8277 28.4344 48.0224L32.3216 37.2413C32.6016 36.4649 32.2868 35.6214 31.5329 35.1278L21.2309 28.3829C19.5094 27.2558 20.4405 24.9015 22.6077 24.9015H35.0986C36.0928 24.9015 36.9709 24.3468 37.2642 23.5335L41.0506 13.0319Z" fill="#221A55"/>
<path d="M15.3317 53.1887C15.6758 52.2271 17.2631 52.2271 17.6073 53.1887L18.2699 55.0404C18.4232 55.469 18.8848 55.7616 19.4077 55.7616H21.6903C22.8267 55.7616 23.3167 56.9969 22.416 57.5911L20.4544 58.8851C20.0609 59.1447 19.8967 59.5864 20.0423 59.9934L20.7636 62.009C21.1038 62.9597 19.8193 63.7237 18.9001 63.1174L17.1951 61.9926C16.7673 61.7104 16.1716 61.7104 15.7438 61.9926L14.0388 63.1174C13.1197 63.7237 11.8351 62.9597 12.1753 62.009L12.8966 59.9934C13.0423 59.5864 12.878 59.1447 12.4845 58.8851L10.523 57.5911C9.62224 56.9969 10.1122 55.7616 11.2486 55.7616H13.5313C14.0541 55.7616 14.5157 55.469 14.6691 55.0404L15.3317 53.1887Z" fill="#221A55"/>
<path d="M41.273 51.1273C41.6183 50.1679 43.2021 50.1679 43.5474 51.1273L44.6896 54.3006C44.8436 54.7283 45.3048 55.0201 45.8269 55.0201H49.6479C50.786 55.0201 51.275 56.2585 50.371 56.8514L47.1764 58.9465C46.7805 59.2062 46.6151 59.6498 46.7621 60.0582L47.9573 63.3785C48.2991 64.3281 47.0176 65.0939 46.0971 64.4902L43.1332 62.5464C42.7065 62.2666 42.114 62.2666 41.6872 62.5464L38.7233 64.4902C37.8028 65.0939 36.5213 64.3281 36.8631 63.3785L38.0583 60.0582C38.2053 59.6498 38.0399 59.2062 37.644 58.9465L34.4495 56.8514C33.5454 56.2585 34.0344 55.0201 35.1725 55.0201H38.9936C39.5156 55.0201 39.9768 54.7283 40.1308 54.3006L41.273 51.1273Z" fill="#221A55"/>
<path fill-rule="evenodd" clip-rule="evenodd" d="M23.678 22.5977C22.9034 21.9334 22.9034 20.8564 23.678 20.1921L32.4058 12.7077C33.1804 12.0435 34.4364 12.0435 35.211 12.7077C35.9857 13.372 35.9857 14.449 35.211 15.1133L26.4832 22.5977C25.7086 23.262 24.4526 23.262 23.678 22.5977Z" fill="#221A55"/>
<path fill-rule="evenodd" clip-rule="evenodd" d="M55.8845 20.8966C55.1099 20.2324 55.1099 19.1553 55.8845 18.4911L67.3894 8.6253C68.164 7.96102 69.4199 7.96102 70.1946 8.6253C70.9692 9.28958 70.9692 10.3666 70.1946 11.0309L58.6898 20.8966C57.9151 21.5609 56.6592 21.5609 55.8845 20.8966Z" fill="#221A55"/>
<path fill-rule="evenodd" clip-rule="evenodd" d="M62.2317 44.3703C61.4571 43.706 61.4571 42.629 62.2317 41.9647L66.9923 37.8823C67.767 37.218 69.0229 37.218 69.7975 37.8823C70.5722 38.5466 70.5722 39.6236 69.7975 40.2879L65.0369 44.3703C64.2623 45.0345 63.0064 45.0345 62.2317 44.3703Z" fill="#221A55"/>
<path fill-rule="evenodd" clip-rule="evenodd" d="M41.2058 7.69082C40.4312 7.02654 40.4312 5.94953 41.2058 5.28525L45.9664 1.20287C46.7411 0.538591 47.997 0.538591 48.7717 1.20287C49.5463 1.86715 49.5463 2.94416 48.7717 3.60844L44.0111 7.69082C43.2364 8.3551 41.9805 8.3551 41.2058 7.69082Z" fill="#221A55"/>
<path fill-rule="evenodd" clip-rule="evenodd" d="M73.4119 5.98965C72.6372 5.32537 72.6372 4.24836 73.4119 3.58408L75.7922 1.54289C76.5668 0.87861 77.8228 0.87861 78.5974 1.54289C79.3721 2.20717 79.3721 3.28418 78.5974 3.94846L76.2171 5.98965C75.4425 6.65393 74.1865 6.65393 73.4119 5.98965Z" fill="#221A55"/>
<path fill-rule="evenodd" clip-rule="evenodd" d="M72.9431 35.2467C72.1685 34.5824 72.1685 33.5054 72.9431 32.8412L75.3234 30.8C76.0981 30.1357 77.354 30.1357 78.1287 30.8C78.9033 31.4642 78.9033 32.5413 78.1287 33.2055L75.7484 35.2467C74.9737 35.911 73.7178 35.911 72.9431 35.2467Z" fill="#221A55"/>
</svg>
